<?xml version="1.0" encoding="utf-8"?>
<!-- Generator: Adobe Illustrator 27.5.0, SVG Export Plug-In . SVG Version: 6.00 Build 0)  -->
<svg version="1.1" id="Capa_2" xmlns="http://www.w3.org/2000/svg" xmlns:xlink="http://www.w3.org/1999/xlink" x="0px" y="0px"
	 viewBox="0 0 2122 2122" style="enable-background:new 0 0 2122 2122;" xml:space="preserve">
<g>
	<path style="fill:#F1855F;" d="M1428.976,1538.906l-28.63,33.203c-5.739-25.687-15.749-44.351-28.161-50.579
		c-2.633-1.321-5.368-2.116-8.198-2.264l-0.496,0.005l0.049-0.216c-76.714-17.369-141.04-22.008-143.677-10.362
		c-1.858,8.207,27.434,22.31,71.726,36.001c-59.201,3.834-102.352,13.024-102.149,22.864c0.201,9.769,43.061,17.142,101.71,18.616
		c-51.849,11.408-87.714,25.017-86.279,34.066c1.511,9.542,44.022,11.083,101.338,4.804c-47.567,19.648-80.412,39.199-77.504,47.241
		c2.745,7.586,36.497,2.697,81.559-10.74c1.979,46.987,15.741,83.805,34.822,91.602c2.138,0.874,4.336,1.409,6.598,1.527
		c4.027,0.211,8-0.841,11.856-2.99c2.281-1.271,4.519-2.939,6.703-4.956l134.425-99.385
		C1457.321,1611.29,1436.417,1561.43,1428.976,1538.906z"/>
	<path style="fill:#C0492E;" d="M969.891,669.888c-6.723,4.297-15.666,8.854-23.639,5.135c-2.874-1.341-5.681-3.817-6.261-7.074
		c-0.692-3.89,1.543-7.68,3.406-10.92c4.669-8.117,8.727-15.977,10.237-25.35c1.603-9.946,1.134-19.806-0.689-29.687
		c-1.456-7.883-13.479-4.544-12.027,3.316c1.97,10.68,1.933,21.831-1.545,32.201c-3.34,9.958-12.164,18.184-11.979,29.247
		c0.171,10.075,7.869,18.009,17.135,20.915c10.93,3.427,22.484-1.151,31.655-7.014C982.929,676.347,976.681,665.548,969.891,669.888
		z"/>
	<path style="fill:#F49D83;" d="M872.179,639.39c-18.565,4.73-29.78,23.614-25.05,42.178c4.73,18.565,23.613,29.78,42.178,25.051
		c18.564-4.73,29.78-23.613,25.05-42.178C909.627,645.876,890.744,634.66,872.179,639.39z"/>
	<path style="fill:#F49D83;" d="M1078.487,623.639c18.564-4.73,29.779-23.613,25.05-42.178c-4.729-18.564-23.613-29.78-42.178-25.05
		c-18.565,4.73-29.78,23.614-25.05,42.178C1041.039,617.154,1059.922,628.369,1078.487,623.639z"/>
	<path style="fill:#C0492E;" d="M1059.047,666.845c-27.342-1.111-53.853,12.57-69.361,34.973c-1.917,2.77-0.511,6.924,2.238,8.532
		c3.099,1.813,6.61,0.54,8.532-2.237c13.046-18.847,35.806-29.721,58.591-28.796
		C1067.074,679.644,1067.059,667.171,1059.047,666.845z"/>
	<path style="fill:#7A1E0F;" d="M841.779,557.015c0.617-1.05,1.175-2.135,1.881-3.129l0.463-0.641l1.011-1.224
		c0.731-0.849,1.501-1.666,2.299-2.452c0.802-0.787,1.647-1.518,2.495-2.255l0.295-0.261l0.123-0.087l1.24-0.893
		c1.845-1.275,3.791-2.402,5.813-3.371l0.898-0.415l0.986-0.396c1.144-0.431,2.307-0.812,3.485-1.143
		c0.981-0.275,1.972-0.515,2.971-0.717c0.599-0.121,1.201-0.223,1.805-0.324c-1.093,0.183,0.513-0.057,0.767-0.084
		c3.235-0.334,6.398-2.629,6.236-6.236c-0.138-3.091-2.76-6.596-6.236-6.236c-10.963,1.133-21.229,5.528-29.257,13.174
		c-4.557,4.339-8.227,9.69-10.763,15.513c2.821,0.106,5.64,0.268,8.451,0.532C838.413,556.528,840.102,556.739,841.779,557.015z"/>
	<path style="fill:#7A1E0F;" d="M965.284,499.887c10.907-12.428,28.728-16.396,43.643-8.725c2.995,1.54,6.769,0.778,8.533-2.238
		c1.632-2.791,0.769-6.986-2.239-8.532c-19.638-10.101-44.062-6.069-58.756,10.675c-2.221,2.53-2.491,6.329,0,8.82
		C958.729,502.152,963.053,502.429,965.284,499.887z"/>
	<path style="fill:#E88977;" d="M716.089,1207.734c1.816-52.528,6.348-104.943,13.729-156.983
		c1.114-7.851-10.904-11.243-12.026-3.316c-7.539,53.155-12.32,106.643-14.175,160.299l0.048,0.762
		c0.327,4.394,4.719,6.036,8.205,4.898C714.123,1212.657,715.984,1210.775,716.089,1207.734z"/>
	<path style="fill:#E88977;" d="M1249.901,1403.169c-114.073-30.4-221.922-82.627-316.635-153.099
		c-26.575-19.773-52.008-41.051-76.293-63.574c-5.88-5.453-14.72,3.347-8.82,8.82c87.748,81.38,190.829,145.608,302.466,188.705
		c31.4,12.122,63.444,22.508,95.967,31.175C1254.349,1417.265,1257.662,1405.237,1249.901,1403.169z"/>
	<path style="fill:#E88977;" d="M1003.09,1747.084c-78.925-87.668-140.955-190.495-181.613-301.241
		c-11.412-31.081-21.131-62.759-29.183-94.873c-1.951-7.781-13.983-4.485-12.028,3.316
		c29.083,115.993,80.467,226.32,150.599,323.187c19.726,27.247,40.899,53.432,63.406,78.431
		C999.653,1761.881,1008.45,1753.038,1003.09,1747.084z"/>
	<path style="fill:#E88977;" d="M953.103,1835.975c45.962,6.119,92.334,8.473,138.677,8.743
		c41.972,0.245,84.489,0.167,126.207-4.978c42.428-5.233,84.802-16.707,119.305-42.954c6.306-4.797,0.098-15.633-6.295-10.769
		c-62.917,47.862-149.33,46.018-224.565,46.248c-87.316,0.268-175.425-6.194-259.476-31.238
		c-44.582-13.283-87.485-31.766-126.995-56.402l-0.761-0.376c-6.516-3.045-12.083,7.061-5.533,11.145
		c1.894,1.181,3.826,2.289,5.735,3.443C790.382,1801.702,871.282,1825.082,953.103,1835.975z"/>
	<path style="fill:#F1855F;" d="M1051.393,417.551c0,0-138.883,59.352-248.717,72.908l0.116,1.102c0,1.745-0.739,3.116-1.826,4.41
		c-4.609,5.489-10.194,10.195-16.293,13.951c-0.896,0.552-1.866,0.791-2.832,0.821c0.023,0.749,0.028,1.482,0.058,2.237
		c10.161-3.913,20.675-6.843,31.418-8.637c8.854-1.479,20.753-4.451,28.187,2.273c3.678,3.328,5.033,8.593,3.491,13.299
		c-1.428,4.354-4.713,7.699-7.99,10.744c-12.051,11.193-25.886,20.36-40.798,27.279c8.476-1.408,17.065-2.189,25.652-2.227
		c2.145-0.009,4.29,0.047,6.432,0.128c2.536-5.823,6.206-11.174,10.763-15.513c8.028-7.645,18.293-12.04,29.257-13.174
		c3.476-0.359,6.099,3.145,6.236,6.236c0.162,3.608-3.001,5.902-6.236,6.236c-0.254,0.026-1.86,0.267-0.767,0.084
		c-0.604,0.101-1.206,0.203-1.805,0.324c-0.999,0.202-1.99,0.441-2.971,0.717c-1.178,0.331-2.341,0.711-3.485,1.143l-0.986,0.396
		l-0.898,0.415c-2.022,0.969-3.967,2.096-5.813,3.371l-1.24,0.893l-0.123,0.087l-0.295,0.261c-0.848,0.736-1.693,1.467-2.495,2.255
		c-0.799,0.785-1.569,1.602-2.299,2.452l-1.011,1.224l-0.463,0.641c-0.706,0.993-1.264,2.078-1.881,3.129
		c3.006,0.494,5.955,1.28,8.559,2.923c8.543,5.391,9.65,16.335,2.387,23.319c-3.207,3.083-7.242,5.242-11.116,7.356
		c-4.166,2.274-8.427,4.372-12.768,6.29c-9.02,3.984-18.285,7.279-27.827,9.766c-0.721,0.188-1.387,0.221-2.027,0.187
		c28.693,101.535,79.644,179.245,165.219,189.591c0.229-2.892,2.189-5.47,5.937-5.158c45.458,3.792,91.335-10.965,125.645-41.151
		c6.007-5.286,14.857,3.507,8.819,8.82c-36.681,32.273-85.694,48.872-134.464,44.804l-1.18-0.217l-3.582,20.269
		c7.365,1.675,15.166,3.48,23.346,5.16c1.89-6.204,12.412-5.642,12.166,1.746l-0.015,0.553c13.262,2.311,27.303,3.949,41.827,3.927
		c0.409-7.108,11.179-7.227,12.308-0.419c2.63-0.187,5.267-0.415,7.919-0.733c15.792-1.893,30.946-6.101,45.298-11.311
		c-0.083-0.966-0.129-1.934-0.215-2.9c-0.659-7.385,9.888-7.878,12.086-1.687c20.705-8.458,39.505-18.336,55.827-25.34
		c-0.1-0.975-0.152-1.953-0.257-2.927c-0.38-3.535,1.857-5.481,4.54-5.874l-17.135-148.684c0.546-9.23,0.626-18.715,0.285-28.422
		c22.321,6.159,45.396-7.02,65.948-28.456c27.516-28.698,40.089-61.294,11.391-88.81c-23.747-22.769-49.159-16.525-72.813,2.555
		c-2.146,12.575-4.981,26.25-8.646,41.194C1159.241,533.388,1019.124,524.55,1051.393,417.551z M1061.359,556.411
		c18.565-4.73,37.448,6.486,42.178,25.05c4.73,18.565-6.486,37.449-25.05,42.178c-18.565,4.73-37.448-6.486-42.178-25.05
		C1031.579,580.025,1042.794,561.141,1061.359,556.411z M1014.294,584.673c-4.052,3.519-9.351,5.006-14.614,3.633
		c-5.001-1.304-9.261-4.805-12.669-8.562c-6.714-7.401-10.845-16.447-14.761-25.522c-1.34-3.105-0.958-6.663,2.238-8.532
		c2.655-1.553,7.197-0.856,8.532,2.237c3.083,7.143,6.183,14.574,10.95,20.794c1.964,2.562,4.414,5.422,7.345,6.899
		c2.192,1.106,3.717,1.001,5.284-0.843c4.14-4.874,1.403-14.214,0.09-19.919c-1.886-8.201-4.703-16.133-8.46-23.661
		c-1.51-3.024-0.832-6.738,2.237-8.533c2.771-1.62,7.029-0.775,8.532,2.238c4.826,9.668,8.491,19.907,10.542,30.525
		C1021.447,565.316,1022.794,577.291,1014.294,584.673z M956.465,491.067c14.694-16.744,39.118-20.776,58.756-10.675
		c3.007,1.546,3.871,5.741,2.239,8.532c-1.765,3.016-5.538,3.777-8.533,2.238c-14.915-7.672-32.736-3.703-43.643,8.725
		c-2.231,2.542-6.555,2.266-8.819,0C953.974,497.396,954.244,493.598,956.465,491.067z M889.307,706.619
		c-18.565,4.73-37.448-6.486-42.178-25.051c-4.73-18.564,6.485-37.448,25.05-42.178c18.565-4.73,37.448,6.486,42.178,25.05
		C919.086,683.005,907.871,701.889,889.307,706.619z M915.047,626.741c-4.051,3.519-9.35,5.006-14.614,3.633
		c-5.001-1.304-9.259-4.805-12.669-8.562c-6.714-7.401-10.845-16.447-14.761-25.522c-1.34-3.105-0.959-6.663,2.238-8.532
		c2.655-1.553,7.197-0.856,8.532,2.237c3.083,7.143,6.182,14.574,10.95,20.794c1.964,2.562,4.414,5.422,7.345,6.899
		c2.192,1.105,3.717,1.001,5.283-0.843c4.14-4.874,1.403-14.214,0.09-19.919c-1.887-8.201-4.703-16.133-8.46-23.661
		c-1.51-3.024-0.831-6.738,2.238-8.533c2.77-1.62,7.028-0.776,8.532,2.238c4.824,9.668,8.491,19.907,10.541,30.525
		C922.202,607.384,923.548,619.359,915.047,626.741z M944.531,687.671c-9.267-2.906-16.965-10.84-17.135-20.915
		c-0.185-11.063,8.64-19.289,11.979-29.247c3.478-10.37,3.514-21.521,1.545-32.201c-1.452-7.859,10.571-11.198,12.027-3.316
		c1.823,9.881,2.292,19.741,0.689,29.687c-1.51,9.373-5.569,17.233-10.237,25.35c-1.863,3.24-4.099,7.031-3.406,10.92
		c0.58,3.257,3.387,5.733,6.261,7.074c7.973,3.719,16.916-0.838,23.639-5.135c6.79-4.34,13.038,6.46,6.295,10.77
		C967.014,686.52,955.461,691.099,944.531,687.671z M1059.047,679.318c-22.784-0.925-45.544,9.949-58.591,28.796
		c-1.922,2.777-5.434,4.05-8.532,2.237c-2.749-1.608-4.155-5.762-2.238-8.532c15.508-22.403,42.018-36.084,69.361-34.973
		C1067.059,667.171,1067.074,679.644,1059.047,679.318z M1162.782,562.433c7.189-24.354,23.247-45.482,44.748-58.979
		c6.825-4.284,13.077,6.512,6.295,10.77c-6.786,4.261-12.927,9.431-18.327,15.271c7.702,3.158,14.372,8.939,18.53,16.107
		c1.751,3.02,0.61,6.697-2.238,8.533c-2.825,1.82-6.895,0.585-8.532-2.238c-0.547-0.944-1.146-1.854-1.787-2.737
		c-0.72-0.73-0.55-0.656-0.293-0.383l-0.096-0.117l-1.107-1.245c-0.722-0.77-1.484-1.504-2.278-2.199l-1.284-1.065
		c1.528,1.292,0.099,0.095-0.348-0.214c-0.913-0.632-1.861-1.218-2.836-1.753c-0.487-0.267-0.981-0.522-1.482-0.764l-0.626-0.292
		c-1.162-0.591-2.489-0.972-3.842-1.264c-5.442,7.906-9.732,16.612-12.468,25.884
		C1172.538,573.442,1160.505,570.147,1162.782,562.433z"/>
	<path style="fill:#C0492E;" d="M1174.81,565.749c2.735-9.272,7.026-17.979,12.468-25.884c1.353,0.292,2.68,0.673,3.842,1.264
		l0.626,0.292c0.501,0.241,0.995,0.497,1.482,0.764c0.974,0.535,1.922,1.12,2.836,1.753c0.447,0.309,1.876,1.505,0.348,0.214
		l1.284,1.065c0.794,0.695,1.556,1.429,2.278,2.199l1.107,1.245l0.096,0.117l0.168,0.191l0.047,0.072l0.217,0.264l-0.139-0.144
		c0.641,0.883,1.24,1.793,1.787,2.737c1.637,2.823,5.707,4.058,8.532,2.238c2.848-1.836,3.989-5.512,2.238-8.533
		c-4.157-7.167-10.828-12.949-18.53-16.107c5.401-5.84,11.542-11.01,18.327-15.271c6.782-4.258,0.53-15.054-6.295-10.77
		c-21.5,13.497-37.559,34.625-44.748,58.979C1160.505,570.147,1172.538,573.442,1174.81,565.749z"/>
	<path style="fill:#C0492E;" d="M909.751,566.969c-1.504-3.013-5.762-3.857-8.532-2.238c-3.068,1.795-3.748,5.508-2.238,8.533
		c3.758,7.529,6.574,15.46,8.46,23.661c1.313,5.706,4.05,15.045-0.09,19.919c-1.566,1.844-3.091,1.948-5.283,0.843
		c-2.93-1.477-5.381-4.336-7.345-6.899c-4.768-6.219-7.867-13.651-10.95-20.794c-1.335-3.093-5.877-3.79-8.532-2.237
		c-3.196,1.869-3.578,5.427-2.238,8.532c3.916,9.075,8.047,18.121,14.761,25.522c3.41,3.757,7.668,7.258,12.669,8.562
		c5.263,1.372,10.563-0.115,14.614-3.633c8.501-7.382,7.155-19.357,5.245-29.246C918.242,586.876,914.576,576.637,909.751,566.969z"
		/>
	<path style="fill:#C0492E;" d="M1000.464,522.664c-3.068,1.794-3.747,5.508-2.237,8.533c3.758,7.529,6.574,15.46,8.46,23.661
		c1.313,5.706,4.05,15.045-0.09,19.919c-1.567,1.844-3.092,1.949-5.284,0.843c-2.931-1.477-5.381-4.336-7.345-6.899
		c-4.767-6.219-7.867-13.651-10.95-20.794c-1.335-3.093-5.877-3.79-8.532-2.237c-3.196,1.869-3.577,5.427-2.238,8.532
		c3.916,9.075,8.047,18.121,14.761,25.522c3.409,3.758,7.668,7.258,12.669,8.562c5.263,1.372,10.562-0.115,14.614-3.633
		c8.5-7.382,7.153-19.357,5.245-29.246c-2.051-10.619-5.716-20.858-10.542-30.525
		C1007.493,521.889,1003.235,521.044,1000.464,522.664z"/>
	<path style="fill:#C0492E;" d="M968.963,803.545l1.18,0.217c48.77,4.068,97.783-12.531,134.464-44.804
		c6.039-5.312-2.811-14.105-8.819-8.82c-34.311,30.186-80.187,44.943-125.645,41.151c-3.748-0.312-5.708,2.266-5.937,5.158
		C963.973,799.401,965.555,802.664,968.963,803.545z"/>
	<path style="fill:#F8BEB0;" d="M1462.687,1484.889l-37.173,42.115c0,0,1.01,4.483,3.461,11.902
		c7.441,22.524,28.345,72.383,75.692,108.436c5.391,4.104,11.084,8.051,17.18,11.735c0,0,20.715-10.963,50.343-29.419
		c-1.054-0.159-2.111-0.561-3.102-1.34C1521.507,1590.955,1484.845,1541.097,1462.687,1484.889z"/>
	<path style="fill:#F8BEB0;" d="M1765.568,1358.878c0,0-201.134-356.511-347.504-425.425
		c-30.725-18.006-92.407-34.738-171.626-46.914c-2.311,23.04-5.747,46.881-17.91,66.907c-12.481,20.551-33.049,32.103-55.359,39.398
		c-26.008,8.504-53.262,13.416-80.332,17.043c-52.755,7.069-110.938,11.598-158.256-17.61c-6.826-4.213-0.554-14.997,6.295-10.77
		c16.177,9.986,34.155,15.759,52.704,18.699c-5.311-56.33-7.044-112.937-5.16-169.487c0.022-0.639,0.144-1.209,0.307-1.746
		c-8.18-1.679-15.98-3.484-23.346-5.16c-3.524-0.801-6.939-1.564-10.249-2.272c-0.003,0.438-0.045,0.891-0.141,1.362
		c-9.017,44.062-10.786,89.241-5.543,133.902c0.935,7.97-11.548,7.877-12.473,0c-5.374-45.783-3.252-92.065,5.988-137.217
		l0.116-0.373c-31.172-5.197-49.077,0.393-43.579,50.008c-64.415,3.489-117.163,11.183-150.912,22.051
		c-23.86,90.577-56.136,178.807-96.274,263.439c-3.441,7.256-14.19,0.919-10.77-6.295c40.08-84.513,72.109-172.692,95.764-263.184
		c1.11-4.244,5.192-5.165,8.346-3.876c15.921-55.795,24.582-93.2,24.582-93.2c-1.66-1.653-3.325-3.218-4.991-4.762
		c-41.637-38.588-84.862-43.772-109.142-42.908c-12.202,0.434-19.642,2.379-19.642,2.379l-247.867,402.445
		c0,0-122.285,177.058,35.028,222.497c31.075,8.976,60.889,1.044,89.079-18.73l0.003,0.002c0,0,95.299-61.299,190.96-140.586
		l-0.048-0.762c1.855-53.656,6.636-107.144,14.175-160.299c1.123-7.927,13.14-4.535,12.026,3.316
		c-7.381,52.041-11.913,104.456-13.729,156.983c-0.105,3.041-1.966,4.924-4.219,5.66l7.33,530.856l0.761,0.376
		c39.51,24.636,82.413,43.119,126.995,56.402c84.051,25.043,172.16,31.506,259.476,31.238
		c75.235-0.231,161.648,1.614,224.565-46.248c6.394-4.864,12.601,5.973,6.295,10.769c-34.503,26.248-76.877,37.722-119.305,42.954
		c-41.718,5.145-84.235,5.223-126.207,4.978c-46.343-0.27-92.715-2.624-138.677-8.743c-81.821-10.894-162.721-34.274-233.702-77.138
		l0.434,31.418l0.479,0.015l-0.001,0.01c-2.897,55.441,132.798,107.598,303.083,116.497c170.285,8.899,310.676-28.83,313.573-84.27
		l8.116-69.361c-19.08-7.797-32.843-44.615-34.822-91.602c-45.062,13.437-78.815,18.327-81.559,10.74
		c-2.908-8.042,29.937-27.592,77.504-47.241c-57.317,6.28-99.827,4.738-101.338-4.804c-1.435-9.049,34.43-22.658,86.279-34.066
		c-58.649-1.473-101.509-8.847-101.71-18.616c-0.203-9.84,42.948-19.03,102.149-22.864c-44.292-13.691-73.583-27.795-71.726-36.001
		c2.637-11.646,66.963-7.007,143.677,10.362l-0.049,0.216l0.496-0.005c2.831,0.148,5.565,0.944,8.198,2.264l29.196-249.544
		c-45.058-60.798-79.515-129.078-101.791-201.406c-2.372-7.702,9.672-10.964,12.026-3.316
		c22.402,72.731,57.404,141.107,103.118,201.944c3.646,4.853-1.642,9.574-6.502,8.866c35.061,54.978,72.523,106.022,102.338,144.616
		c31.917-37.18,71.069-67.881,114.866-89.884c7.161-3.598,13.469,7.165,6.295,10.769c-44.179,22.197-83.265,53.128-115.05,90.998
		c-2.893,3.447-6.913,2.184-8.997-0.665l-36.149,40.955c0.578,0.603,1.066,1.35,1.41,2.261
		c21.201,56.045,57.873,105.397,104.962,142.374c2.007,1.577,2.467,3.538,1.973,5.323
		C1668.82,1568.404,1822.854,1452.809,1765.568,1358.878z M930.864,1677.473c-70.132-96.867-121.516-207.194-150.599-323.187
		c-1.955-7.8,10.077-11.097,12.028-3.316c8.051,32.114,17.771,63.792,29.183,94.873c40.659,110.745,102.688,213.573,181.613,301.241
		c5.361,5.954-3.437,14.798-8.82,8.82C971.763,1730.905,950.591,1704.72,930.864,1677.473z M1246.585,1415.196
		c-32.523-8.667-64.568-19.053-95.967-31.175c-111.637-43.097-214.718-107.325-302.466-188.705c-5.9-5.472,2.94-14.272,8.82-8.82
		c24.285,22.523,49.719,43.801,76.293,63.574c94.714,70.472,202.563,122.698,316.635,153.099
		C1257.662,1405.237,1254.349,1417.265,1246.585,1415.196z"/>
	<path style="fill:#F1855F;" d="M765.245,783.396l35.976-82.053l-0.058-0.036c11.178-17.44,0.093-55.495-26.893-94.657
		c6.723-2.497,13.122-4.994,19.121-7.461c0.354-2.037,1.689-3.864,4.308-4.546c9.768-2.546,19.336-5.862,28.475-10.161
		c4.467-2.1,8.848-4.387,13.111-6.875c1.624-0.947,6.13-3.057,6.012-5.319c-0.144-2.756-6.218-3.215-7.961-3.389
		c-5.14-0.513-10.314-0.738-15.477-0.716c-10.605,0.047-21.101,1.242-31.45,3.537c-3.264,0.724-5.725-0.953-6.941-3.269
		c-8.713,1.836-18.07,4.044-27.883,6.59c9.927-5.901,19.176-11.691,27.605-17.253c-1.513-2.651-0.825-7.172,2.26-8.484
		c8.898-3.785,17.431-8.367,25.46-13.759c3.84-2.578,7.553-5.327,11.109-8.284c3.325-2.765,7.238-5.698,9.916-9.128
		c2.055-2.633,1.032-3.153-2.14-3.196c-4.879-0.066-9.922,0.851-14.709,1.699c-10.331,1.831-20.439,4.707-30.218,8.497
		c-3.115,1.207-6.732-1.289-7.623-4.232c-10.118,3.926-21.22,8.638-33.013,14.031c11.897-9.437,22.698-18.546,32.091-27.013
		l-0.183-0.234c-0.854-1.325-1.039-3.313-0.629-4.805c0.427-1.547,1.512-2.892,2.866-3.727c1.68-1.034,3.285-2.176,4.861-3.361
		c3.24-2.589,6.238-5.461,8.907-8.639c1.051-1.252,2.84-1.757,4.409-1.827c0.848-0.038,1.668,0.159,2.428,0.501
		c12.243-13.274,18.127-23.028,15.295-26.953c-5.104-7.073-37.104,6.75-78.838,32.641c-5.369,3.331-10.895,6.86-16.55,10.572
		c2.943-4.074,5.783-8.074,8.425-11.925c21.737-31.669,32.972-55.158,27.247-60.007c-6.283-5.321-31.342,13.194-62.96,44.881
		c-14.234,14.266-29.797,31.197-45.576,49.831l0.193,0.163l-0.423,0.273c-20.099,16.851-2.491,70.95,39.33,120.833
		c4.347,5.185,8.797,10.054,13.281,14.717l-42.304,79.634C680.383,739.624,723.608,744.807,765.245,783.396z"/>
	<path style="fill:#E88977;" d="M1507.684,1433.909c2.084,2.849,6.104,4.112,8.997,0.665c31.785-37.87,70.871-68.802,115.05-90.998
		c7.174-3.604,0.866-14.367-6.295-10.769c-43.797,22.004-82.949,52.705-114.866,89.884c-0.889,1.035-1.832,2.019-2.709,3.064
		C1505.603,1428.444,1506.044,1431.667,1507.684,1433.909z"/>
	<path style="fill:#E88977;" d="M1577.908,1619.498c-47.089-36.977-83.761-86.329-104.962-142.374
		c-0.345-0.911-0.832-1.658-1.41-2.261c-4.139-4.315-13.116-1.029-10.618,5.577c0.565,1.494,1.184,2.964,1.77,4.449
		c22.158,56.208,58.82,106.066,106.402,143.429c0.991,0.778,2.048,1.18,3.102,1.34c3.468,0.524,6.877-1.902,7.69-4.836
		C1580.375,1623.036,1579.915,1621.076,1577.908,1619.498z"/>
	<path style="fill:#E88977;" d="M1408.233,1278.075c4.86,0.708,10.148-4.013,6.502-8.866
		c-45.714-60.837-80.717-129.213-103.118-201.944c-2.354-7.648-14.398-4.386-12.026,3.316
		c22.276,72.328,56.733,140.608,101.791,201.406c0.868,1.168,1.71,2.354,2.584,3.517
		C1405.131,1277.055,1406.66,1277.846,1408.233,1278.075z"/>
	<path style="fill:#E88977;" d="M745.654,881.358c-3.153-1.289-7.236-0.368-8.346,3.876
		c-23.655,90.492-55.684,178.671-95.764,263.184c-3.42,7.214,7.329,13.551,10.77,6.295c40.138-84.631,72.414-172.861,96.274-263.439
		c0.24-0.91,0.509-1.813,0.747-2.724C750.257,885.021,748.276,882.429,745.654,881.358z"/>
	<path style="fill:#F8BEB0;" d="M1179.581,977.222c17.542-7.228,32.471-18.156,41.353-35.835
		c9.508-18.928,11.734-40.852,13.7-61.641c0.372-3.929,3.618-5.919,6.71-5.963c1.47-14.207,1.438-28.84-0.344-43.7
		c-5.723-47.74-24.8-51.936-53.291-41.92c0.202,0.53,0.367,1.091,0.434,1.72C1194.865,852.388,1191.818,915.591,1179.581,977.222z"
		/>
	<path style="fill:#F8BEB0;" d="M1115.09,993.964c17.185-2.96,34.297-6.739,50.899-11.941
		c13.189-62.15,16.431-126.026,9.939-189.213c-16.322,7.004-35.122,16.882-55.827,25.34c0.185,0.52,0.331,1.072,0.386,1.687
		C1125.665,877.919,1123.711,936.318,1115.09,993.964z"/>
	<path style="fill:#F8BEB0;" d="M1058.89,1001.338c13.202-1.113,26.365-2.795,39.393-4.7c1.342-0.197,2.687-0.411,4.029-0.615
		l0.007-0.122c8.973-57.243,10.826-115.443,5.91-173.164c-14.352,5.211-29.507,9.418-45.298,11.311
		c-2.652,0.318-5.289,0.546-7.919,0.733l0.121,0.988C1056.386,890.959,1057.638,946.148,1058.89,1001.338z"/>
	<path style="fill:#F8BEB0;" d="M1006.191,1001.792c4.151,0.375,8.31,0.667,12.478,0.797c9.238,0.29,18.505,0.1,27.768-0.403
		c-1.259-55.472-2.517-110.945-3.776-166.417l0.044-0.57c-14.524,0.022-28.565-1.616-41.827-3.927
		C999.007,888.169,1000.781,945.123,1006.191,1001.792z"/>
	<path style="fill:#E88977;" d="M1175.671,789.883c0.105,0.974,0.157,1.952,0.257,2.927c6.492,63.188,3.25,127.063-9.939,189.213
		c-16.602,5.202-33.714,8.981-50.899,11.941c8.621-57.646,10.575-116.045,5.397-174.127c-0.055-0.615-0.201-1.166-0.386-1.687
		c-2.199-6.191-12.746-5.698-12.086,1.687c0.086,0.966,0.133,1.934,0.215,2.9c4.916,57.721,3.063,115.921-5.91,173.164l-0.007,0.122
		c-1.342,0.203-2.687,0.418-4.029,0.615c-13.028,1.905-26.191,3.587-39.393,4.7c-1.252-55.19-2.504-110.378-3.756-165.568
		l-0.121-0.988c-1.129-6.808-11.899-6.69-12.308,0.419l-0.044,0.57c1.258,55.472,2.516,110.944,3.776,166.417
		c-9.263,0.503-18.531,0.693-27.768,0.403c-4.168-0.131-8.326-0.422-12.478-0.797c-5.41-56.669-7.184-113.622-5.313-170.519
		l0.015-0.553c0.246-7.388-10.275-7.95-12.166-1.746c-0.163,0.537-0.285,1.107-0.307,1.746c-1.884,56.55-0.151,113.157,5.16,169.487
		c-18.549-2.94-36.527-8.714-52.704-18.699c-6.849-4.228-13.121,6.557-6.295,10.77c47.318,29.208,105.501,24.679,158.256,17.61
		c27.071-3.627,54.324-8.539,80.332-17.043c22.311-7.295,42.878-18.847,55.359-39.398c12.163-20.026,15.599-43.867,17.91-66.907
		c0.228-2.27,0.455-4.542,0.669-6.793c0.381-4.032-2.61-6.008-5.762-5.963c-3.092,0.044-6.339,2.034-6.71,5.963
		c-1.966,20.788-4.192,42.713-13.7,61.641c-8.882,17.68-23.811,28.608-41.353,35.835c12.238-61.631,15.285-124.834,8.563-187.339
		c-0.067-0.629-0.232-1.19-0.434-1.72c-1.214-3.177-4.605-4.578-7.5-4.154C1177.528,784.402,1175.291,786.348,1175.671,789.883z"/>
	<path style="fill:#E88977;" d="M943.079,819.215l-0.116,0.373c-9.24,45.153-11.362,91.435-5.988,137.217
		c0.925,7.877,13.408,7.97,12.473,0c-5.242-44.66-3.474-89.84,5.543-133.902c0.096-0.471,0.138-0.924,0.141-1.362
		C955.179,814.833,944.892,812.311,943.079,819.215z"/>
	<path style="fill:#FCDF53;" d="M754.562,430.154c5.725,4.848-5.51,28.337-27.247,60.007c2.642,0.519,5.347,0.973,8.125,1.353
		c41.735-25.892,73.734-39.715,78.838-32.641c2.832,3.925-3.052,13.679-15.295,26.953c0.728,0.328,1.401,0.791,1.983,1.326
		c0.879,0.808,1.476,2.071,1.71,3.307c109.834-13.556,248.717-72.908,248.717-72.908
		c-32.269,106.999,107.848,115.837,107.848,115.837c3.665-14.944,6.499-28.619,8.646-41.194
		c27.2-159.35-59.553-136.634-59.553-136.634c29.766-188.522-174.702-22.08-174.702-22.08
		c-14.207-294.678-141.243,45.008-141.243,45.008s-56.896-193.617-115.491,15.285c-11.365,40.519-4.177,66.165,14.705,81.262
		C723.219,443.349,748.279,424.833,754.562,430.154z"/>
	<path style="fill:#C0492E;" d="M798.988,606.856c0.64,0.034,1.306,0.001,2.027-0.187c9.542-2.487,18.808-5.782,27.827-9.766
		c4.341-1.918,8.603-4.016,12.768-6.29c3.874-2.114,7.909-4.273,11.116-7.356c7.263-6.984,6.156-17.928-2.387-23.319
		c-2.604-1.643-5.553-2.429-8.559-2.923c-1.677-0.276-3.367-0.487-5.037-0.644c-2.811-0.264-5.63-0.427-8.451-0.532
		c-2.142-0.081-4.288-0.138-6.432-0.128c-8.587,0.038-17.175,0.819-25.652,2.227c14.912-6.919,28.747-16.086,40.798-27.279
		c3.278-3.045,6.563-6.39,7.99-10.744c1.542-4.706,0.188-9.972-3.491-13.299c-7.434-6.724-19.333-3.752-28.187-2.273
		c-10.743,1.794-21.257,4.725-31.418,8.637l-0.348,0.126c-3.139,1.217-5.313,4.189-4.355,7.672l0.048,0.123
		c0.891,2.943,4.508,5.439,7.623,4.232c9.779-3.791,19.887-6.667,30.218-8.497c4.787-0.849,9.829-1.765,14.709-1.699
		c3.172,0.043,4.195,0.563,2.14,3.196c-2.678,3.43-6.591,6.364-9.916,9.128c-3.555,2.957-7.269,5.705-11.109,8.284
		c-8.029,5.392-16.563,9.974-25.46,13.759c-3.084,1.312-3.772,5.834-2.26,8.484l0.022,0.048c0.667,1.142,1.588,1.811,2.584,2.283
		c-3.403,1.513-3.854,5.427-2.329,8.332c1.216,2.316,3.676,3.993,6.941,3.269c10.349-2.295,20.845-3.49,31.45-3.537
		c5.163-0.022,10.337,0.203,15.477,0.716c1.743,0.174,7.817,0.633,7.961,3.389c0.118,2.262-4.388,4.372-6.012,5.319
		c-4.263,2.487-8.644,4.774-13.111,6.875c-9.139,4.299-18.706,7.614-28.475,10.161c-2.619,0.682-3.954,2.509-4.308,4.546
		C792.792,602.63,795.056,606.646,798.988,606.856z"/>
	<path style="fill:#C0492E;" d="M781.842,510.743c0.966-0.029,1.936-0.268,2.832-0.821c6.099-3.757,11.683-8.462,16.293-13.951
		c1.086-1.294,1.826-2.665,1.826-4.41l-0.116-1.102c-0.234-1.236-0.831-2.499-1.71-3.307c-0.582-0.534-1.255-0.997-1.983-1.326
		c-0.76-0.343-1.58-0.539-2.428-0.501c-1.568,0.07-3.358,0.575-4.409,1.827c-2.669,3.178-5.667,6.051-8.907,8.639
		c-1.577,1.185-3.182,2.327-4.861,3.361c-1.354,0.835-2.44,2.18-2.866,3.727c-0.411,1.493-0.225,3.481,0.629,4.805l0.183,0.234
		C777.6,509.718,779.705,510.807,781.842,510.743z"/>
</g>
</svg>
