<?xml version="1.0" encoding="utf-8"?>
<!-- Generator: Adobe Illustrator 27.5.0, SVG Export Plug-In . SVG Version: 6.00 Build 0)  -->
<svg version="1.1" xmlns="http://www.w3.org/2000/svg" xmlns:xlink="http://www.w3.org/1999/xlink" x="0px" y="0px"
	 viewBox="0 0 500 500" style="enable-background:new 0 0 500 500;" xml:space="preserve">
<g id="BACKGROUND">
	<rect y="0" style="opacity:0.38;fill:#F7E9E1;" width="500" height="500"/>
</g>
<g id="OBJECTS">
	
		<ellipse transform="matrix(0.7071 -0.7071 0.7071 0.7071 -92.802 245.5466)" style="opacity:0.27;fill:#EEC7B2;" cx="250" cy="234.795" rx="192.128" ry="192.128"/>
	<ellipse style="fill:#EEC7B2;" cx="250" cy="416.714" rx="187.143" ry="42.693"/>
	<g>
		<path style="fill:#415797;" d="M296.47,352.934c0,0-45.294,18.926-100.04-2.495l-2.054,24.506l49.517,21.253
			c0,0,52.937-12.217,52.654-13.518C296.263,381.38,296.47,352.934,296.47,352.934z"/>
		<g>
			<path style="fill:#DF9E80;" d="M198.884,310.258c-16.076-3.248-28.208-11.374-36.091-18.333
				c-4.855,20.36-7.211,41.392-2.279,51.803c7.199,15.197,24.512-1.134,38.37-12.837
				C198.844,317.877,198.884,310.258,198.884,310.258z"/>
			<path style="fill:#BC4E35;" d="M193.649,310.874c0,0-16.423-3.89-30.855-18.949l-2.197,7.153c0,0,12.988,16.565,32,20.141
				L193.649,310.874z"/>
			<path style="fill:#D46949;" d="M251.625,346.978c0.081,0.002,0.163,0.004,0.244,0.005c0.081-0.002,0.163-0.003,0.244-0.005
				H251.625z"/>
		</g>
		<path style="fill:#DF9E80;" d="M301.116,310.258c16.076-3.248,28.208-11.374,36.091-18.333c4.855,20.36,7.211,41.392,2.279,51.803
			c-7.199,15.197-24.512-1.134-38.37-12.837C301.156,317.877,301.116,310.258,301.116,310.258z"/>
		<path style="fill:#BC4E35;" d="M305.726,310.874c0,0,16.423-3.89,30.855-18.949l2.197,7.153c0,0-12.988,16.565-32,20.141
			L305.726,310.874z"/>
		<g>
			<path style="fill:#D46949;" d="M337.206,291.925c-4.758-19.954-13.579-44.569-18.64-52.6
				c-21.72-34.474-61.467-10.621-61.467-10.621h-6.786h-0.627h-6.786c0,0-39.747-23.854-61.467,10.621
				c-5.06,8.031-13.881,32.646-18.64,52.6c7.883,6.959,14.78,15.702,30.855,18.949c0,0-6.947,53.833-5.235,54.688
				c0.834,0.417,25.37,10.613,61.586,9.912c36.217,0.701,60.752-9.495,61.586-9.912c1.712-0.856-5.235-54.688-5.235-54.688
				C322.427,307.626,329.324,298.884,337.206,291.925z"/>
			<path style="fill:#D46949;" d="M248.375,346.978c-0.081,0.002-0.163,0.004-0.245,0.005c-0.081-0.002-0.163-0.003-0.244-0.005
				H248.375z"/>
			<g style="opacity:0.37;">
				<defs>
					<path id="SVGID_1_" style="opacity:0.37;" d="M337.206,291.925c-4.758-19.954-13.579-44.569-18.64-52.6
						c-21.72-34.474-61.467-10.621-61.467-10.621h-6.786h-0.627h-6.786c0,0-39.747-23.854-61.467,10.621
						c-5.06,8.031-13.881,32.646-18.64,52.6c7.883,6.959,14.78,15.702,30.855,18.949c0,0-6.947,53.833-5.235,54.688
						c0.834,0.417,25.37,10.613,61.586,9.912c36.217,0.701,60.752-9.495,61.586-9.912c1.712-0.856-5.235-54.688-5.235-54.688
						C322.427,307.626,329.324,298.884,337.206,291.925z"/>
				</defs>
				<clipPath id="SVGID_00000144315858911520896250000005009503482181019555_">
					<use xlink:href="#SVGID_1_"  style="overflow:visible;"/>
				</clipPath>
				<g style="clip-path:url(#SVGID_00000144315858911520896250000005009503482181019555_);">
					<path style="fill:none;stroke:#FFFFFF;stroke-width:3;stroke-miterlimit:10;" d="M185.82,214.748
						c0,0,29.304,17.383,58.729,18.635c53.082,2.259,79.059-27.671,79.059-27.671"/>
					<path style="fill:none;stroke:#FFFFFF;stroke-width:3;stroke-miterlimit:10;" d="M168.879,226.596
						c0,0,28.8,25.423,77.929,25.988c69.889,0.803,92.612-37.171,92.612-37.171"/>
					<path style="fill:none;stroke:#FFFFFF;stroke-width:3;stroke-miterlimit:10;" d="M162.667,245.256
						c0,0,30.898,27.275,83.606,27.881c74.98,0.862,99.358-39.879,99.358-39.879"/>
					<path style="fill:none;stroke:#FFFFFF;stroke-width:3;stroke-miterlimit:10;" d="M162.667,266.715
						c0,0,30.898,27.275,83.606,27.881c74.98,0.862,99.358-39.879,99.358-39.879"/>
					<path style="fill:none;stroke:#FFFFFF;stroke-width:3;stroke-miterlimit:10;" d="M162.667,287.609
						c0,0,30.898,27.275,83.606,27.881c74.98,0.862,99.358-39.879,99.358-39.879"/>
					<path style="fill:none;stroke:#FFFFFF;stroke-width:3;stroke-miterlimit:10;" d="M161.538,313.02
						c0,0,34.821,22.534,87.529,23.139c74.98,0.862,95.435-35.137,95.435-35.137"/>
					<path style="fill:none;stroke:#FFFFFF;stroke-width:3;stroke-miterlimit:10;" d="M161.538,332.785
						c0,0,34.821,22.534,87.529,23.139c74.98,0.862,95.435-35.137,95.435-35.137"/>
					<path style="fill:none;stroke:#FFFFFF;stroke-width:3;stroke-miterlimit:10;" d="M161.538,348.478
						c0,0,34.821,22.534,87.529,23.14c74.98,0.862,95.435-35.137,95.435-35.137"/>
				</g>
			</g>
		</g>
		<g>
			<path style="fill:#DF9E80;" d="M373.849,284.491c11.748-18.763,11.774-29.714,8.232-31.983
				c-13.383-8.573-13.333-5.425-13.333-5.425s-6.422-12.14-8.45-6.726c-1.761,4.702-1.617,18.16-3.486,22.196l-2.804,14.03
				L373.849,284.491z"/>
			<path style="fill:#DF9E80;" d="M356.811,262.553l-10.159,15.129L315.08,325.39c-1.226,12.141,4.237,19.813,11.746,23.261
				c10.865,4.988,21.973-1.614,28.01-11.933c13.981-23.902,20.975-56.526,20.975-56.526S365.797,279.602,356.811,262.553z"/>
			<path style="fill:#DF9E80;" d="M366.745,246.117c4.509-1.972,28.176-2.669,29.163,0.716c0.987,3.385-17.068,4.623-17.068,4.623
				s22.862-1.59,22.567,2.717c-0.31,2.496-20.143,2.689-20.143,2.689s20.775,0.793,20.667,3.513
				c-0.109,2.719-20.117,1.463-20.117,1.463s20.649,1.662,19.843,4.289c-0.846,2.759-15.66,3.107-20.764,2.98"/>
			
				<path style="fill:none;stroke:#000000;stroke-width:0.8508;stroke-linecap:round;stroke-linejoin:round;stroke-miterlimit:10;" d="
				M376.636,263.872c0,0-10.494-3.324-13.421,3.76"/>
		</g>
		<g>
			<g>
				<path style="fill:#683937;" d="M321.725,318.115c-0.05,0-0.1-0.01-0.148-0.029c-0.206-0.081-0.307-0.315-0.225-0.522
					c5.503-13.858,16.096-26.833,16.202-26.962c0.14-0.172,0.396-0.197,0.565-0.056c0.172,0.141,0.196,0.395,0.056,0.565
					c-0.105,0.129-10.621,13.009-16.077,26.749C322.036,318.018,321.886,318.115,321.725,318.115z"/>
			</g>
		</g>
		<g>
			<path style="fill:#AA3B22;" d="M306.35,311.374c-0.254,0-0.472-0.193-0.497-0.451c-0.017-0.178-1.78-17.961-5.025-36.816
				c-0.047-0.273,0.137-0.531,0.408-0.578c0.275-0.045,0.531,0.136,0.578,0.408c3.25,18.894,5.017,36.711,5.035,36.889
				c0.026,0.275-0.175,0.52-0.449,0.547C306.384,311.373,306.367,311.374,306.35,311.374z"/>
		</g>
		<g>
			<path style="fill:#AA3B22;" d="M305.888,308.14c-0.084,0-0.169-0.02-0.247-0.065c-0.24-0.137-0.324-0.441-0.188-0.682
				c0.051-0.09,5.094-9.022,5.893-15.215c0.036-0.273,0.281-0.467,0.561-0.432c0.273,0.035,0.467,0.286,0.432,0.561
				c-0.824,6.388-5.804,15.208-6.016,15.58C306.231,308.049,306.062,308.14,305.888,308.14z"/>
		</g>
		<g>
			<path style="fill:#DF9E80;" d="M126.151,284.491c-11.748-18.763-11.774-29.714-8.232-31.983
				c13.383-8.573,13.333-5.425,13.333-5.425s6.422-12.14,8.45-6.726c1.761,4.702,1.617,18.16,3.486,22.196l2.804,14.03
				L126.151,284.491z"/>
			<path style="fill:#DF9E80;" d="M143.189,262.553l10.159,15.129l31.572,47.708c1.226,12.141-4.237,19.813-11.746,23.261
				c-10.865,4.988-21.973-1.614-28.009-11.933c-13.981-23.902-20.975-56.526-20.975-56.526S134.203,279.602,143.189,262.553z"/>
			<path style="fill:#DF9E80;" d="M133.254,246.117c-4.509-1.972-28.176-2.669-29.163,0.716c-0.987,3.385,17.068,4.623,17.068,4.623
				s-22.862-1.59-22.567,2.717c0.31,2.496,20.143,2.689,20.143,2.689s-20.775,0.793-20.667,3.513
				c0.109,2.719,20.117,1.463,20.117,1.463s-20.649,1.662-19.843,4.289c0.846,2.759,15.66,3.107,20.764,2.98"/>
			
				<path style="fill:none;stroke:#000000;stroke-width:0.8508;stroke-linecap:round;stroke-linejoin:round;stroke-miterlimit:10;" d="
				M123.364,263.872c0,0,10.494-3.324,13.421,3.76"/>
		</g>
		<path style="fill:#965848;" d="M190.181,190.095c0,0,7.013,21.281,19.965,16.647c0,0,8.162,17.512,26.721,10.885l-1.353-10.1
			l-31.692-28.319L190.181,190.095z"/>
		<path style="fill:#965848;" d="M308.196,173.088c0,0-1.478,22.418-16.213,21.492c0,0-3.702,19.102-24.812,17.788l-1.353-10.1
			l25.218-35.942L308.196,173.088z"/>
		<path style="fill:#965848;" d="M207.655,94.662c0,0-9.281-9.054-7.309-11.847c1.972-2.793,8.577,6.132,8.577,6.132
			s-5.029-10.843,0.425-12.64c5.454-1.797,5.059,15.858,5.059,15.858"/>
		<path style="fill:#965848;" d="M211.46,89.803c0,0-33.149-0.064-30.663,17.133c0,0-14.023,12.919-7.607,20.571
			c0,0-14.84,19.017-0.803,26.416c0,0-4.25,14.614,7.976,16.811l9.371-0.921c0,0,3.657-55.016,27.172-63.557L211.46,89.803z"/>
		<g>
			<path style="fill:#965848;" d="M175.23,156.278c-4.066,0.519-8.323-2.496-9.693-6.863c-1.148-3.661-0.432-8.094,1.965-12.162
				c1.946-3.301,4.667-6.016,7.382-8.605c-1.163-0.001-2.344-0.382-3.417-1.118c-1.667-1.143-2.832-2.968-3.118-4.881
				c-0.479-3.21,1.071-6.782,4.045-9.321c2.581-2.204,5.759-3.436,8.829-4.481c-2.189-5.161,1.014-11.172,5.501-14.101
				c4.737-3.092,10.61-3.669,15.794-4.179l0.073,0.746c-5.1,0.5-10.875,1.069-15.459,4.06c-4.235,2.765-7.375,8.725-5.061,13.534
				l0.183,0.382l-0.401,0.136c-3.121,1.051-6.384,2.262-8.973,4.473c-2.78,2.373-4.232,5.684-3.791,8.641
				c0.255,1.712,1.303,3.348,2.8,4.375c1.254,0.86,2.662,1.17,3.972,0.88l1.321-0.296l-0.982,0.933
				c-2.935,2.787-5.969,5.668-8.053,9.203c-2.29,3.886-2.981,8.099-1.896,11.558c1.264,4.032,5.166,6.818,8.883,6.344
				L175.23,156.278z"/>
		</g>
		<g>
			<path style="fill:#965848;" d="M313.868,138.019c-1.44,0.193-2.902-0.116-4.003-0.973l0.459-0.591
				c1.872,1.458,4.97,1.06,6.766-0.869c1.598-1.719,2.214-4.481,1.608-7.208c-0.631-2.833-2.398-5.289-3.671-6.89
				c-3.813-4.791-8.676-8.668-14.178-11.323c-0.949-0.14-1.86-0.533-2.591-1.161l-1.712-1.474l2.096,0.843
				c0.824,0.331,1.635,0.688,2.434,1.071c0.856,0.104,1.74-0.032,2.511-0.426c1.54-0.784,2.516-2.535,2.375-4.258
				c-0.172-2.079-1.768-3.979-4.884-5.81c-6.051-3.558-12.299-4.694-17.79-5.206c-0.074,0.044-0.147,0.083-0.223,0.117
				c-0.604,0.269-1.204,0.129-1.649-0.38l-0.602-0.689l0.912,0.07c0.446,0.034,0.899,0.071,1.355,0.112
				c0.679-0.556,1.316-1.854,1.196-2.869c-0.16-1.359-1.269-2.57-3.393-3.703c-7.179-3.832-15.787-4.74-23.602-2.495l-0.207-0.72
				c8.007-2.297,16.812-1.366,24.162,2.555c2.356,1.258,3.593,2.657,3.784,4.277c0.117,0.996-0.319,2.224-0.985,3.049
				c5.409,0.552,11.495,1.757,17.421,5.24c3.34,1.963,5.057,4.054,5.25,6.394c0.166,2.018-0.978,4.068-2.78,4.986
				c-0.454,0.231-0.941,0.386-1.44,0.469c5.063,2.668,9.548,6.373,13.124,10.867c1.32,1.658,3.152,4.209,3.817,7.193
				c0.66,2.965-0.027,5.984-1.791,7.88C316.632,137.177,315.26,137.832,313.868,138.019z"/>
		</g>
		<path style="fill:#965848;" d="M259.409,85.524c0,0,24.628-8.359,22.238,7.316c0,0,24.665-1.598,20.865,15.973
			c0,0,22.002,12.423,10.683,28.044c0,0,5.934,14.703-2.713,20.739l-9.378,1.256c0,0-0.427-33.212-17.749-41.982
			c-17.322-8.77-34.881-12.673-49.27-9.609c-14.389,3.065-20,4.385-20,4.385l-4.054-20.41c0,0,8.542-14.34,37.866-16.535
			C259.065,75.48,260.698,82.361,259.409,85.524z"/>
		<g>
			<path style="fill:#965848;" d="M286.29,138.124c-5.32,0.713-10.898-1.669-14.62-4.871c-3.716-3.195-6.44-7.401-8.754-11.578
				c-0.096,1.209-0.518,2.42-1.275,3.451c-1.635,2.228-4.647,3.54-7.855,3.432c-2.506-0.086-5.196-0.965-8.224-2.685
				c-4.297-2.442-8.127-5.839-11.123-9.818c0.008,0.168,0.011,0.338,0.01,0.51c-0.021,2.534-1.178,5.046-3.018,6.554
				c-3.23,2.646-8.341,2.975-12.714,0.814c-3.397-1.679-6.354-4.598-9.307-9.188l0.63-0.405c2.876,4.471,5.739,7.305,9.009,8.921
				c3.425,1.692,8.436,2.128,11.908-0.722c1.673-1.371,2.725-3.663,2.745-5.982c0.005-0.637-0.065-1.244-0.206-1.816
				c-0.698-1.017-1.341-2.068-1.926-3.146l-0.951-1.756l1.523,1.292c0.999,0.848,1.697,1.981,2.048,3.297
				c3.044,4.404,7.118,8.163,11.744,10.792c2.96,1.683,5.464,2.505,7.879,2.588c2.97,0.1,5.736-1.096,7.227-3.126
				c0.967-1.316,1.309-3.006,1.055-4.525c-0.521-0.974-1.023-1.939-1.514-2.883l-0.981-1.888l1.566,1.439
				c0.889,0.816,1.448,1.925,1.669,3.128c2.441,4.554,5.301,9.271,9.325,12.732c4.442,3.82,11.608,6.431,17.605,3.665l0.314,0.679
				C288.85,137.599,287.577,137.952,286.29,138.124z"/>
		</g>
		<g>
			<path style="fill:#D88765;" d="M232.861,207.813l0.891,10.645c11.282,2.914,22.922,3.265,33.681,0.924l0.198-15.227
				L232.861,207.813z"/>
			<path style="fill:#BC4E35;" d="M250.509,230.27l-18.782-2.2c-2.791-0.327-5.019,2.227-4.373,4.962
				c1.456,6.163,6.592,15.303,24.221,15.585c17.891,0.286,23.203-9.222,24.761-15.511c0.662-2.673-1.564-5.184-4.304-4.919
				L250.509,230.27z"/>
			<path style="fill:#DF9E80;" d="M233.752,218.459l1.353,16.173c0,0,1.921,8.66,15.141,8.66c14.817,0,16.988-8.66,16.988-8.66
				l0.198-15.249C256.674,221.724,245.034,221.373,233.752,218.459z"/>
		</g>
		<g>
			<path style="fill:#DF9E80;" d="M292.619,113.495c0,0,8.226,17.413,8.84,44.049c0.566,24.563-15.127,51.267-44.6,57.18
				c-27.702,5.558-53.135-2.676-67.095-40.704c-13.96-38.028-3.964-68.405,30.972-80.419
				C255.141,81.77,282.827,91.347,292.619,113.495z"/>
		</g>
		<path style="fill:#965848;" d="M295.997,155.314c0,0-5.706-1.795-9.322-20.078c0,0-8.507,9.071-22.719-14.309
			c0,0-5.61,15.949-30.395-3.316c0,0-5.997,13.599-21.87,1.508c0,0,0.571,21.25-14.179,21.52c0,0,0.846,12.683-7.088,12.892
			c0,0,3.263,12.148-5.168,16.616l-6.518-1.272c0,0-11.309-75.103,55.384-82.333c66.693-7.23,68.807,42.226,69.507,65.604
			L295.997,155.314z"/>
		<g>
			<path style="fill:#965848;" d="M187.653,169.923l-0.43-0.612c5.213-3.669,6.749-11.729,3.325-17.088
				c-0.069-0.096-0.134-0.193-0.194-0.295l0.63-0.402c0.066,0.097,0.131,0.194,0.193,0.292c1.263,1.718,3.91,1.89,5.629,0.926
				c1.779-0.996,3.043-3.095,3.381-5.617c0.311-2.325-0.109-4.691-0.516-6.979l-0.204-1.151l0.835,0.817
				c1.658,1.623,4.412,1.327,6.159,0.222c2.085-1.316,3.31-3.596,4.144-5.435c2.639-5.814,3.624-12.237,2.851-18.575l0.743-0.091
				c0.79,6.474-0.217,13.036-2.912,18.976c-0.878,1.933-2.173,4.336-4.426,5.758c-1.736,1.097-4.36,1.478-6.285,0.302
				c0.352,2.046,0.636,4.144,0.353,6.256c-0.37,2.754-1.773,5.06-3.756,6.17c-1.614,0.905-3.602,0.879-5.105,0.105
				C194.462,159.072,192.654,166.404,187.653,169.923z"/>
		</g>
		<g>
			<path style="fill:#DF9E80;" d="M293.632,176.091l-1.761-22.813c0,0,25.169-11.354,29.138,10.003
				C324.977,184.637,302.532,188.752,293.632,176.091z"/>
			<g>
				<path style="fill:#683937;" d="M301.148,176.354c0.06-0.008,0.119-0.029,0.173-0.063c0.203-0.127,0.265-0.396,0.137-0.6
					c-0.061-0.098-6.043-9.819,0.525-15.593c2.307-2.029,4.727-2.955,7.197-2.757c4.262,0.345,7.285,3.966,7.315,4.002
					c0.153,0.185,0.426,0.212,0.611,0.06c0.186-0.152,0.213-0.426,0.061-0.611c-0.132-0.161-3.277-3.939-7.91-4.318
					c-2.715-0.219-5.356,0.777-7.849,2.97c-7.125,6.264-0.753,16.605-0.688,16.709C300.816,176.303,300.985,176.375,301.148,176.354
					z"/>
			</g>
			<g>
				<path style="fill:#683937;" d="M310.634,166.503c0.131-0.018,0.253-0.094,0.323-0.22c0.117-0.21,0.041-0.475-0.169-0.592
					c-0.079-0.044-8.016-4.353-12.662,1.738c-0.146,0.191-0.109,0.464,0.082,0.609c0.191,0.146,0.463,0.109,0.609-0.082
					c4.192-5.497,11.475-1.545,11.548-1.505C310.451,166.499,310.544,166.515,310.634,166.503z"/>
			</g>
			<path style="fill:#DF9E80;" d="M203.867,188.114l-9.595-21.989c0,0-21.979-4.814-20.188,16.835
				C175.876,204.609,198.613,202.672,203.867,188.114z"/>
			<g>
				<path style="fill:#683937;" d="M196.685,190.346c-0.06,0.008-0.122,0.004-0.184-0.015c-0.23-0.069-0.36-0.313-0.29-0.542
					c0.033-0.11,3.245-11.063-4.611-14.905c-2.76-1.35-5.338-1.606-7.669-0.765c-4.021,1.454-5.984,5.744-6.004,5.786
					c-0.099,0.219-0.355,0.317-0.574,0.219c-0.219-0.097-0.318-0.355-0.22-0.574c0.085-0.189,2.125-4.662,6.495-6.247
					c2.561-0.926,5.371-0.66,8.354,0.799c8.523,4.168,5.097,15.822,5.061,15.939C196.992,190.21,196.848,190.324,196.685,190.346z"
					/>
			</g>
			<g>
				<path style="fill:#683937;" d="M184.941,183.339c-0.131,0.018-0.269-0.025-0.369-0.127c-0.168-0.172-0.164-0.448,0.008-0.615
					c0.064-0.063,6.588-6.309,12.673-1.655c0.191,0.146,0.227,0.419,0.082,0.609c-0.146,0.191-0.419,0.227-0.609,0.082
					c-5.491-4.2-11.477,1.529-11.537,1.587C185.117,183.287,185.031,183.327,184.941,183.339z"/>
			</g>
		</g>
		<g>
			<g>
				<path style="fill:#683937;" d="M246.068,180.841c6.426-1.683,8.569,3.464,8.592,3.52c0.089,0.222-0.018,0.475-0.241,0.564
					c-0.21,0.091-0.474-0.017-0.566-0.24c-0.084-0.208-2.145-5.052-8.717-2.637c-0.23,0.067-0.476-0.033-0.559-0.258
					c-0.083-0.226,0.033-0.475,0.258-0.559C245.262,181.073,245.673,180.945,246.068,180.841z"/>
			</g>
			<path style="fill:#D88765;" d="M235.549,186.508c-0.263,4.203-6.857,7.211-14.729,6.718c-7.871-0.493-14.039-4.299-13.776-8.502
				c0.263-4.203,6.857-7.211,14.728-6.718C229.644,178.498,235.812,182.305,235.549,186.508z"/>
			<path style="fill:#965848;" d="M208.445,156.249c0,0-5.526-1.72,0.825-9.868c6.351-8.148,9.714-8.51,12.055-6.931
				c2.136,1.439,1.583,5.297-2.076,9.801C214.857,154.657,211.495,157.294,208.445,156.249z"/>
			<path style="fill:#040504;" d="M227.4,167.09c0.393,2.931-1.239,5.569-3.644,5.891c-2.405,0.322-4.673-1.793-5.066-4.724
				c-0.393-2.931,1.239-5.569,3.644-5.891C224.739,162.044,227.007,164.159,227.4,167.09z"/>
			<path style="fill:#040504;" d="M273.877,160.865c0.393,2.931-1.239,5.569-3.644,5.891c-2.405,0.322-4.673-1.793-5.066-4.724
				c-0.393-2.931,1.239-5.569,3.644-5.891C271.217,155.818,273.485,157.934,273.877,160.865z"/>
			<path style="fill:#D88765;" d="M263.935,182.706c1.36,3.986,8.513,5.152,15.978,2.605c7.464-2.547,12.413-7.842,11.053-11.828
				c-1.36-3.986-8.513-5.152-15.977-2.605C267.524,173.424,262.575,178.72,263.935,182.706z"/>
			<path style="fill:#965848;" d="M278.34,143.469c0,0,4.28-3.895-4.921-8.593c-9.201-4.698-12.401-3.603-13.856-1.183
				c-1.327,2.208,0.806,5.469,6.026,8.003C271.856,144.738,276.018,145.706,278.34,143.469z"/>
			<g>
				<path style="fill:#683937;" d="M252.355,174.576c-0.163,0.022-0.332-0.051-0.426-0.2c-0.128-0.204-0.066-0.472,0.137-0.599
					c0.033-0.021,3.267-2.08,4.382-5.369c0.875-2.583,0.015-6.172-1.805-7.531c-1.094-0.815-2.413-0.72-3.825,0.278
					c-0.045,0.032-0.115,0.087-0.208,0.158c-4.891,3.79-7.469,2.727-8.771,1.167c-2.389-2.865-2.403-16.291-2.578-19.123
					c-0.014-0.24,0.173-0.442,0.408-0.461c0.24-0.015,0.446,0.168,0.461,0.408c0.47,7.618,0.511,16.381,2.377,18.619
					c1.536,1.842,4.084,1.408,7.571-1.297c0.107-0.083,0.188-0.146,0.24-0.182c1.722-1.214,3.445-1.31,4.847-0.264
					c2.121,1.584,3.106,5.559,2.108,8.506c-1.216,3.589-4.6,5.738-4.744,5.827C252.474,174.548,252.415,174.568,252.355,174.576z"/>
			</g>
		</g>
		<g>
			<g>
				<path style="fill:#683937;" d="M179.421,319.244c-0.145,0-0.285-0.078-0.356-0.216c-8.727-16.709-16.51-26.757-16.587-26.857
					c-0.136-0.175-0.105-0.428,0.07-0.564c0.175-0.138,0.428-0.105,0.564,0.069c0.078,0.1,7.903,10.199,16.666,26.979
					c0.103,0.196,0.027,0.438-0.17,0.542C179.547,319.229,179.483,319.244,179.421,319.244z"/>
			</g>
		</g>
		<g>
			<g>
				<g>
					<path style="fill:#DF9E80;" d="M303.436,433.998c0,0,9.824-17.392,4.004-25.822c-4.102-5.943-19.983-1.949-32.379-1.596
						l-96.143-34.021l-9.024,45.017L303.436,433.998z"/>
				</g>
				<g>
					<g>
						<path style="fill:#FFFFFF;" d="M283.533,392.48c1.453-1.243,3.048-2.485,4.815-3.698c0,0,10.567,5.231,31.956,26.785
							c23.898,24.083,23.893,30.215,23.893,30.215s-1.007,1.312-3.214,2.502C320.519,417.879,297,400.628,283.533,392.48z"/>
					</g>
					<path style="fill:#FFFFFF;" d="M327.906,427.421c13.713,15.189,13.077,20.862,13.077,20.862s-6.475,3.742-24.704-4.383
						C318.873,437.439,322.455,431.539,327.906,427.421z"/>
					<path style="fill:#E0B555;" d="M283.533,392.48c6.806,1.107,18.505,11.038,22.966,15.015l9.066,7.494
						c5.053,4.713,9.096,8.837,12.341,12.431c-5.451,4.118-9.033,10.018-11.628,16.479c-5.119-2.282-11.164-5.498-18.254-9.997
						c-0.548-0.348-0.773-1.086-0.766-2.09c-0.573-3.506-6.195-16.495-19.238-22.666c-4.387-1.149-4.793-2.82-4.793-2.82
						C272.069,400.419,283.533,392.48,283.533,392.48z"/>
				</g>
				<g>
					<path style="fill:#FFFFFF;" d="M309.107,441.877c0.23,0,0.425-0.174,0.447-0.405c0.565-5.829,3.338-9.585,4.671-11.389
						c0.451-0.61,0.635-0.867,0.699-1.098c0.065-0.24-0.076-0.487-0.316-0.552c-0.237-0.067-0.481,0.074-0.549,0.31
						c-0.042,0.11-0.304,0.464-0.556,0.807c-1.272,1.724-4.253,5.759-4.842,11.836c-0.023,0.247,0.158,0.466,0.403,0.491
						C309.079,441.876,309.093,441.877,309.107,441.877z"/>
				</g>
				<g>
					<path style="fill:#FFFFFF;" d="M303.861,439.492c0.23,0,0.424-0.174,0.447-0.406c0.565-5.828,3.338-9.584,4.671-11.388
						c0.449-0.61,0.635-0.867,0.699-1.098c0.065-0.24-0.075-0.487-0.316-0.552c-0.233-0.066-0.482,0.075-0.549,0.31
						c-0.042,0.11-0.304,0.463-0.556,0.806c-1.273,1.723-4.253,5.76-4.843,11.837c-0.023,0.247,0.158,0.466,0.404,0.491
						C303.832,439.491,303.846,439.492,303.861,439.492z"/>
				</g>
				<g>
					<path style="fill:#FFFFFF;" d="M304.67,434.449c-1.341-1.352-7.99-8.219-7.038-10.693c0.149-0.39,0.539-0.866,1.545-0.921
						c5.108-0.244,6.215,10.784,6.26,11.255c0.018,0.19-0.084,0.37-0.256,0.451c-0.061,0.028-0.126,0.042-0.191,0.042
						C304.872,434.582,304.757,434.536,304.67,434.449z M299.225,423.732c-0.635,0.035-0.727,0.27-0.755,0.346
						c-0.493,1.282,2.907,5.6,5.905,8.773c-0.523-3.408-2.026-9.123-5.018-9.123C299.313,423.728,299.269,423.729,299.225,423.732z"
						/>
				</g>
				<g>
					<path style="fill:#FFFFFF;" d="M292.491,436.453c-0.288-0.302-0.553-0.856-0.175-1.79c1.913-4.734,12.405-1.038,12.848-0.877
						c0.179,0.064,0.298,0.234,0.298,0.423c0,0.19-0.119,0.36-0.298,0.423c-1.381,0.492-7.051,2.437-10.429,2.437
						C293.721,437.069,292.914,436.893,292.491,436.453z M293.147,435c-0.239,0.59-0.065,0.772-0.007,0.831
						c0.948,0.995,6.303-0.249,10.45-1.61C300.238,433.228,294.305,432.141,293.147,435z"/>
				</g>
			</g>
			<path style="fill:#415797;" d="M276.483,395.868c5.55,14.503-4.172,43.811-4.172,43.811s-108.132-16.224-134.71-26.473
				c-12.438-4.797-31.037-31.141,3.193-51.204C163.363,348.775,276.483,395.868,276.483,395.868z"/>
			<g>
				<path style="fill:#31467C;" d="M273.637,403.723c0.262,0,0.507-0.163,0.598-0.424c0.116-0.331-0.058-0.692-0.388-0.809
					l-107.541-37.842c-0.332-0.114-0.693,0.058-0.809,0.388c-0.116,0.331-3.086-1.308-2.235-0.148l107.541,37.842
					C270.352,401.711,273.566,403.723,273.637,403.723z"/>
			</g>
			<g>
				<path style="fill:#31467C;" d="M275.155,396.663c0.248,0,0.483-0.145,0.584-0.387c0.137-0.323-0.014-0.696-0.337-0.832
					c-0.281-0.118-28.325-11.94-58.765-21.991c-41.016-13.544-66.637-17.58-76.164-11.997c-0.302,0.177-0.404,0.566-0.226,0.869
					c0.177,0.301,0.565,0.403,0.869,0.226c22.041-12.921,132.677,33.59,133.791,34.062
					C274.988,396.647,275.072,396.663,275.155,396.663z"/>
			</g>
			<g>
				<path style="fill:#31467C;" d="M227.062,432.704c0.314,0,0.586-0.232,0.628-0.55c0.047-0.348-0.197-0.666-0.544-0.714
					c-33.385-4.479-72.274-12.62-88.536-18.534c-0.334-0.121-0.694,0.05-0.814,0.379c-0.119,0.329,0.051,0.694,0.379,0.813
					c16.335,5.94,55.34,14.11,88.803,18.6C227.005,432.702,227.033,432.704,227.062,432.704z"/>
			</g>
		</g>
		<g>
			<g>
				<g>
					<path style="fill:#DF9E80;" d="M198.023,434.815c0,0-10.583-16.94-5.143-25.62c3.835-6.118,19.877-2.831,32.276-3.027
						l94.543-38.242l11.007,44.573L198.023,434.815z"/>
				</g>
				<g>
					<g>
						<path style="fill:#FFFFFF;" d="M216.069,392.457c-1.507-1.178-3.155-2.347-4.973-3.481c0,0-10.325,5.693-30.739,28.172
							c-22.809,25.117-22.533,31.243-22.533,31.243s1.064,1.266,3.322,2.357C180.243,419.468,202.975,401.193,216.069,392.457z"/>
					</g>
					<path style="fill:#FFFFFF;" d="M173.286,429.327c-13.027,15.781-12.141,21.421-12.141,21.421s6.634,3.452,24.486-5.472
						C182.753,438.936,178.913,433.201,173.286,429.327z"/>
					<path style="fill:#E0B555;" d="M216.069,392.457c-6.75,1.407-17.998,11.846-22.279,16.017l-8.725,7.888
						c-4.839,4.932-8.696,9.23-11.779,12.966c5.628,3.873,9.468,9.609,12.346,15.948c5.013-2.506,10.91-5.987,17.794-10.795
						c0.532-0.371,0.725-1.12,0.673-2.121c0.417-3.528,5.459-16.753,18.216-23.495c4.331-1.342,4.663-3.029,4.663-3.029
						C227.873,399.881,216.069,392.457,216.069,392.457z"/>
				</g>
				<g>
					<path style="fill:#FFFFFF;" d="M192.686,442.938c0.021,0,0.042-0.002,0.063-0.004c0.246-0.035,0.416-0.263,0.381-0.508
						c-0.858-6.043-4.014-9.944-5.361-11.609c-0.27-0.333-0.548-0.676-0.593-0.783c-0.091-0.222-0.344-0.345-0.576-0.262
						c-0.225,0.083-0.351,0.316-0.277,0.545c0.074,0.228,0.27,0.476,0.747,1.065c1.41,1.744,4.346,5.374,5.171,11.171
						C192.274,442.776,192.465,442.938,192.686,442.938z"/>
				</g>
				<g>
					<path style="fill:#FFFFFF;" d="M197.822,440.323c0.021,0,0.042-0.002,0.063-0.004c0.246-0.035,0.416-0.262,0.381-0.508
						c-0.858-6.045-4.014-9.946-5.362-11.611c-0.268-0.332-0.546-0.676-0.591-0.781c-0.095-0.222-0.344-0.347-0.576-0.262
						c-0.225,0.084-0.351,0.316-0.277,0.545c0.074,0.228,0.271,0.476,0.746,1.064c1.411,1.745,4.348,5.374,5.172,11.172
						C197.41,440.162,197.601,440.323,197.822,440.323z"/>
				</g>
				<g>
					<path style="fill:#FFFFFF;" d="M196.306,435.434c-0.176-0.073-0.286-0.249-0.277-0.438c0.025-0.471,0.646-11.522,5.718-11.522
						c0.012,0,0.026,0,0.039,0c1.007,0.011,1.416,0.469,1.583,0.852c1.06,2.43-5.278,9.585-6.559,10.994
						c-0.086,0.096-0.207,0.147-0.332,0.147C196.42,435.468,196.36,435.457,196.306,435.434z M197.036,433.711
						c2.854-3.303,6.059-7.767,5.509-9.025c-0.033-0.076-0.133-0.306-0.771-0.313c-0.009,0-0.018,0-0.026,0
						C198.688,424.373,197.411,430.244,197.036,433.711z"/>
				</g>
				<g>
					<path style="fill:#FFFFFF;" d="M196.325,435.525c-0.182-0.055-0.309-0.219-0.318-0.409c-0.009-0.19,0.104-0.364,0.279-0.436
						c0.439-0.18,10.752-4.34,12.876,0.306c0.418,0.916,0.177,1.482-0.098,1.796c-0.46,0.524-1.432,0.724-2.65,0.724
						C203,437.507,197.666,435.938,196.325,435.525z M197.878,435.044c4.204,1.18,9.599,2.182,10.512,1.146
						c0.055-0.062,0.219-0.251-0.046-0.83c-0.562-1.23-2.008-1.66-3.733-1.66C202.402,433.7,199.734,434.405,197.878,435.044z"/>
				</g>
			</g>
			<path style="fill:#415797;" d="M221.697,395.53c-4.903,14.734,6.107,43.584,6.107,43.584s107.308-20.993,133.406-32.408
				c12.214-5.342,29.628-32.484-5.456-51.012C332.622,343.477,221.697,395.53,221.697,395.53z"/>
			<g>
				<path style="fill:#31467C;" d="M226.426,403.251c0.079,0,0.16-0.015,0.237-0.046l105.759-42.564
					c0.325-0.131,0.482-0.501,0.351-0.826c-0.128-0.325-0.502-0.48-0.825-0.352l-105.759,42.564
					c-0.325,0.131-0.482,0.501-0.351,0.826C225.936,403.101,226.175,403.251,226.426,403.251z"/>
			</g>
			<g>
				<path style="fill:#31467C;" d="M224.595,396.266c0.091,0,0.184-0.019,0.272-0.061c1.094-0.52,109.575-51.872,132.156-39.95
					c0.309,0.164,0.695,0.046,0.858-0.264c0.163-0.31,0.044-0.694-0.265-0.857c-9.764-5.158-35.188,0.012-75.558,15.356
					c-29.968,11.388-57.461,24.439-57.734,24.57c-0.318,0.151-0.451,0.529-0.3,0.846
					C224.132,396.132,224.359,396.266,224.595,396.266z"/>
			</g>
			<g>
				<path style="fill:#31467C;" d="M274.237,430.143c0.037,0,0.073-0.004,0.112-0.01c33.232-5.967,71.839-15.854,87.89-22.511
					c0.325-0.134,0.477-0.506,0.344-0.83c-0.135-0.323-0.505-0.476-0.828-0.343c-15.983,6.628-54.473,16.482-87.63,22.434
					c-0.344,0.062-0.574,0.392-0.512,0.737C273.668,429.928,273.935,430.143,274.237,430.143z"/>
			</g>
		</g>
		<g>
			<path style="fill:#AA3B22;" d="M193.65,311.374c-0.016,0-0.033-0.001-0.049-0.002c-0.275-0.027-0.476-0.272-0.449-0.547
				c0.018-0.178,1.785-17.995,5.035-36.889c0.047-0.271,0.301-0.456,0.578-0.408c0.272,0.047,0.455,0.306,0.408,0.578
				c-3.244,18.855-5.007,36.639-5.025,36.816C194.121,311.18,193.904,311.374,193.65,311.374z"/>
		</g>
		<g>
			<path style="fill:#AA3B22;" d="M194.112,308.14c-0.174,0-0.343-0.091-0.435-0.253c-0.212-0.372-5.191-9.192-6.016-15.58
				c-0.035-0.275,0.158-0.525,0.432-0.561c0.273-0.037,0.524,0.158,0.56,0.432c0.799,6.192,5.842,15.125,5.893,15.215
				c0.137,0.24,0.053,0.545-0.188,0.682C194.28,308.12,194.195,308.14,194.112,308.14z"/>
		</g>
	</g>
</g>
</svg>
