<?xml version="1.0" encoding="utf-8"?>
<!-- Generator: Adobe Illustrator 27.5.0, SVG Export Plug-In . SVG Version: 6.00 Build 0)  -->
<svg version="1.1" xmlns="http://www.w3.org/2000/svg" xmlns:xlink="http://www.w3.org/1999/xlink" x="0px" y="0px"
	 viewBox="0 0 2000 2000" style="enable-background:new 0 0 2000 2000;" xml:space="preserve">
<g id="BACKGROUND">
	<rect style="fill:#EFE3D7;" width="2000" height="2000"/>
</g>
<g id="OBJECTS">
	<g>
		<g>
			<path style="fill:#D33821;" d="M1314.356,1286.243c6.381,1.154,8.139,7.21,11.753,11.247c2.359,2.635,4.155,5.774,7.186,10.083
				c0.645-14.357,0.629-27.162,3.016-39.722c1.729-9.1,4.305-17.957,8.841-26.112c0.938-1.687,2.071-3.358,3.447-4.693
				c4.376-4.245,8.865-9.036,15.778-6.63c6.843,2.381,8.183,8.819,8.483,14.909c0.965,19.623-4.705,38.066-12.138,55.801
				c-2.489,5.939-1.255,6.697,3.639,9.365c12.523,6.828,22.421,17.103,31.784,27.729c5.786,6.567,11.727,13.098,15.726,21.019
				c1.525,3.02,3.416,6.147,0.756,9.52c-2.764,3.505-6.599,3.073-10.068,1.977c-9.262-2.926-18.653-5.687-26.181-12.404
				c-2.264,2.871,0.248,3.888,1.335,5.036c9.082,9.587,19.317,17.797,30.268,25.167c36.728,24.719,77.777,38.259,120.753,46.9
				c9.77,1.964,19.352,4.741,29.012,7.164c17.043,4.275,29.707,15.218,39.948,27.995c9.184,11.457,11.068,26.333,7.472,41.014
				c-4.835,19.741-18.65,32.574-35.966,40.702c-24.158,11.339-49.614,18.683-76.957,16.416c-14.691-1.218-28.8-4.869-42.559-9.751
				c-27.288-9.683-54.598-10.942-82.371-2.202c-20.569,6.473-41.435,4.527-62.269,1.204c-9.367-1.494-18.758-2.841-28.116-4.39
				c-2.268-0.375-3.863-1.033-4.978,2.122c-8.517,24.1-24.165,43.188-43.396,59.392c-14.712,12.396-24.187,27.796-28.96,46.164
				c-3.421,13.166-7.557,26.149-9.765,39.64c-1.681,10.271-7.141,19.075-12.542,27.725c-16.988,27.206-37.261,51.054-66.542,66.062
				c-10.842,5.557-20.425,4.929-31.036-0.663c-29.79-15.702-38.09-48.264-32.723-77.669c4.041-22.138,13.279-42.001,23.918-61.443
				c13.003-23.763,19.94-49.356,22.936-76.133c1.555-1.663,2.019-3.335,0.088-5.173c-1.205,1.657-2.462,3.128-1.912,5.258
				c-1.047,2.451-1.891,5.015-3.182,7.33c-2.894,5.193-7.122,9.155-13.36,8.388c-6.16-0.758-8.54-5.981-9.845-11.38
				c-2.686-11.113-1.679-22.192,0.654-33.246c0.887-4.205,2.779-8.242,2.457-13.357c-9.408,4.745-19.168,7.203-28.995,9.362
				c-9.253,2.033-17.613-1.343-20.785-8.06c-3.387-7.172-0.616-15.666,7.513-21.49c11.135-7.978,24.268-9.333,37.372-10.541
				c2.661-0.245,5.399-0.531,8.015-0.171c3.465,0.478,4.649-1.843,6.143-4.015c1.98-2.879-0.945-3.844-2.219-5.24
				c-4.854-5.323-9.706-10.549-5.875-18.581c3.77,0.047,7.341-0.572,10.344-3.091c1.599,0.195,2.801-0.558,3.893-1.605
				c20.251-19.419,36.608-41.628,47.248-67.672c2.734-6.693,5.522-14.163-0.066-21.191c1.863-1.3,2.739-3.17,3.092-5.342
				c7.254-3.276,12.671,0.757,17.859,4.787c15.053,11.692,26.03,27.589,40.778,39.645c12.237,10.004,24.411,20.108,35.215,31.729
				c1.351,1.453,2.641,3.578,6.365,2.869c-6.215-13.345-10.827-27.005-17.384-39.973c-8.757-17.317-19.731-33.499-26.64-51.746
				c-2.279-6.019-5.536-12.027-2.334-18.775c3.039,0.035,6.078,0.07,9.118,0.105c2.148,4.031,5.009,4.705,9.575,3.526
				c33.917-8.761,65.939-21.254,92.937-44.492c5.122-4.408,10.376-8.147,7.269-16.014
				C1310.403,1290.526,1312.282,1288.225,1314.356,1286.243z M1372.211,1357.494c0.631,0.434,1.266,1.537,2.049,0.508
				c0.809-1.063-0.408-1.339-1.056-1.767c-0.551-0.325-1.436-1.048-1.6-0.911
				C1370.381,1356.349,1371.783,1356.814,1372.211,1357.494z M1097.403,1552.255c0.015-6.51,0.222-13.029-0.084-19.524
				c-0.08-1.709,0.768-5.357-3.595-4.27c-3.496,0.871-2.852,2.647-2.135,5.309c1.624,6.025,2.745,12.185,4.07,18.29
				c-0.259,5.785-0.518,11.571-0.777,17.356C1094.8,1563.55,1097.926,1558.079,1097.403,1552.255z M1106.555,1526.214
				c-0.182-1.375-1.112-1.908-2.358-1.989c-0.076-0.005-0.392,0.815-0.271,1.123c0.561,1.433,1.598,1.37,2.747,0.703
				c7.941,3.824,15.403,0.013,23.031-1.402c6.522-1.21,3.73-5.632,2.981-8.989c-1.168-5.238-4.184-1.163-6.068-0.64
				c-3.97,1.104-7.858,2.348-12.019,2.615c-1.627,0.105-4.264-0.449-2.805,3.055
				C1114.043,1526.094,1110.239,1526.195,1106.555,1526.214z M1132.904,1548.099c-7.147,1.619-14.479,3.205-21.666,1.795
				c-6.175-1.212-6.753,1.646-7.39,6.349c-0.883,6.517,3.586,4.79,6.88,5.046c5.167,0.403,10.202-0.332,15.11-1.938
				c5.545-1.815,8.676-5.14,6.983-11.394c0.29-0.048,0.58-0.095,0.87-0.143c-0.115-0.056-0.279-0.189-0.334-0.153
				C1133.184,1547.773,1133.052,1547.948,1132.904,1548.099z M1576.179,1537.56c-5.382,1.486-10.721,3.154-16.153,4.426
				c-18.78,4.398-37.855,6.563-57.108,5.558c-20.501-1.07-40.093-7.386-60.088-11.411c-16.528-3.327-33.253-8.457-50.233-2.167
				c-31.502,11.67-63.654,8.234-95.884,4.61c-9.558-1.074-18.733-3.712-28.159-6.474c2.12,11.255,8.834,15.579,19.051,16.104
				c6.29,0.324,12.561,1.421,18.788,2.482c20.327,3.461,40.596,4.929,60.676-1.371c29.516-9.26,58.468-6.942,87.273,3.453
				c26.736,9.648,54.064,12.335,81.664,3.951c14.342-4.356,28.919-8.509,40.851-18.362c0.566-0.386,1.133-0.772,1.7-1.158
				C1577.596,1536.214,1576.882,1536.853,1576.179,1537.56z M1542.667,1446.166c-15.358-3.337-29.629-6.218-43.764-9.659
				c-3.694-0.899-4.964,0.929-6.302,3.18c-8.562,14.404-22.156,17.453-36.765,14.042c-24.355-5.685-48.983-10.633-72.482-19.534
				c-18.943-7.176-36.487-17.225-49.066-33.145c-17.179-21.741-33.183-44.481-45.385-69.557c-2.126-4.368-4.197-4.24-7.787-1.673
				c-6.36,4.546-13.467,7.789-20.719,10.717c-18.947,7.65-37.681,15.889-58.024,19.409c-2.758,0.477-6.19,1.25-4.064,5.69
				c2.942,6.144,5.291,12.63,8.761,18.453c9.995,16.772,19.138,33.991,26.317,52.112c4,10.099,8.672,18.462,20.454,20.379
				c1.571,0.255,3.108,1.433,4.416,2.489c18.887,15.246,32.288,33.526,32.825,59.025c0.242,11.484,1.911,12.5,12.632,14.092
				c9.238,1.372,18.508,0.47,27.647,1.521c19.183,2.206,37.724-0.039,55.922-6.148c12.702-4.264,25.364-4.655,38.737-2.27
				c20.112,3.586,39.833,8.818,59.851,12.733c3.828,0.749,4.924,0.442,5.948-4.015
				C1499.602,1500.104,1513.526,1469.529,1542.667,1446.166z M1159.158,1701.775c5.099-16.648,10.222-32.312,14.676-48.164
				c6.564-23.365,17.318-44.126,34.397-61.72c12.734-13.118,22.871-28.323,31.973-44.208c1.701-2.969,1.199-4.356-0.845-6.767
				c-21.748-25.651-31.105-55.363-28.161-88.818c0.29-3.294-1.389-4.081-3.192-5.69c-15.424-13.765-31.605-26.749-45.387-42.239
				c-4.214-4.735-8.56-9.185-13.385-13.276c-3.717-3.151-5.643-3.774-6.869,2.027c-1.749,8.281-3.426,16.547-7.475,24.281
				c-7.366,14.073-15.641,27.499-25.678,39.785c-3.698,4.526-4.393,7.854,0.735,12.002c6.383,5.164,12.224,10.95,17.204,17.653
				c16.536,22.254,17.709,46.907,12.514,72.889c-4.693,23.468-13.6,45.639-20.689,68.357c-2.406,7.71-7.158,14.656-14.374,19.692
				c-6.253,4.363-12.183,1.48-18.216,0.771c-2.88-0.339-3.97,0.867-5.069,2.935c-3.541,6.663-7.027,13.358-10.731,19.931
				c-2.676,4.749-0.858,5.692,3.836,5.755c10.7,0.143,21.454-1.121,32.098,0.698
				C1125.77,1680.959,1143.479,1687.832,1159.158,1701.775z M1052.58,1731.281c-0.035,14.456,2.979,25.849,9.077,36.4
				c6.896,11.933,7.252,11.847,19.826,7.296c30.471-11.028,51.658-33.031,70.078-58.459c4.012-5.538,3.441-8.951-2.382-13.407
				c-23.278-17.814-49.926-20.479-77.687-18.406c-4.353,0.325-8.839,2.176-10.651,7.553
				C1056.315,1705.687,1053.446,1719.401,1052.58,1731.281z M1513.253,1540.681c8.878-0.791,19.068-1.432,29.187-2.662
				c15.053-1.83,29.363-6.469,42.984-13.023c5.748-2.766,11.16-6.638,12.367-13.485c1.639-9.296,2.655-18.494-1.632-27.762
				c-4.347-9.397-11.45-16.28-18.732-22.954c-15.217-13.949-26.289-13.536-41.037,0.739c-1.922,1.861-3.828,3.763-5.536,5.817
				c-14.37,17.274-23.605,37.176-29.913,58.577C1496.889,1539.676,1497.684,1540.775,1513.253,1540.681z M1259.039,1530.682
				c-13.79,24.231-27.347,47.787-46.46,67.551c-10.257,10.606-18.176,22.76-23.923,36.406c-6.819,16.19-11.455,33.061-16.056,49.935
				c-4.205,15.424-10.106,30.056-19.899,42.746c-18.717,24.252-40.48,44.783-70.213,55.095c-1.079,0.374-2.01,1.175-3.103,1.833
				c10.798,8.993,16.128,9.589,27.979,3.742c28.174-13.901,47.206-37.089,63.536-62.858c4.779-7.541,9.981-15.18,11.414-24.303
				c1.779-11.328,5.185-22.24,7.942-33.314c5.126-20.592,12.703-39.981,29.408-54.27c10.021-8.571,20.009-17.31,27.417-28.181
				C1263.141,1561.498,1272.774,1551.552,1259.039,1530.682z M1216.694,1461.823c2.097,19.05,5.716,37.114,14.169,53.885
				c3.409,6.763,7.183,13.311,12.682,18.646c1.666,1.616,3.395,4.127,5.281-0.173c3.963-9.034,9.024-17.71,3.725-28.091
				c-1.613-3.159-1.602-7.105-2.847-10.503c-2.146-5.856-3.416-12.325-7.767-16.976c-6.153-6.577-12.91-12.592-19.457-18.796
				c-1.194-1.131-2.344-3.275-4.08-2.581C1216.383,1458.041,1216.696,1460.465,1216.694,1461.823z M1244.563,1461.312
				c5.959,16.762,13.332,31.43,15.659,47.56c1.754,12.16,9.69,16.568,20.167,19.227c3.576,0.907,4.055,0.191,4.13-3.148
				c0.381-17-5.046-31.963-15.675-45.034C1262.631,1472.276,1256.291,1464.588,1244.563,1461.312z M1487.221,1433.277
				c-14.485-5.365-28.717-10.163-42.413-16.35c-2.07-0.935-4.453-2.457-6.002,1.064c-3.217,7.312-8.168,13.552-13.561,20.35
				c11.722,3.02,22.581,6.546,33.717,8.505C1473.195,1449.352,1480.206,1445.572,1487.221,1433.277z M1341.318,1303.202
				c2.554-15.104,4.705-30.258,10.209-44.642c0.957-2.501,2.362-4.963,5.497-5.239c1.923-0.169,3.424,1.017,3.852,2.746
				c0.754,3.045,1.415,6.236-1.157,8.922c-10.264,10.719-7.121,24.682-10.955,38.16c4.979-1.559,5.507-4.471,6.357-6.766
				c3.875-10.464,6.99-21.152,9.147-32.13c1.233-6.274,1.638-12.545,1.281-18.875c-0.165-2.915-0.55-6.504-3.328-7.66
				c-3.33-1.386-5.751,1.765-7.953,3.891c-3.036,2.931-4.62,6.813-6.112,10.689
				C1341.83,1268.722,1340.704,1285.856,1341.318,1303.202z M1302.001,1338.01c1.113-0.626,2.398-1.305,3.641-2.055
				c5.684-3.43,10.244-8.127,14.601-13.043c8.335-9.405,8.254-11.702,0.089-21.349c-2.095-2.475-3.442-3.033-5.347-0.012
				c-3.16,5.01-7.698,8.672-12.306,12.272c-11.182,8.738-11.243,9.169-3.772,21.382
				C1299.609,1336.354,1299.848,1338.106,1302.001,1338.01z M1074.828,1484.959c5.845,4.71,8.065,12.315,14.678,12.025
				c8.637-0.379,16.91-3.849,24.742-7.776c2.777-1.392,3.332-3.198,0.761-5.555c-4.115-3.772-8.336-7.475-12.057-11.617
				c-2.949-3.282-4.827-2.648-7.531,0.221C1090.139,1477.861,1084.743,1483.478,1074.828,1484.959z M1363.771,1360.432
				c-6.002,11.244-14.101,20.298-23.045,28.479c-4.267,3.903-2.114,5.982,0.619,8.669c2.783,2.737,4.803,6.974,9.835,2.356
				c6.541-6.001,11.685-12.893,16.202-20.454C1374.516,1367.541,1374.159,1369.768,1363.771,1360.432z M1073.878,1522.013
				c-11.489,1.256-21.082,6.361-31.383,8.908c-3.515,0.869-8.948,5.294-10.6-0.497c-1.586-5.556,5.249-4.906,8.733-6.171
				c10.623-3.856,21.283-7.625,32.26-10.486c-8.045-1.402-15.808-0.209-23.424,1.19c-6.631,1.218-13.399,2.922-18.809,7.423
				c-3.595,2.991-7.442,6.494-5.277,11.716c2.26,5.451,7.586,5.925,12.515,4.877c6.862-1.46,13.694-3.32,20.288-5.702
				C1064.104,1531.132,1069.289,1527.518,1073.878,1522.013z M1352.275,1408.095c3.232,2.441,5.481,4.295,7.896,5.899
				c1.267,0.842,2.672,2.389,4.4,0.508c8.176-8.902,17.104-17.232,21.688-28.836c2.305-5.833-3.446-6.853-6.072-9.126
				c-3.279-2.839-3.594,1.86-4.464,3.356C1369.598,1390.431,1362.761,1400.333,1352.275,1408.095z M1333.191,1386.033
				c1.6-1.427,3.326-2.729,4.769-4.291c7.221-7.815,14.883-15.231,19.415-25.214c1.844-4.062-0.442-6.144-2.708-7.999
				c-2.616-2.142-3.768,1.219-4.987,2.542c-6.742,7.325-13.638,14.473-21.089,21.092c-1.329,1.181-4.917,1.507-2.933,4.664
				C1327.701,1380.077,1329.719,1383.416,1333.191,1386.033z M1405.206,1363.434c-6.244-14.7-35.067-43.597-46.35-46.736
				c-1.411,3.642,1.714,4.542,3.724,6.077c9.112,6.962,17.171,15.098,25.556,22.87c1.882,1.745,3.653,3.769,1.546,6.227
				c-2.27,2.649-4.384,0.63-6.251-0.941c-1.86-1.566-3.603-3.27-5.42-4.888c-4.33-3.858-8.074-8.457-13.412-11.033
				C1374.812,1348.754,1386.601,1360.3,1405.206,1363.434z M1415.374,1403.649c-0.606-3.74-4.901-4.623-7.838-6.812
				c-1.946-1.451-2.464,0.18-2.929,1.54c-3.45,10.087-9.659,18.371-16.929,25.96c-1.905,1.988-1.707,2.991,1.091,3.913
				c5.532,1.822,10.043,3.728,14.563-3.101C1407.734,1418.498,1413.112,1412.581,1415.374,1403.649z M1320.995,1368.416
				c0.809-0.489,1.69-0.891,2.419-1.48c8.711-7.039,16.041-15.47,23.599-23.655c3.143-3.404-1.178-5.003-2.463-7.153
				c-2.045-3.421-3.527-0.441-4.87,0.903c-7.188,7.198-14.107,14.69-22.92,20.034c-1.466,0.889-3.099,1.976-1.627,3.993
				C1316.942,1363.537,1317.766,1366.824,1320.995,1368.416z M1084.886,1537.722c-0.214,3.173-0.383,4.777-0.42,6.383
				c-0.225,9.723-1.84,19.384-1.202,29.152c0.156,2.394,0.177,5.382-3.3,5.389c-3.26,0.007-3.492-2.869-3.729-5.296
				c-0.189-1.933-0.028-3.897-0.157-5.838c-0.607-9.165,2.389-18.233,0.599-28.596c-4.2,14.119-7.114,27.238-4.276,40.955
				c0.615,2.971,0.777,7.137,4.712,7.182c3.302,0.037,5.029-3.314,6.406-6.293
				C1089.811,1567.153,1090.489,1553.356,1084.886,1537.722z M1338.065,1327.303c-1.742-2.103-3.109-4.513-5.144-6.022
				c-2.632-1.95-2.998,1.46-4.017,2.611c-6.111,6.906-12.011,14.059-20.219,18.608c-3.616,2.004-3.23,3.829-1.261,6.843
				c1.956,2.993,3.502,3.084,6.36,1.173c8.35-5.584,15.16-12.805,22.049-19.96
				C1336.645,1329.714,1337.183,1328.609,1338.065,1327.303z M1405.467,1433.416c4.823,0.978,8.584,4.956,12.711,1.211
				c5.96-5.409,10.312-12.096,13.962-19.262c2.379-4.671-2.071-4.679-4.132-5.766c-1.877-0.989-5.153-4.321-6.416-0.67
				C1418.351,1418.295,1412.223,1425.619,1405.467,1433.416z M1095.942,1503.632c5.645,7.874,23.465,9.839,29.775,3.55
				c3.965-3.952,0.792-7.55-1.318-10.99c-1.012-1.65-1.63-4.385-4.642-2.135C1112.817,1499.241,1104.177,1500.266,1095.942,1503.632
				z M1397.957,1394.564c0.572-2.754-0.135-5.038-2.846-5.983c-2.818-0.982-3.052,1.854-3.792,3.358
				c-4.47,9.083-10.978,16.566-18.007,23.694c-1.108,1.124-4.25,2.415-1.619,4.329c2.051,1.492,4.889,4.976,7.441,2.585
				C1387.495,1414.713,1395.041,1406.12,1397.957,1394.564z M1110.353,1627.454c-2.691-0.223-5.317-0.242-7.87-0.685
				c-13.532-2.35-9.545-2.435-14.995,9.401c-2.068,4.491,0.036,5.441,3.935,5.889
				C1100.805,1643.135,1105.84,1639.411,1110.353,1627.454z M1112.613,1534.757c-1.215,0-2.43-0.017-3.644,0.005
				c-1.573,0.028-3.635-0.807-3.88,1.849c-0.178,1.923-0.257,3.75,1.805,5.094c5.401,3.52,23.406,0.87,27.535-4.144
				c1.433-1.741,1.441-3.783,0.591-5.457c-1.141-2.247-3.042-0.362-4.48-0.03
				C1124.625,1533.436,1118.708,1534.688,1112.613,1534.757z M1129.633,1565.711c-7.804,2.725-15.266,3.194-22.838,2.803
				c-1.9-0.098-4.055-0.437-4.389,2.437c-0.281,2.415,0.15,4.359,2.91,5.011c3.764,0.89,7.476,2.264,11.288,2.642
				C1126.286,1579.563,1129.148,1576.712,1129.633,1565.711z M1120.457,1597.87c-6.22,0.55-12.136-0.763-18.103-1.62
				c-3.421-0.491-4.11,1.431-4.502,4.164c-0.428,2.98,0.295,4.659,3.647,4.76c2.416,0.073,4.885,0.319,7.216,0.925
				C1115.518,1607.868,1119.481,1605.615,1120.457,1597.87z M1105.765,1619.902c2.496,0,3.489-0.141,4.428,0.025
				c3.276,0.58,4.531-1.538,4.703-4.052c0.221-3.24-2.717-1.889-4.286-2.174c-4.039-0.733-8.173-0.966-12.195-1.768
				c-3.448-0.688-3.304,1.741-3.935,3.751c-0.881,2.809,1.18,2.514,2.776,2.779
				C1100.586,1619.017,1103.912,1619.589,1105.765,1619.902z M1124.937,1584.433c-7.325,3.151-13.482,0.393-19.798-0.935
				c-1.639-0.345-3.942-1.738-4.362,1.641c-0.28,2.253,0.232,3.51,2.818,3.998c5.498,1.037,10.993,1.475,16.584,1.574
				C1123.974,1590.778,1124.516,1588.638,1124.937,1584.433z M1351.277,1317.524c-0.399-2.181,0.354-6.35-3.278-6.443
				c-4.257-0.109-5.866,4.451-6.272,7.767c-0.306,2.499,2.368,6.151,4.994,6.19
				C1350.385,1325.092,1351.225,1321.407,1351.277,1317.524z M1085.742,1506.986c-1.965,0.049-2.775,0.79-3.28,2.016
				c-1.443,3.499,2.753,11.927,6.375,12.553c0.814,0.141,2.169-0.065,2.535-0.609c1.444-2.15,0.199-4.229-0.918-6.01
				C1088.762,1512.239,1088.262,1508.718,1085.742,1506.986z M1369.373,1352.291c-0.33,0.401-0.783,0.712-0.755,0.972
				c0.041,0.386,0.347,0.877,0.683,1.058c0.277,0.149,0.762-0.088,1.154-0.154
				C1370.127,1353.596,1369.797,1353.026,1369.373,1352.291z M1234.265,1459.185c-0.093,0.171-0.303,0.383-0.259,0.505
				c0.264,0.731,0.64,0.75,0.974,0.049c0.056-0.117-0.091-0.398-0.223-0.514C1234.659,1459.136,1234.434,1459.192,1234.265,1459.185
				z"/>
			<path style="fill:#D59D3F;" d="M877.171,586.66c11.379-2.56,22.362,0.257,32.926,3.62c8.841,2.815,15.826,9.657,22.636,15.668
				c15.31,13.515,29.956,27.823,44.332,42.343c37.175,37.546,72.06,77.469,113.424,110.669
				c32.283,25.912,64.708,51.668,100.038,73.511c10.592,6.549,20.215,14.664,30.282,22.062c-0.224,2.061,0.301,4.319-1.57,5.946
				c-4.017-0.385-4.853,2.049-6.164,5.416c-10.644,27.331-29.449,47.506-55.661,60.412c-4.569,2.249-4.23,3.776-2.402,7.028
				c-2.676,0.598-5.352,1.195-8.028,1.793c-13.071-15.07-26.214-30.078-39.197-45.224c-27.043-31.549-59.496-57.466-89.41-86.025
				c-18.137-17.316-35.966-34.967-54.463-51.888c-11-10.062-19.67-22.133-30.827-33.396c-2.498,29.628-2.432,57.771,17.174,81.936
				c-0.915,4.119-3.567,6.052-7.699,6.128c1.01-3.567-1.552-5.948-2.947-8.687c-4.841-9.505-11.404-18.388-13.018-29.15
				c-2.828-18.847-2.75-37.962-0.882-56.799c1.558-15.718-2.228-28.683-12.468-40.29c-10.295-11.669-20.822-23.182-28.998-36.523
				c-1.584-2.584-3.698-5.406-1.61-8.772c0.857-1.381,2.261-1.771,3.813-1.54c4.108,0.612,2.825,4.555,4.222,6.845
				c0.239,0.392,0.706,0.644,1.207,1.084c1.659-1.712,2.708-4.931,6.026-3.279c2.393,1.192,2.664,3.724,1.956,5.746
				c-3.35,9.57,3.634,14.03,9.163,19.259c4.416,6.987,9.683,13.245,15.965,18.633c2.467,5.883,4.934,11.766,7.401,17.65
				c0.365,10.37,1.271,20.497,11.794,26.318c1.135,4.724,4.468,8.097,7.607,11.383c21.379,22.384,43.593,43.941,66.15,65.124
				c30.002,28.175,61.984,54.271,89.695,84.843c11.447,12.629,22.423,25.701,33.236,38.881c3.848,4.69,7.933,5.341,12.742,2.832
				c24.862-12.97,43.666-31.443,52.947-58.568c1.746-5.102,0.734-8.276-3.739-11.741c-12.57-9.738-26.765-16.933-39.6-26.221
				c-35.936-26.008-71.336-52.686-104.462-82.26c-17.656-15.763-33.541-33.289-50.093-50.149
				c-9.539-9.717-18.953-19.547-29.337-28.383c-4.651-8.098-11.03-14.477-19.095-19.177c-1.427-4.328-4.772-6.534-8.82-7.963
				c-4.765-7.293-11.068-13.071-17.982-18.249c-3.402-6.755-10.373-9.348-15.923-13.58c-13.299-10.141-28.159-13.077-44.088-8.129
				c-15.096,4.689-30.478,8.332-45.445,13.567c-12.692,4.439-26.031,7.842-39.301,1.147c-2.106-1.062-3.078,0.163-4.299,1.417
				c-11.889,12.21-26.053,21.153-41.363,28.345c-3.107,1.459-4.489,3.092-4.103,6.627c0.561,5.134,0.003,10.365-2.296,14.971
				c-7.298,14.622-15.972,28.228-27.476,40.14c-23.575,24.412-35.972,53.479-34.233,87.894c-0.024,10.317-0.048,20.634-0.073,30.952
				c0.042,4.295,0.085,8.589,0.128,12.883c0.174,8.382-1.279,16.83,1.015,25.126c-0.028,2.188-0.083,4.377-0.078,6.565
				c0.066,28.785,4.474,57.403,4.219,86.135c-0.458,51.464,2.321,102.868,1.843,154.314c-0.05,5.353,1.601,6.643,6.723,5.97
				c22.406-2.944,43.84-8.892,64.03-19.217c16.442-8.408,16.612-8.31,12.716-25.887c-5.692-25.677-7.174-52.037-13.003-77.711
				c-6.034-26.576-10.832-53.392-13.621-80.548c-1.465-14.259-3.56-28.454-5.371-42.677c-0.593-8.754-1.187-17.507-1.78-26.261
				c-0.501-4.529-1.002-9.057-1.503-13.586c0.111-8.857,0.223-17.714,0.334-26.571c-0.014-2.187-0.081-4.374-0.028-6.56
				c0.074-3.082-0.98-4.726-4.325-3.547c-2.714,0.957-5.591,1.454-6.86-1.738c-1.365-3.432,2.583-4.176,4.473-5.7
				c-2.453-3.023-8.531-3.21-5.8-8.328c2.497-4.68,5.975-1.092,8.742,0.218c22.182,10.504,42.998,23.347,63.272,37.12
				c8.461,5.748,13.315,13.899,16.385,23.398c3.218,9.957,5.181,20.205,7.062,30.458c0.561,3.058,1.235,5.106,4.807,4.614
				c-4.58,5.371-9.087,5.059-13.53-0.174c2.456-6.191-0.606-11.932-1.505-17.834c-2.84-18.64-11.372-33.023-28.816-42.138
				c-10.736-5.61-20.63-12.897-31.305-18.789c-4.121-2.275-5.206-1.697-5.327,3.163c-0.835,33.441,3.288,66.508,6.44,99.701
				c4.223,44.469,15.49,87.673,21.929,131.706c2.75,18.803,5.597,37.552,10.164,55.985c1.195,4.823,0.011,7.969-3.666,10.695
				c-2.428-0.036-3.764,2.061-5.73,2.928c-5.565,1.123-10.124,4.489-15.123,6.856c-22.06,10.444-45.204,16.617-69.593,18.04
				c-2.534,0.284-5.035-1.791-7.589-0.105c-2.765-3.987,0.34-7.885,0.373-11.841c0.205-24.605-0.431-49.184-1.662-73.741
				c-1.707-34.041,1.07-68.147-1.434-102.146c-3.399-46.148-4.611-92.351-4.684-138.602c-0.001-0.907-0.569-1.814-0.876-2.719
				c2.331-5.278-1.4-10.386-0.217-15.803c5.996-27.454,14.937-53.419,35.551-73.794c5.19-5.13,10.506-10.133,15.736-15.224
				c5.383-5.24,8.737-11.461,10.241-18.936c2.143-10.652,4.886-21.183,7.371-31.762c10.931-1.801,19.523-8.418,28.139-14.51
				c7.153-5.057,15.741-9.143,18.589-18.665c5.78-1.059,9.69,2.567,13.689,5.679c2.499,1.945,4.626,2.818,7.926,1.558
				c19.348-7.385,38.97-13.811,59.565-16.959C867.829,591.138,872.805,589.502,877.171,586.66z"/>
			<path style="fill:#5C473E;" d="M734.96,634.789c-2.486,10.583-5.229,21.114-7.372,31.766
				c-1.504,7.475-4.858,13.696-10.241,18.936c-5.23,5.091-10.545,10.094-15.736,15.224c-20.614,20.375-29.555,46.34-35.551,73.794
				c-1.183,5.418,2.548,10.526,0.217,15.803c-4.826,2.825-7.53,1.089-9.004-3.964c-3.161-10.836-5.726-21.798-7.459-32.95
				c-0.613-6.435-1.226-12.873-1.839-19.311c-1.087,6.499-1.734,12.936-0.765,19.398c0.415,8.508,1.188,17.003,3.356,25.239
				c1.194,4.536-0.39,6.395-4.566,7.073c-4.076,0.662-8.142,1.391-12.21,2.104c-9.166,1.607-10.698,0.521-13.28-8.75
				c-4.432-15.916-4.627-32.192-4.386-48.521c0.075-5.095,0.012-10.192,0.012-17.217c-2.959,8.806-4.03,16.135-4.135,23.393
				c-0.214,14.768-1.998,29.693,2.718,44.193c0.606,1.862,0.797,4.006-1.617,4.96c-2.722,1.076-4.198-0.717-5.085-2.811
				c-2.396-5.662-3.061-11.716-3.4-17.775c-1.244-22.255,0.99-44.114,6.448-65.789c4.813-19.112,7.897-38.587,8.015-58.396
				c0.074-12.448-0.319-24.777-7.872-35.622c-1.459-2.095-1.787-4.977-2.631-7.492c3.432-1.99,7.173-1.042,10.748-0.932
				c7.154,0.222,14.353,0.103,20.635-3.475c4.885-2.782,7.422-0.865,11.296,2.109c12.449,9.554,24.498,19.558,41.091,22.331
				c12.641,2.112,25.184,2.076,37.81,2.458C731.486,625.398,735.668,629.269,734.96,634.789z"/>
			<path style="fill:#5C473E;" d="M582.808,541.501c-2.749-0.694-3.633-3.086-4.597-5.273c-11.269-25.552-12.448-51.69-4.424-78.338
				c0.21-0.696,0.448-1.392,0.755-2.049c4.585-9.795,4.697-9.984-5.189-15.633c-6.617-3.781-13.061-8.786-21.647-5.873
				c-1.483,0.503-2.784-0.671-3.259-2.262c-0.551-1.843,0.086-3.331,1.576-4.487c3.024-2.345,6.395-1.919,9.787-1.194
				c7.228,1.546,13.48,5.406,20.812,9.194c-0.415-7.271-3.261-13.035-5.448-18.961c-1.011-2.737-2.88-5.93,1.202-7.342
				c3.379-1.168,4.593,2.081,5.517,4.521c2.323,6.133,4.398,12.359,6.821,19.258c20.844-39.035,57.301-49.745,96.801-57.381
				c24.142-4.667,46.674-3.729,69.339,4.622c1.596,0.588,3.251,1.062,4.761,1.822c2.416,1.217,5.301,2.623,3.821,5.971
				c-1.623,3.671-4.408,1.652-6.811,0.638c-12.051-5.085-24.709-7.628-37.949-8.996c20.034,14.636,39.643,29.393,51.418,51.861
				c-6.165,4.335-12.576,8.469-13.884,16.812c-0.712-0.664-1.447-1.305-2.132-1.994c-6.826-6.869-9.304-19.446-22.919-17.443
				c-0.347,0.051-0.788-0.519-1.182-0.803c-9.136-6.583-19.302-11.266-29.459-15.968c-3.95-1.829-7.448-4.903-13.182-4.896
				c2.451,3.314,4.067,6.074,6.226,8.312c6.565,6.807,6.968,14.627,4.291,23.063c-1.248,3.934-2.193,8.376-7.235,9.057
				c-5.205,0.703-5.95-4.189-7.975-7.236c-5.581-8.399-10.511-17.309-19.214-23.34c2.971,10.087,4.987,20.224,7.38,30.267
				c1.964,8.24-0.91,12.897-7.586,16.728c-7.435,4.267-9.857,3.308-12.647-4.792c-2.599-7.548-4.691-15.37-9.42-22.065
				c0.516,8.323,2.596,16.316,2.696,24.626c0.078,6.446-1.661,11.864-7.17,14.948c-5.91,3.308-6.922,7.709-6.754,14.038
				c0.459,17.301-0.572,34.733,11.193,49.47c1.703,2.134,2.147,5.176,0.129,7.476c-2.337,2.663-5.655,2.905-8.769,1.66
				c-7.295-2.917-13.833-7.084-19.386-12.703c-0.359-1.726-1.573-2.423-3.182-2.645l-0.01,0.046
				c-1.264-3.149-4.052-2.971-6.727-3.127C591.201,530.625,586.97,536,582.808,541.501z M658.013,414.699l-0.245,0.359l0.336,0.066
				L658.013,414.699z"/>
			<path style="fill:#5E4A43;" d="M942.56,806.658c4.132-0.076,6.785-2.009,7.699-6.128c6.334,3.24,11.469,8.153,16.343,13.06
				c16.66,16.773,33.023,33.86,48.169,52.037c9.555,11.467,21.134,20.924,31.086,31.957c3.385,3.753,8.509,0.376,12.103,4.654
				c3.256,3.875,6.646,6.917,6.17,12.384c-0.149,1.718,0.002,3.476,1.224,4.836c4.741,5.276,4.975,11.78,5.1,18.324
				c-4.928-2.342-10.178-1.047-15.286-1.35c5.683-4.024,9.436-8.306,3.015-14.931c-1.938-1.999-1.484-5.05-1.438-7.72
				c0.043-2.516-1.121-4.161-3.382-5.067c-2.273-0.911-3.567,0.708-5.043,1.981c-29.27,25.249-54.509,54.043-75.805,86.284
				c-3.117,4.719-5.824,9.709-9.569,15.999c6.929-2.155,11.183-1.479,13.347,4.408c1.424,3.875,3.132,2.556,4.897-0.094
				c13.344-20.034,27.85-39.194,43.458-57.523c4.116-4.833,8.601-9.171,14.618-11.594c-1.128,5.471-6.245,7.703-9.435,11.489
				c-3.886,4.611-8.429,8.729-9.365,15.133c-7.877,11.532-15.787,23.029-24.712,33.81c-3.608,4.359-8.019,8.696-6.043,15.38
				c-1.596,1.45-3.191,2.896-4.786,4.342c-0.875-0.714-2.083-2.226-2.573-2.021c-5.85,2.447-9.858,0.596-12.513-4.89
				c-1.112-2.297-3.19-1.549-5.056-1.77c-8.201-0.972-10.606-5.561-6.863-12.992c0.744-1.476,2.115-2.651,0.064-4.307
				c-4.627-3.735-9.104-7.657-14.547-12.271c0.459,3.9,0.427,6.604,1.139,9.095c1.832,6.414,3.014,12.933,5.432,19.312
				c2.073,5.468,2.382,11.508,6.303,16.612c1.887,2.456-0.771,4.894-3.232,6.296c-1.922,1.094-5.129,1.157-3.523,4.805
				c-2.372,0.179-4.744,0.358-7.116,0.537c-8.379,2.304-16.693,4.887-25.149,6.859c-23.618,5.508-47.292,10.783-70.955,16.098
				c-3.743,0.841-7.355,1.556-5.207,6.801c-2.255,0.217-4.509,0.434-6.764,0.651c-1.516-2.558-2.053-5.34-6.265-5.994
				c-6.348-0.985-9.183-5.742-8.48-12.306c0.199-1.859,1.636-3.984-0.087-5.557c-8.334-7.602-2.219-14.383,1.714-20.593
				c1.614-2.548,1.945-4.153,1.669-6.908c-4.171-41.632-14.208-82.303-20.085-123.648c-0.991-6.975-1.575-14.023-1.99-21.059
				c-0.257-4.345-0.127-8.824,3.842-11.926c4.44,5.233,8.947,5.545,13.528,0.174c7.072-2.534,14.176-4.979,21.208-7.618
				C876.22,847.895,913.684,835.31,942.56,806.658z M833.909,890.109c0.317,0.235,0.808,0.736,0.923,0.661
				c0.815-0.531,0.3-0.966-0.211-1.361c-0.118-0.469-0.169-0.968-0.365-1.401c-6.415-14.201-6.423-14.223-21.445-10.276
				c-9.73,2.557-3.518,9.432-3.345,14.192c0.244,6.698,4.457,1.423,6.619,1.185C822.061,892.452,827.967,891.159,833.909,890.109z
				 M1042.064,906.195c-0.175-2.686-1.961-3.799-3.26-5.152c-11.285-11.749-23.717-22.409-33.644-35.447
				c-1.582-2.078-3.218-2.487-5.581-0.98c-6.549,4.176-12.93,2.513-19.366-0.669c-9.806-4.848-17.944-11.696-24.602-20.25
				c-3.729-4.791-6.975-5.103-11.19-0.615c-2.983,3.176-6.472,5.912-9.924,8.604c-8.094,6.313-16.688,11.833-26.371,15.435
				c-2.336,0.869-5.098,1.511-6.253-1.521c-1.129-2.965,1.081-4.329,3.576-5.281c2.27-0.866,4.513-1.828,6.692-2.901
				c3.011-1.482,6.976-2.799,3.439-7.229c-2.843-3.56-2.511-11.737-11.016-7.515c-7.839,3.892-15.908,7.331-23.942,10.819
				c-3.141,1.364-4.669,2.593-2.734,6.448c5.81,11.575,9.407,23.982,12.564,36.498c2.797,11.085,5.296,22.225,12.029,31.855
				c7.253,10.373,14.469,20.783,21.305,31.431c3.118,4.856,5.636,5.927,10.013,1.45c2.349-2.403,6.054-6.644,9.144-3.166
				c3.82,4.3-2.01,6.325-4.467,8.864c-1.725,1.784-5.237,2.916-1.781,6.129c7.667,7.127,15.427,14.156,22.988,21.393
				c3.098,2.966,4.623,1.826,6.671-1.234c20.536-30.679,43.701-59.093,72.106-82.952
				C1039.905,908.998,1041.011,907.384,1042.064,906.195z M924,977.549c-2.323-0.134-5.839-0.807-3.651-4.332
				c2.236-3.603,0.31-5.355-1.271-7.636c-4.159-6-8.489-11.883-12.581-17.927c-9.966-14.721-19.623-29.426-22.806-47.617
				c-1.742-9.957-5.581-19.62-9.133-29.171c-4.835-13-5.105-12.9-18.149-7.653c-10.693,4.301-10.783,4.925-4.028,14.342
				c2.041,2.846,4.096,3.724,7.393,2.58c2.742-0.952,5.623-1.544,8.479-2.109c2.051-0.405,4.164,0.026,4.861,2.208
				c0.726,2.274-1.072,3.516-2.846,4.499c-12.068,6.691-19.818,4.523-26.63-7.462c-0.842-1.48-1.547-3.04-2.414-4.504
				c-0.805-1.359-1.177-3.377-3.665-2.333c-2.587,1.086-2.238,3.104-1.419,4.859c1.849,3.963,4.141,7.719,6.004,11.676
				c1.426,3.028,2.622,6.225-2.699,6.808c-7.126,0.781-9.841,4.83-8.687,11.729c1.997,11.951,5.037,23.867,2.155,36.139
				c-1.077,4.584-2.057,10.252-6.91,11.171c-7.448,1.41-6.475,5.123-4.91,10.184c0.854,2.762,1.107,5.721,1.523,8.606
				c2.456,17.058,4.861,34.122,7.33,51.178c0.461,3.183,0.554,6.194,5.697,4.961c32.83-7.872,65.581-16.436,99.8-15.319
				c3.956,0.129,4.181-1.839,3.378-5.156c-1.827-7.549-3.493-15.152-4.794-22.807C933.061,978.778,931.053,975.284,924,977.549z
				 M943.531,1023.514c1.078-4.054-2.055-4.53-5.526-4.508c-36.505,0.232-71.751,8.333-106.863,17.202
				c-6.887,1.74-8.794,7.361-4.867,13.315c1.359,2.061,2.104,4.145,1.664,6.838c-1.341,8.227,0.908,10.124,8.962,8.257
				c13.722-3.181,27.29-6.951,41.068-9.967c20.598-4.51,41.668-7.271,61.379-15.468c5.148-2.141,9.812-3.537,4.259-9.963
				C942.472,1027.904,942.694,1025.993,943.531,1023.514z M990.192,859.848c2.006,0.399,4.18-0.325,5.528-2.11
				c1.617-2.14-0.655-3.535-1.806-4.885c-12.95-15.188-27.888-28.461-41.555-42.963c-1.991-2.113-3.521-0.005-4.876,1.248
				c-4.281,3.961-8.012,8.751-12.845,11.823c-6.668,4.239-7.209,8.176-2.969,14.592c2.94,4.449,4.572,3.585,7.511,0.526
				c4.526-4.71,9.321-9.162,14.012-13.713c1.675-1.625,3.708-2.905,5.805-1.254c2.156,1.697,1.647,4.216-0.194,5.711
				c-4.466,3.627-1.807,5.996,0.992,8.692c4.374,4.213,8.447,8.748,12.944,12.821C977.651,854.785,983.356,858.025,990.192,859.848z
				 M817.994,948.949c5.347-1.763,7.204-4.88,7.769-9.498c1.44-11.767-0.425-23.182-2.828-34.605
				c-0.579-2.754-0.851-5.898-4.685-4.541c-3.076,1.089-8.109,0.921-7.268,6.332C813.166,920.705,815.618,934.73,817.994,948.949z
				 M920.172,834.164c-1.577,0.1-2.793,0.831-3.407,2.276c-0.364,0.856,6.586,13.015,7.43,12.979
				c1.778-0.076,3.325-0.97,4.162-2.488C929.146,845.501,921.802,834.292,920.172,834.164z"/>
			<path style="fill:#C66A3F;" d="M674.56,1119.362c2.553-1.686,5.055,0.389,7.588,0.104c-1.219,9.626-2.442,19.253-3.656,28.881
				c-2.611,20.699-5.219,41.399-7.824,62.1c-0.231,1.839-0.017,3.615,2.214,3.887c4.736,0.578,4.401,4.002,4.965,7.505
				c2.683,16.64,6.751,32.881,15.536,47.547c0.911,1.521,1.639,3.526,4.988,2.55c-7.135-12.356-8.583-25.989-11.279-39.233
				c-2.416-11.869-5.653-23.685-4.991-36.008c0.14-2.596,0.552-5.215,3.767-5.195c2.72,0.017,3.537,2.311,3.506,4.692
				c-0.209,16.236,5.306,31.585,7.295,47.456c2.458,19.608,12.464,32.862,31.005,39.481c10.771,3.846,21.783,7.017,32.553,10.867
				c6.028,2.155,10.992-0.569,16.127-2.546c2.808-1.081,2.495-3.925,2.074-6.372c-0.403-2.341-2.032-3.191-4.29-2.889
				c-8.304,1.111-16.503-0.187-24.473-2.016c-20.956-4.81-37.567-14.784-42.436-37.876c-3.583-16.989-4.203-34.216-4.554-51.47
				c-0.058-2.854,0.139-6.615,4.102-6.453c3.645,0.149,2.978,3.732,3.17,6.344c0.998,13.562,0.879,27.207,2.925,40.688
				c2.171,14.312,5.766,27.752,20.403,34.886c14.41,7.023,29.554,9.675,45.407,7.886c4.438-0.501,8.275-2.64,10.183-7.298
				c1.565-3.82,1.285-6.508-3.138-7.878c-13.152-4.075-23.688-12.474-33.588-21.477c-10.356-9.417-18.537-20.454-15.804-35.714
				c2.926-16.333,8.131-32.031,14.406-47.386c1.232-3.015,3.499-3.138,5.972-2.747c11.335,1.792,22.459,4.351,32.714,9.768
				c11.603,6.129,14.287,13.748,9.459,26.043c-1.952,4.97-4.042,9.988-5.089,15.182c-0.923,4.581-2.192,10.025,3.436,13.024
				c5.388,2.871,10.559,2.436,15.777-1.108c11.092-7.532,13.695-19.45,17.099-31.157c3.25-11.178,0.664-20.735-7.113-28.95
				c-4.209-4.447-9.579-7.5-15.041-10.219c-10.458-5.206-19.156-12.668-26.357-21.647c-6.663-8.309-13.424-16.813-14.733-28.042
				c1.966-0.867,3.302-2.965,5.73-2.928c7.948,21.729,21.69,38.257,42.849,48.363c4.32,2.063,8.514,4.68,11.564,8.63
				c0.52,0.509,1.039,1.018,1.559,1.526c0,0-0.092-0.129-0.092-0.129c-0.02,3.126,0.768,5.64,4.495,5.926
				c0,0-0.073-0.073-0.073-0.073c1.29,6.379,2.903,12.66,5.601,18.615c-1.728,17.794-5.691,34.466-21.183,46.043
				c-7.022,5.247-14.359,5.651-22.052,2.701c-6.239-2.393-9.504-6.947-9.461-14.08c0.05-8.281,2.515-15.76,5.694-23.209
				c4.328-10.141,2.885-13.697-7.055-18.546c-7.269-3.546-14.873-5.99-22.895-7.192c-3.299-0.494-5.211,0.009-6.614,3.662
				c-4.641,12.083-7.997,24.523-11.059,37.048c-1.903,7.782-0.148,14.944,4.786,21.342c9.883,12.815,22.253,22.332,37.081,28.85
				c4.212,1.851,11.021,2.028,11.151,7.862c0.164,7.341-0.453,15.515-8.592,19.461c-3.508,1.701-3.555,3.563-2.653,6.895
				c1.734,6.403-1.127,11.047-7.113,13.401c-6.33,2.49-12.764,4.916-19.815,2.369c-1.983-0.716-4.166-1.197-5.567,1.607
				c-3.341,6.687-9.407,6.117-15.258,4.956c-3.046-0.605-5.98-2.103-8.778-3.556c-5.631-2.925-10.665-6.376-14.078,3.148
				c-1.468,4.097-6.73,4.203-11.065,3.207c-13.69-3.148-22.895-12.242-30.713-23.167c-14.418-20.148-13.726-42.433-11.179-65.829
				C665.791,1187.371,670.719,1153.436,674.56,1119.362z M669.872,1224.62c-4.01,19.302-3.86,37.464,6.979,54.034
				c6.822,10.43,14.046,20.476,26.91,24.352c3.496,1.054,5.71-0.026,7.104-3.097c1.261-2.779-0.096-4.468-2.567-5.86
				c-15.992-9.008-24.793-23.576-30.347-40.351C674.855,1244.342,672.638,1234.693,669.872,1224.62z M700.853,1275.216
				c-0.38,2.025-0.695,2.705-0.514,2.884c11.744,11.595,26.712,17.271,41.83,22.656c0.428,0.152,1.031,0.139,1.438-0.047
				c0.823-0.375,1.911-0.743,2.273-1.435c0.713-1.365-0.262-2.333-1.524-2.701C728.831,1292.04,713.529,1287.026,700.853,1275.216z"
				/>
			<path style="fill:#C66A3F;" d="M1146.984,935.127c2.676-0.597,5.352-1.195,8.027-1.79c6.589,6.402,8.771,14.995,11.477,23.292
				c4.212,12.914,5.679,26.689,12.569,38.775c5.826,10.218,14.115,18.585,20.663,28.236c2.882,4.248,6.864,7.002,11.36,8.843
				c17.284,7.08,35.404,5.841,53.322,4.105c8.223-0.796,13.364-6.847,13.291-12.407c-0.102-7.813-5.226-13.694-13.53-15.9
				c-11.054-2.937-22.192-5.665-32.53-10.767c-4.709-2.324-8.742-5.53-10.74-10.486c-4.39-10.887-6.522-22.371-8.397-33.901
				c-0.466-2.866,0.77-5.075,3.394-5.624c2.543-0.533,4.365,1.702,4.418,3.886c0.144,6.013,3.009,3.97,6.489,2.994
				c16.012-4.49,26.681-1.953,35.91,11.07c6.668,9.409,9.18,20.341,13.65,30.543c2.35,5.364,4.745,10.531,11.524,13.851
				c-1.548-7.097-3.111-13.101-4.14-19.195c-3.554-21.058-5.152-42.795-21.748-59.049c-1.116-1.093-1.65-2.49-0.545-3.911
				c0.988-1.27,2.441-1.549,3.96-1.317c2.362,0.362,3.752,2.185,5.253,3.747c9.127,9.498,13.448,21.365,15.936,33.902
				c3.401,17.137,5.164,34.623,11.738,51.044c1.334,3.332,2.776,6.317,6.504,7.249c3.602,0.9,5.962,0.323,4.444-4.316
				c-3.822-11.685-3.032-24.041-5.131-35.977c-3.403-19.349-9.158-37.498-21.49-53.574c-7.347-9.578-15.887-8.947-25.239-7.141
				c-4.929,0.952-9.532,3.583-14.286,5.449c-1.805,0.708-3.574,1.767-5.44,1.994c-2.116,0.257-3.676-1.245-4.406-3.2
				c-0.637-1.706,0.563-2.683,1.92-3.429c21.823-12,43.607-12.918,64.904,0.984c12.93,8.441,21.791,20.721,29.578,33.801
				c5.25,8.819,10.911,17.416,18.752,24.102c7.546,6.433,11.452,5.074,15.266-3.999c7.629-18.149-1.866-46.297-17.011-59.873
				c-19.705-17.664-43.16-28.763-67.821-37.74c-19.628-7.144-39.311-14.025-59.641-18.917c1.871-1.626,1.346-3.885,1.57-5.946
				c17.193,1.424,33.059,7.712,49.004,13.578c20.772,7.642,41.291,15.657,60.4,27.286c23.625,14.377,39.6,33.353,43.485,61.396
				c1.438,10.374-0.952,19.829-5.898,28.768c-2.405,4.346-6.316,6.805-11.382,6.659c-3.163-0.091-4.26,1.301-4.598,4.204
				c-0.563,4.832-1.191,9.673-2.148,14.439c-2.858,14.239-15.974,22.005-29.603,17.181c-3.116-1.103-5.167,0.205-7.58,0.911
				c-8.184,2.396-13.849,1.062-18.569-5.817c-2.479-3.613-5.906-3.43-9.228-4.795c1.084,16.078-6.19,24.687-22.366,26.3
				c-14.113,1.407-28.242,1.228-42.224-1.483c-11.406-2.211-20.526-7.902-28.134-16.948c-15.816-18.804-27.472-39.354-31.712-63.918
				C1158.512,952.189,1154.061,942.888,1146.984,935.127z M1293.241,928.542c6.215,10.591,10.732,21.66,14.052,33.323
				c4.289,15.065,5.427,30.555,7.129,45.98c0.945,8.562,5.63,14.258,12.577,14.823c6.843,0.556,13.857-5.753,15.316-13.966
				c0.976-5.49,1.702-11.025,2.584-16.532c0.327-2.042,0.169-3.975-1.446-5.392c-12.515-10.981-19.362-26.135-29.028-39.211
				C1308.737,939.873,1302.639,932.46,1293.241,928.542z M1270.606,1002.021c-4.508-11.663-7.289-22.824-13.919-32.346
				c-7.466-10.723-20.487-13.392-31.575-6.566c-1.227,0.755-2.447,1.327-2.665,3.122c-0.962,7.893,7.315,22.81,14.793,25.779
				C1247.627,996.133,1258.274,999.487,1270.606,1002.021z"/>
			<path style="fill:#5C473E;" d="M877.171,586.66c-4.365,2.842-9.342,4.477-14.304,5.236c-20.595,3.148-40.217,9.574-59.565,16.959
				c-3.3,1.26-5.427,0.387-7.926-1.558c-3.999-3.112-7.909-6.738-13.69-5.68c-2.482-4.439-4.964-8.877-7.446-13.315
				c7.695-15.835,14.891-31.83,13.08-50.108c-0.862-8.703-1.381-17.542-3.408-25.995c-1.625-6.776-0.062-10.81,6.023-13.506
				c9.744,15.284,24.776,24.092,40.51,31.311c23.291,10.687,44.304,24.505,62.978,41.906c2.635,2.456,8.965,5.3,5.021,9.536
				c-4.154,4.462-7.008-2.001-9.728-4.392c-17.097-15.029-35.023-28.722-56.163-37.752c-5.797-2.476-11.312-5.613-16.957-8.446
				c-0.696-0.976-1.477-1.66-2.708-0.781c0.482,0.674,0.965,1.349,1.447,2.023c18.615,16.062,37.237,32.117,55.839,48.195
				C872.56,582.355,874.841,584.535,877.171,586.66z"/>
			<path style="fill:#C66A3F;" d="M789.935,498.694c-6.085,2.696-7.649,6.73-6.023,13.506c2.028,8.453,2.546,17.292,3.408,25.995
				c1.81,18.278-5.386,34.273-13.08,50.108c-1.95,2.461-3.787,5.023-5.87,7.365c-10.464,11.767-22.045,21.862-38.213,24.897
				c-12.626-0.382-25.169-0.346-37.81-2.458c-16.593-2.772-28.642-12.777-41.091-22.331c-3.874-2.973-6.411-4.891-11.296-2.109
				c-6.283,3.578-13.481,3.697-20.635,3.475c-3.575-0.111-7.316-1.059-10.748,0.932c-17.638-7.979-27.767-27.282-25.975-49.411
				c0.192-2.378,1.287-4.746,0.204-7.163c4.165-5.5,8.395-10.876,16.37-10.411c2.676,0.156,5.463-0.022,6.727,3.126
				c-8.941,0.439-14.757,5.278-15.806,13.962c-1.878,15.549,2.926,28.932,14.652,39.356c5.551,4.935,12.32,6.293,19.792,4.125
				c5.999-1.74,10.951-5.334,16.06-8.503c4.292-2.662,6.355-1.943,9.688,1.627c16.321,17.481,36.416,29.622,60.271,30.825
				c38.644,1.949,62.921-28.569,69.185-64.189c3.772-21.446-0.995-42.818-9.797-63.177c-5.77-13.346-11.685-26.616-17.739-39.83
				c1.308-8.343,7.719-12.477,13.884-16.812c14.734,0.471,26.123,10.923,30.154,27.938c2.749,11.603,1.342,22.732-4.819,33.04
				C790.234,494.576,789.412,496.402,789.935,498.694z M777.255,443.379c-3.791-5.021-8.478-5.733-13.195-1.82
				c-4.47,3.708-3.466,8.126-0.707,13.463c4.251-5.643,5.907-12.674,13.888-11.625c0.568,3.403-0.796,5.961-3.042,8.498
				c-3.136,3.543-4.125,7.033,1.267,9.929c3.262,1.752,5.048,5.196,6.874,8.334c1.183,2.033,1.28,4.357-0.939,5.821
				c-2.217,1.463-3.431-0.674-4.908-1.821c-1.961-1.523-2.036-5.107-6.443-5.107c2.999,7.487,5.812,14.569,8.675,21.63
				c1.305,3.22,2.843,2.472,4.74,0.356c4.457-4.969,5.625-11.185,6.661-17.385C791.947,462.75,785.581,448.066,777.255,443.379z"/>
			<path style="fill:#C66A3F;" d="M834.367,1077.143c2.255-0.217,4.509-0.434,6.767-0.647c0.727,2.051,1.676,4.048,2.141,6.153
				c8.797,39.856,17.807,79.673,29.222,118.871c7,24.036,15.372,47.667,23.025,71.504c7.867,24.504,19.036,46.544,37.712,64.598
				c20.597,19.911,42.017,38.944,61.639,59.906c26.288,28.084,54.678,53.975,85.381,77.247c-3.003,2.519-6.574,3.137-10.344,3.091
				c-7.839-9.048-17.767-15.76-26.734-23.52c-20.115-17.407-39.225-35.806-57.426-55.173c-13.025-13.86-26.362-27.405-40.728-39.882
				c-11.808-10.256-22.912-21.362-32.71-33.371c-9.171-11.241-15.202-24.751-19.956-38.711
				c-14.741-43.291-29.155-86.678-39.806-131.196C846.271,1129.774,840.413,1103.436,834.367,1077.143z"/>
			<path style="fill:#C66A3F;" d="M1055.168,936.432c5.109,0.303,10.358-0.991,15.286,1.35c7.041,9.414,15.958,16.981,24.328,25.127
				c35.798,34.843,71.405,69.882,106.933,105c9.461,9.352,15.28,21.383,21.857,32.699c18.826,32.389,34.39,66.452,50.804,100.094
				c13.018,26.681,24.629,53.936,36.528,81.089c0.787,1.797,1.43,3.641,3.452,4.452c-2.074,1.982-3.954,4.283-7.179,4.381
				c-1.887-1.422-2.236-3.667-3.098-5.659c-8.597-19.862-16.537-40.047-26.002-59.488c-19.062-39.153-36.229-79.271-58.359-116.889
				c-8.861-15.064-17.502-30.11-30.512-42.456c-23.485-22.288-45.854-45.739-69.514-67.873
				c-7.269-6.801-13.455-14.758-20.712-21.573c-10.97-10.304-23.016-19.506-32.495-31.315c-3.606-4.493-6.457-3.89-10.872-0.997
				c-13.11,8.591-24.222,19.372-35.148,30.422c0.935-6.404,5.479-10.522,9.365-15.133c3.191-3.786,8.307-6.018,9.435-11.489
				c0,0-0.05,0.036-0.05,0.036c0.961-0.035,1.476-0.532,1.544-1.491l-0.066,0.05c1.404,0.261,2.375-0.289,2.952-1.575l-0.064,0.071
				c0.726-0.529,1.452-1.059,2.178-1.588C1048.149,940.295,1052.028,938.843,1055.168,936.432z"/>
			<path style="fill:#5E4A43;" d="M1083.238,709.869c-14.127,0.486-14.36,0.472-14.695-13.417c-0.134-5.544-1.396-8.33-7.568-6.696
				c-6.472,1.713-11.042-1.535-13.772-6.915c-4.052-7.985-8.763-13.867-18.914-14.503c-6.748-0.423-15.296-15.542-14.211-22.543
				c0.239-1.543,0.616-2.837,2.348-3.241c1.964-0.459,3.354,0.197,4.018,2.126c0.632,1.834,1.193,3.692,1.771,5.544
				c2.271,7.274,6.082,12.284,14.736,12.541c7.643,0.226,10.99,6.568,14.024,12.401c2.865,5.507,5.939,8.549,13.059,7.019
				c7.853-1.687,11.586,2.382,11.585,12.503c0,6.729,1.064,9.903,8.714,7.81c4.488-1.228,8.617,1.449,9.897,5.661
				c2.609,8.586,8.964,12.115,16.69,14.362c2.767,0.805,5.525,1.984,4.322,5.397c-1.23,3.488-4.22,2.324-6.811,1.464
				c-8.661-2.876-17.165-5.863-19.753-16.222C1088,710.452,1085.907,709.273,1083.238,709.869z"/>
			<path style="fill:#5E4A43;" d="M855.326,1270.284c3.241,0.341,3.706,3.056,3.637,5.789c-0.286,11.224,3.567,21.457,7.453,31.668
				c2.974,7.813,6.791,15.049,14.346,19.599c4.105,2.472,5.108,6.971,6.327,11.126c2.59,8.828,7.545,14.952,17.002,17.044
				c5.714,1.264,9.588,5.405,13.044,9.965c2.749,3.627,4.694,7.941,9.053,10.255c2.363,1.254,2.574,3.503,0.882,5.538
				c-1.663,2.001-3.774,1.94-5.871,0.544c-3.328-2.215-5.61-5.44-7.651-8.71c-3.771-6.043-8.642-10.227-15.693-12.111
				c-9.401-2.512-14.265-9.652-16.974-18.425c-1.622-5.251-3.774-9.825-8.846-12.743c-2.016-1.159-3.752-3.215-4.994-5.242
				c-9.146-14.935-15.081-30.936-15.299-48.679C851.695,1271.983,852.735,1270.491,855.326,1270.284z"/>
			<path style="fill:#5E4A43;" d="M650.242,990.896c-0.56,2.527,0.293,4.857,1.242,7.075c2.148,5.02,1.557,9.513-2.293,13.414
				c-1.694,1.716-2.784,3.136-0.851,5.528c5.762,7.127,3.086,13.449-1.991,19.641c-6.356,7.753-6.584,9.249,0.924,16.264
				c6.313,5.9,8.315,11.753,5.015,20.015c-1.746,4.37-1.436,9.536-2.266,14.305c-0.45,2.586-1.844,4.893-4.919,3.93
				c-2.481-0.778-2.744-3.096-2.108-5.476c1.629-6.101,0.461-12.692,3.174-18.592c1.103-2.399,0.335-4.125-1.353-5.863
				c-2.199-2.263-4.446-4.528-6.313-7.057c-6.06-8.209-6.048-12.357,0.527-20.082c4.295-5.046,7.342-9.508,1.431-15.662
				c-2.803-2.917-2.129-7.015,1.171-9.729c3.589-2.952,4.121-6.169,2.33-10.286c-1.061-2.44-1.714-5.141-1.074-7.843
				c0.652-2.754,0.803-6.656,4.621-6.377C651.735,984.409,650.893,987.966,650.242,990.896z"/>
			<path style="fill:#5E4A43;" d="M750.29,1343.489c-2.583-0.515-5.862-0.666-8.723-1.839c-7.122-2.919-14.002-3.472-21.013,0.201
				c-1.239,0.649-3.017,1.186-4.243,0.803c-18.243-5.698-38.775-7.382-49.054-27.353c-0.667-1.295-1.449-2.55-1.949-3.908
				c-0.669-1.818-0.098-3.449,1.604-4.362c1.745-0.937,3.354-0.345,4.478,1.214c1.707,2.368,3.257,4.849,4.97,7.213
				c5.967,8.235,13.368,14.094,24.08,14.555c1.411,0.061,2.971,0.453,4.162,1.182c7.222,4.42,14.38,4.596,22.066,0.918
				c4.184-2.002,8.57,0.2,12.806,1.273c3.989,1.01,8.067,1.672,12.047,2.713c2.477,0.647,5.734,0.959,5.166,4.784
				C756.14,1344.573,753.059,1343.164,750.29,1343.489z"/>
			<path style="fill:#C66A3F;" d="M1271.991,853.573c-11.129,1.315-19.811-0.79-26.755-8.102c-2.022-2.129-4.638-4.691-1.778-7.471
				c2.614-2.54,4.888,0.033,6.696,2.039c4.823,5.353,11.024,7.415,17.846,6.257c13.707-2.325,24.285,2.88,33.154,12.687
				c4.104,4.538,9.219,7.056,15.038,8.361c3.856,0.865,7.446,2.322,10.498,4.81c1.523,1.242,2.707,2.931,1.335,5.087
				c-1.33,2.089-2.964,1.847-5.038,0.978c-11.799-4.942-24.057-8.753-32.883-19.162
				C1285.233,853.314,1278.027,852.116,1271.991,853.573z"/>
			<path style="fill:#C66A3F;" d="M1250.881,1060.716c2.776-5.23,7.021-3.155,10.776-1.87c5.495,1.881,10.808,4.288,16.233,6.38
				c4.291,1.655,7.747,0.853,9.251-3.928c1.67-5.309,5.198-6.506,10.183-5.14c6.877,1.885,12.657,0.713,17.704-4.976
				c5.092-5.739,14.716-5.321,18.712-13.068c0.566-1.098,2.778-0.971,4.005,0.043c1.496,1.236,1.551,2.865,0.691,4.608
				c-2.354,4.769-5.759,8.409-10.913,10.1c-2.538,0.832-5.258,1.322-7.12,3.411c-5.956,6.683-13.049,10.077-22.071,7.557
				c-5.675-1.585-5.022,5.095-8.54,6.231C1276.341,1068.954,1263.411,1065.669,1250.881,1060.716z"/>
			<path style="fill:#5E4A43;" d="M657.529,921.281c1.317,12.801-3.917,27.287-2.969,42.176c0.134,2.1-0.737,3.905-3.205,4.084
				c-3.048,0.221-3.709-2.145-3.796-4.309c-0.176-4.362-0.562-8.857,0.238-13.09c2.731-14.456,2.38-29.001,2.112-43.571
				c-0.031-1.686-0.067-3.479,0.448-5.042c0.759-2.304,1.938-4.917,5.014-4.198c3.16,0.738,2.494,3.207,2.285,5.831
				C657.232,908.466,657.529,913.829,657.529,921.281z"/>
			<path style="fill:#C66A3F;" d="M818.338,1245.233c-1.218-0.059-2.472,0.049-3.645-0.21c-2.739-0.605-6.652-0.438-6.404-4.434
				c0.272-4.376,4.021-3.44,6.811-2.886c6.891,1.367,10.206-1.482,12.013-8.163c1.89-6.987,6.729-12.899,8.394-20.116
				c0.537-2.327,2.28-4.109,4.848-3.083c2.398,0.958,2.362,3.062,1.791,5.548c-2.311,10.064-7.764,18.807-11.749,28.145
				C828.406,1244.696,823.226,1245.442,818.338,1245.233z"/>
			<path style="fill:#5E4A43;" d="M883.65,1370.611c1.591,0.107,2.565,1.169,3.587,2.227c4.212,4.364,8.883,8.177,14.005,11.427
				c2.141,1.358,4.441,3.028,2.89,5.738c-1.796,3.138-4.561,1.757-6.908,0.302c-5.779-3.581-11.056-7.809-15.562-12.903
				c-1.211-1.369-2.506-3.134-1.094-5.227C881.295,1371.098,882.356,1370.609,883.65,1370.611z"/>
			<path style="fill:#5E4A43;" d="M1132.049,741.201c3.797,3.792,10.547,3.463,14.043,8.612c0.874,1.287,0.665,2.771-0.461,3.997
				c-0.916,0.997-2.202,1.395-3.299,0.911c-3.962-1.746-7.953-3.491-11.688-5.658c-1.954-1.134-2.709-3.416-1.954-5.772
				C1129.091,742.045,1130.184,741.474,1132.049,741.201z"/>
			<path style="fill:#C66A3F;" d="M1328.563,860.775c-6.07-2.325-11.113-6.842-17.741-8.073c-2.037-0.378-3.171-2.376-2.397-4.589
				c0.8-2.284,2.924-2.69,4.852-2.05c3.377,1.12,7.313,0.952,9.934,3.973c0.529,0.527,1.058,1.054,1.587,1.58l-0.092-0.112
				C1325.763,854.689,1329.82,856.627,1328.563,860.775z"/>
			<path style="fill:#C66A3F;" d="M1250.881,1060.716c12.529,4.953,25.46,8.238,38.912,9.349c-4.252,5.119-9.506,3.454-14.634,2.064
				c-7.568-2.052-13.973-7.614-22.47-7.111C1250.541,1065.143,1249.626,1062.957,1250.881,1060.716z"/>
			<path style="fill:#5E4A43;" d="M774.04,1315.868c2.36,0.171,3.71,1.044,3.968,2.507c0.731,4.144-3.044,5.581-5.187,8
				c-1.928,2.177-4.207,3.323-7.052,2.155c-2.186-0.897-3.024-3.456-1.737-4.734C767.166,1320.684,770.961,1318.236,774.04,1315.868
				z"/>
			<path style="fill:#C66A3F;" d="M1328.563,860.775c1.257-4.147-2.8-6.085-3.857-9.27c5.473,1.281,9.02,5.33,12.688,9.079
				c1.943,1.986,4.98,4.691,2.073,7.403c-3.514,3.279-5.325-0.728-7.278-2.994c-0.127-1.351-0.411-2.587-2.036-2.874
				c0,0,0.056,0.126,0.057,0.124c0.032-1.012-0.364-1.614-1.469-1.536L1328.563,860.775z"/>
			<path style="fill:#C66A3F;" d="M1362.03,1024.816c-0.865,3.492-1.609,7.284-6.075,7.818c-2.265,0.271-3.851-1.528-3.195-3.674
				c1.005-3.287,1.628-7.367,6.042-7.972C1361.196,1020.66,1362.012,1022.585,1362.03,1024.816z"/>
			<path style="fill:#C66A3F;" d="M838.497,1174.501c-2.699-5.955-4.311-12.237-5.601-18.615
				C837.561,1161.249,839.427,1167.455,838.497,1174.501z"/>
			<path style="fill:#D2957A;" d="M647.21,753.486c-0.97-6.462-0.323-12.899,0.765-19.398c0.613,6.438,1.226,12.876,1.839,19.311
				C648.945,753.426,648.077,753.456,647.21,753.486z"/>
			<path style="fill:#C66A3F;" d="M832.969,1155.959c-3.727-0.286-4.515-2.799-4.495-5.926
				C830.564,1151.56,832.166,1153.456,832.969,1155.959z"/>
			<path style="fill:#D2957A;" d="M1092.015,1578.864c-0.55-2.13,0.707-3.601,1.912-5.258c1.93,1.839,1.467,3.51-0.088,5.173
				C1093.232,1578.807,1092.624,1578.835,1092.015,1578.864z"/>
			<path style="fill:#C66A3F;" d="M1330.153,862.119c1.625,0.287,1.909,1.523,2.036,2.874
				C1330.994,864.403,1330.016,863.656,1330.153,862.119z"/>
			<path style="fill:#5E4A43;" d="M1324.798,851.616c-0.529-0.527-1.058-1.053-1.587-1.58
				C1324.021,850.279,1324.964,850.391,1324.798,851.616z"/>
			<path style="fill:#C66A3F;" d="M1328.741,860.707c1.105-0.078,1.501,0.523,1.469,1.536
				C1329.182,862.246,1328.548,861.87,1328.741,860.707z"/>
			<path style="fill:#5E4A43;" d="M828.566,1150.162c-0.52-0.509-1.039-1.017-1.559-1.526
				C827.527,1149.145,828.047,1149.654,828.566,1150.162z"/>
			<path style="fill:#D2957A;" d="M1020.466,974.796c10.925-11.05,22.037-21.831,35.148-30.422
				c4.415-2.893,7.266-3.496,10.872,0.997c9.478,11.809,21.525,21.011,32.495,31.315c7.257,6.816,13.442,14.773,20.712,21.573
				c23.66,22.134,46.029,45.585,69.514,67.873c13.01,12.346,21.65,27.392,30.512,42.456c22.13,37.618,39.297,77.736,58.359,116.889
				c9.465,19.441,17.405,39.626,26.002,59.488c0.862,1.992,1.211,4.237,3.098,5.659c3.107,7.867-2.147,11.606-7.269,16.014
				c-26.998,23.239-59.02,35.732-92.937,44.492c-4.566,1.179-7.427,0.505-9.575-3.526c-4.565-13.145-11.526-25.187-17.433-37.712
				c-16.071-34.079-31.782-68.339-48.508-102.095c-11.868-23.952-23.744-47.878-34.519-72.341
				c-2.667-6.056-5.899-11.724-10.634-16.444c-12.245-12.208-24.068-24.872-36.803-36.544c-15.8-14.481-31.156-29.315-45.325-45.415
				c-4.255-4.835-8.13-10.4-14.461-13.071c-1.977-6.681,2.433-11.018,6.042-15.377
				C1004.679,997.825,1012.59,986.329,1020.466,974.796z"/>
			<path style="fill:#D2957A;" d="M1080.253,1474.774c-30.703-23.272-59.093-49.164-85.381-77.247
				c-19.621-20.961-41.042-39.994-61.639-59.906c-18.676-18.054-29.845-40.094-37.712-64.598
				c-7.653-23.837-16.025-47.467-23.025-71.504c-11.415-39.197-20.425-79.014-29.222-118.871c-0.465-2.104-1.414-4.102-2.141-6.153
				c-2.151-5.248,1.461-5.964,5.204-6.804c23.663-5.315,47.336-10.59,70.955-16.098c8.456-1.972,16.77-4.555,25.149-6.861
				c3.98,10.711,8.299,21.312,11.874,32.158c10.13,30.736,19.641,61.678,29.995,92.337c9.482,28.079,21.805,55.218,27.626,84.504
				c0.356,1.789,1.635,3.571,2.904,4.977c23.632,26.203,47.257,52.413,71.043,78.478c10.015,10.974,21.173,20.843,30.941,32.1
				c4.206,4.847,8.127,10.416,14.503,13.019c5.589,7.027,2.801,14.497,0.067,21.19c-10.64,26.043-26.997,48.253-47.248,67.672
				C1083.054,1474.216,1081.852,1474.968,1080.253,1474.774z"/>
			<path style="fill:#DC5B39;" d="M1542.667,1446.166c-29.142,23.363-43.065,53.938-50.85,87.84
				c-1.024,4.458-2.12,4.764-5.948,4.015c-20.018-3.916-39.739-9.147-59.851-12.733c-13.373-2.385-26.035-1.994-38.737,2.27
				c-18.198,6.109-36.74,8.354-55.922,6.148c-9.139-1.051-18.409-0.148-27.647-1.521c-10.721-1.592-12.391-2.608-12.632-14.092
				c-0.537-25.499-13.938-43.779-32.825-59.025c-1.307-1.055-2.844-2.233-4.416-2.489c-11.782-1.917-16.454-10.28-20.454-20.379
				c-7.179-18.121-16.322-35.34-26.317-52.112c-3.47-5.823-5.82-12.308-8.761-18.453c-2.126-4.439,1.306-5.212,4.064-5.69
				c20.343-3.52,39.077-11.759,58.024-19.409c7.253-2.928,14.359-6.171,20.719-10.717c3.591-2.567,5.662-2.695,7.787,1.673
				c12.203,25.076,28.207,47.817,45.385,69.557c12.579,15.92,30.123,25.969,49.066,33.145c23.499,8.901,48.127,13.849,72.482,19.534
				c14.609,3.41,28.203,0.361,36.765-14.042c1.338-2.25,2.608-4.079,6.302-3.18
				C1513.038,1439.948,1527.309,1442.829,1542.667,1446.166z M1304.179,1406.185c0.047-18.595-9.181-32.147-24.604-39.445
				c-8.929-4.225-16.762-5.338-25.434,1.88c-18.089,15.055-27.922,44.458-4.368,62.672c17.159,13.269,32.351,14.796,45.09-0.732
				C1301.117,1422.937,1303.708,1413.355,1304.179,1406.185z M1393.413,1512.949c5.53,0.13,13.126-5.922,12.627-9.89
				c-0.629-5-5.339-5.761-8.824-5.667c-5.351,0.144-8.814,3.979-9.376,9.316C1387.413,1510.773,1390.298,1512.646,1393.413,1512.949
				z M1352.431,1504.109c0.149,4.977,2.526,7.564,7.221,7.369c5.13-0.212,9.901-1.698,10.271-7.832
				c0.325-5.388-3.48-6.869-8.158-6.732C1356.792,1497.06,1352.563,1498.174,1352.431,1504.109z"/>
			<path style="fill:#DC5B39;" d="M1159.158,1701.775c-15.679-13.943-33.388-20.816-52.638-24.105
				c-10.643-1.819-21.398-0.554-32.098-0.698c-4.695-0.063-6.512-1.005-3.836-5.755c3.703-6.572,7.19-13.267,10.731-19.931
				c1.099-2.068,2.189-3.273,5.069-2.935c6.033,0.709,11.963,3.592,18.216-0.771c7.216-5.036,11.968-11.981,14.374-19.692
				c7.09-22.718,15.997-44.889,20.689-68.357c5.195-25.982,4.022-50.635-12.514-72.889c-4.98-6.703-10.821-12.488-17.204-17.653
				c-5.128-4.149-4.432-7.476-0.735-12.002c10.037-12.286,18.312-25.713,25.678-39.785c4.049-7.734,5.725-16,7.475-24.281
				c1.225-5.801,3.152-5.178,6.869-2.027c4.825,4.091,9.172,8.541,13.385,13.276c13.782,15.489,29.963,28.473,45.387,42.239
				c1.803,1.609,3.482,2.396,3.192,5.69c-2.945,33.455,6.413,63.167,28.161,88.818c2.044,2.411,2.547,3.798,0.845,6.767
				c-9.102,15.884-19.239,31.089-31.973,44.208c-17.079,17.595-27.833,38.355-34.397,61.72
				C1169.381,1669.463,1164.258,1685.127,1159.158,1701.775z M1131.49,1462.108c0.312,23.409,17.546,37.599,35.46,41.562
				c9.051,2.002,26.208-5.24,31.539-15.433c8.325-15.918,1.078-44.398-12.012-53.857c-8.954-6.471-19.02-10.424-30.721-8.277
				C1140.858,1428.835,1131.848,1447.475,1131.49,1462.108z M1206.146,1548.424c-0.443-4.513-3.813-7.785-8.691-8.348
				c-3.759-0.434-6.414,2.323-5.861,6.574c0.698,5.372,3.726,9.374,9.186,9.789
				C1205.01,1556.761,1206.179,1553.093,1206.146,1548.424z M1195.856,1580.398c0.183-5.705-1.995-9.148-6.134-9.822
				c-4.087-0.666-6.215,3.226-6.273,6.511c-0.071,4.042,1.171,8.657,6.536,8.839
				C1194.1,1586.066,1195.74,1583.017,1195.856,1580.398z"/>
			<path style="fill:#FEF8DC;" d="M1052.58,1731.281c0.865-11.88,3.734-25.594,8.261-39.024c1.812-5.376,6.298-7.228,10.651-7.553
				c27.761-2.073,54.409,0.592,77.687,18.406c5.823,4.456,6.393,7.87,2.382,13.407c-18.421,25.428-39.607,47.431-70.078,58.459
				c-12.574,4.551-12.93,4.637-19.826-7.296C1055.559,1757.13,1052.545,1745.736,1052.58,1731.281z"/>
			<path style="fill:#FEF8DC;" d="M1513.253,1540.681c-15.568,0.093-16.363-1.005-12.311-14.754
				c6.307-21.4,15.543-41.302,29.913-58.577c1.708-2.053,3.614-3.956,5.536-5.817c14.748-14.275,25.819-14.688,41.037-0.739
				c7.282,6.674,14.385,13.558,18.732,22.954c4.287,9.268,3.271,18.466,1.632,27.762c-1.207,6.846-6.619,10.719-12.367,13.485
				c-13.621,6.555-27.931,11.193-42.984,13.023C1532.321,1539.25,1522.131,1539.891,1513.253,1540.681z"/>
			<path style="fill:#F2967C;" d="M1259.039,1530.682c13.735,20.87,4.103,30.815-11.958,54.382
				c-7.408,10.871-17.396,19.61-27.417,28.181c-16.706,14.289-24.282,33.678-29.408,54.27c-2.757,11.075-6.163,21.987-7.942,33.314
				c-1.432,9.123-6.635,16.761-11.414,24.303c-16.331,25.769-35.362,48.957-63.536,62.858c-11.851,5.847-17.182,5.251-27.979-3.742
				c1.093-0.658,2.024-1.459,3.103-1.833c29.733-10.312,51.496-30.843,70.213-55.095c9.794-12.69,15.694-27.322,19.899-42.746
				c4.601-16.874,9.237-33.745,16.056-49.935c5.748-13.646,13.666-25.799,23.923-36.406
				C1231.692,1578.469,1245.249,1554.914,1259.039,1530.682z"/>
			<path style="fill:#F2967C;" d="M1576.864,1538.37c-11.939,9.844-26.516,13.996-40.858,18.353
				c-27.6,8.384-54.928,5.697-81.664-3.951c-28.805-10.395-57.757-12.713-87.273-3.453c-20.08,6.3-40.349,4.832-60.676,1.371
				c-6.227-1.06-12.498-2.158-18.788-2.482c-10.217-0.525-16.93-4.849-19.051-16.104c9.426,2.762,18.602,5.399,28.159,6.474
				c32.231,3.624,64.383,7.06,95.884-4.61c16.98-6.29,33.705-1.16,50.233,2.167c19.995,4.025,39.587,10.342,60.088,11.411
				c19.252,1.005,38.328-1.16,57.108-5.558c5.432-1.272,10.771-2.94,16.153-4.426
				C1576.409,1537.828,1576.638,1538.098,1576.864,1538.37z"/>
			<path style="fill:#C66A3F;" d="M949.557,1046.198c8.704,18.035,14.316,37.185,20.083,56.258
				c10.562,34.929,22.879,69.245,35.338,103.528c5.225,14.377,9.323,29.165,13.854,43.79c1.017,3.281,2.327,6.205,4.694,8.87
				c34.144,38.432,68.163,76.976,104.657,113.238c2.226,2.212,4.164,4.714,6.237,7.081c-0.352,2.173-1.228,4.042-3.091,5.343
				c-6.377-2.603-10.299-8.172-14.504-13.019c-9.768-11.258-20.927-21.126-30.941-32.1c-23.785-26.064-47.411-52.274-71.043-78.478
				c-1.269-1.407-2.548-3.188-2.904-4.977c-5.821-29.286-18.144-56.424-27.626-84.504c-10.353-30.659-19.864-61.601-29.995-92.337
				c-3.575-10.846-7.894-21.447-11.874-32.158C944.813,1046.556,947.185,1046.377,949.557,1046.198z"/>
			<path style="fill:#C66A3F;" d="M1188.279,1347.499c-0.027-5.077-2.651-9.369-4.713-13.657
				c-29.732-61.835-60.662-123.122-88.992-185.589c-10.62-23.417-28.511-39.124-45.778-55.906
				c-17.998-17.493-36.924-33.998-52.934-53.464c-3.196-3.885-7.265-7.053-10.934-10.553c1.593-1.448,3.188-2.894,4.784-4.344
				c6.332,2.667,10.207,8.232,14.462,13.068c14.169,16.1,29.525,30.934,45.325,45.415c12.735,11.672,24.558,24.336,36.803,36.544
				c4.735,4.72,7.966,10.388,10.634,16.444c10.775,24.463,22.651,48.389,34.519,72.341c16.726,33.756,32.437,68.015,48.508,102.095
				c5.907,12.526,12.868,24.567,17.433,37.712C1194.357,1347.569,1191.318,1347.534,1188.279,1347.499z"/>
			<path style="fill:#FCF2D6;" d="M1216.694,1461.823c0.002-1.358-0.311-3.782,1.707-4.589c1.736-0.694,2.886,1.449,4.08,2.581
				c6.547,6.204,13.303,12.219,19.457,18.796c4.351,4.651,5.621,11.12,7.767,16.976c1.245,3.398,1.235,7.343,2.847,10.503
				c5.299,10.381,0.237,19.057-3.725,28.091c-1.886,4.3-3.615,1.79-5.281,0.173c-5.499-5.334-9.273-11.882-12.682-18.646
				C1222.41,1498.937,1218.791,1480.873,1216.694,1461.823z"/>
			<path style="fill:#FCF2D6;" d="M1244.563,1461.312c11.728,3.276,18.068,10.965,24.281,18.605
				c10.629,13.071,16.056,28.034,15.675,45.034c-0.075,3.34-0.553,4.056-4.13,3.148c-10.477-2.659-18.413-7.067-20.167-19.227
				C1257.895,1492.741,1250.522,1478.073,1244.563,1461.312z"/>
			<path style="fill:#FCF2D6;" d="M1487.221,1433.277c-7.016,12.295-14.026,16.074-28.26,13.569
				c-11.135-1.96-21.995-5.485-33.717-8.505c5.393-6.797,10.344-13.038,13.561-20.35c1.549-3.521,3.931-1.999,6.002-1.064
				C1458.504,1423.114,1472.736,1427.912,1487.221,1433.277z"/>
			<path style="fill:#FCF2D6;" d="M1341.318,1303.202c-0.614-17.346,0.512-34.48,6.836-50.904c1.493-3.877,3.077-7.758,6.112-10.689
				c2.202-2.127,4.623-5.277,7.953-3.891c2.778,1.156,3.163,4.745,3.328,7.66c0.358,6.331-0.048,12.601-1.281,18.875
				c-2.157,10.979-5.271,21.667-9.147,32.13c-0.85,2.296-1.377,5.207-6.357,6.766c3.834-13.478,0.691-27.441,10.955-38.16
				c2.572-2.686,1.911-5.876,1.157-8.922c-0.428-1.729-1.929-2.915-3.852-2.746c-3.135,0.276-4.54,2.738-5.497,5.239
				C1346.023,1272.944,1343.872,1288.098,1341.318,1303.202z"/>
			<path style="fill:#FCF2D6;" d="M1302.001,1338.01c-2.152,0.096-2.391-1.656-3.094-2.803c-7.471-12.213-7.41-12.644,3.772-21.382
				c4.608-3.6,9.146-7.262,12.306-12.272c1.905-3.021,3.252-2.463,5.347,0.012c8.165,9.647,8.246,11.943-0.089,21.349
				c-4.357,4.916-8.917,9.613-14.601,13.043C1304.399,1336.705,1303.114,1337.384,1302.001,1338.01z"/>
			<path style="fill:#FCF2D6;" d="M1074.828,1484.959c9.915-1.481,15.311-7.098,20.592-12.702c2.704-2.87,4.583-3.504,7.531-0.221
				c3.72,4.141,7.941,7.845,12.057,11.617c2.572,2.357,2.017,4.163-0.761,5.555c-7.832,3.926-16.104,7.396-24.742,7.776
				C1082.893,1497.275,1080.673,1489.669,1074.828,1484.959z"/>
			<path style="fill:#FCF2D6;" d="M1363.771,1360.432c10.388,9.336,10.744,7.109,3.61,19.051
				c-4.517,7.561-9.661,14.452-16.202,20.454c-5.032,4.617-7.052,0.381-9.835-2.356c-2.732-2.688-4.886-4.766-0.619-8.669
				C1349.67,1380.73,1357.77,1371.676,1363.771,1360.432z"/>
			<path style="fill:#FCF2D6;" d="M1073.878,1522.013c-4.588,5.504-9.774,9.119-15.697,11.258
				c-6.594,2.382-13.426,4.242-20.288,5.702c-4.928,1.049-10.255,0.575-12.515-4.877c-2.165-5.222,1.683-8.725,5.277-11.716
				c5.41-4.502,12.178-6.206,18.809-7.423c7.616-1.399,15.38-2.592,23.424-1.19c-10.977,2.861-21.637,6.629-32.26,10.486
				c-3.484,1.265-10.319,0.615-8.733,6.171c1.652,5.79,7.085,1.365,10.6,0.497
				C1052.796,1528.374,1062.389,1523.269,1073.878,1522.013z"/>
			<path style="fill:#FCF2D6;" d="M1352.275,1408.095c10.486-7.762,17.323-17.664,23.447-28.198c0.87-1.496,1.186-6.195,4.464-3.356
				c2.626,2.273,8.376,3.293,6.072,9.126c-4.585,11.604-13.512,19.934-21.688,28.836c-1.728,1.881-3.132,0.334-4.4-0.508
				C1357.756,1412.39,1355.508,1410.536,1352.275,1408.095z"/>
			<path style="fill:#FCF2D6;" d="M1333.191,1386.033c-3.472-2.617-5.49-5.956-7.532-9.206c-1.984-3.156,1.604-3.483,2.933-4.664
				c7.451-6.62,14.347-13.767,21.089-21.092c1.218-1.324,2.371-4.685,4.987-2.542c2.266,1.855,4.551,3.937,2.708,7.999
				c-4.532,9.982-12.194,17.399-19.415,25.214C1336.516,1383.304,1334.791,1384.606,1333.191,1386.033z"/>
			<path style="fill:#FCF2D6;" d="M1405.206,1363.434c-18.605-3.133-30.394-14.679-40.607-28.424
				c5.338,2.576,9.082,7.176,13.412,11.033c1.817,1.618,3.559,3.323,5.42,4.888c1.867,1.571,3.981,3.59,6.251,0.941
				c2.107-2.458,0.336-4.483-1.546-6.227c-8.385-7.772-16.444-15.908-25.556-22.87c-2.009-1.535-5.135-2.435-3.72-6.08
				C1370.139,1319.837,1398.962,1348.734,1405.206,1363.434z"/>
			<path style="fill:#FCF2D6;" d="M1415.374,1403.649c-2.262,8.932-7.64,14.849-12.043,21.5c-4.52,6.829-9.031,4.923-14.563,3.101
				c-2.799-0.922-2.996-1.924-1.091-3.913c7.271-7.589,13.48-15.873,16.929-25.96c0.465-1.36,0.983-2.99,2.929-1.54
				C1410.473,1399.026,1414.768,1399.909,1415.374,1403.649z"/>
			<path style="fill:#FCF2D6;" d="M1320.995,1368.416c-3.229-1.591-4.053-4.878-5.862-7.357c-1.473-2.018,0.161-3.105,1.627-3.993
				c8.814-5.344,15.732-12.836,22.92-20.034c1.342-1.344,2.825-4.325,4.87-0.903c1.285,2.15,5.606,3.749,2.463,7.153
				c-7.557,8.185-14.888,16.616-23.599,23.655C1322.685,1367.525,1321.804,1367.927,1320.995,1368.416z"/>
			<path style="fill:#EEE1D5;" d="M1084.886,1537.722c5.603,15.634,4.925,29.431-1.367,43.039c-1.377,2.979-3.104,6.33-6.406,6.293
				c-3.934-0.044-4.097-4.211-4.712-7.182c-2.838-13.717,0.076-26.836,4.276-40.955c1.79,10.363-1.206,19.431-0.599,28.596
				c0.129,1.941-0.032,3.906,0.157,5.838c0.237,2.427,0.469,5.303,3.729,5.296c3.477-0.008,3.456-2.995,3.3-5.389
				c-0.638-9.768,0.978-19.429,1.202-29.152C1084.503,1542.499,1084.672,1540.895,1084.886,1537.722z"/>
			<path style="fill:#FCF2D6;" d="M1338.065,1327.303c-0.882,1.306-1.42,2.411-2.23,3.253c-6.89,7.155-13.699,14.377-22.049,19.96
				c-2.858,1.911-4.404,1.82-6.36-1.173c-1.97-3.014-2.355-4.838,1.261-6.843c8.208-4.549,14.107-11.703,20.219-18.608
				c1.019-1.151,1.385-4.562,4.017-2.611C1334.956,1322.79,1336.323,1325.2,1338.065,1327.303z"/>
			<path style="fill:#FCF2D6;" d="M1405.467,1433.416c6.756-7.797,12.884-15.12,16.125-24.487c1.263-3.651,4.539-0.319,6.416,0.67
				c2.062,1.087,6.511,1.095,4.132,5.766c-3.65,7.166-8.002,13.853-13.962,19.262
				C1414.052,1438.372,1410.29,1434.393,1405.467,1433.416z"/>
			<path style="fill:#FCF2D6;" d="M1095.942,1503.632c8.235-3.367,16.876-4.391,23.815-9.575c3.012-2.25,3.63,0.485,4.642,2.135
				c2.11,3.439,5.283,7.038,1.318,10.99C1119.407,1513.471,1101.586,1511.506,1095.942,1503.632z"/>
			<path style="fill:#FCF2D6;" d="M1397.957,1394.564c-2.916,11.555-10.461,20.149-18.823,27.984
				c-2.552,2.391-5.39-1.093-7.441-2.585c-2.631-1.914,0.511-3.206,1.619-4.329c7.03-7.128,13.538-14.611,18.007-23.694
				c0.74-1.504,0.973-4.34,3.792-3.358C1397.822,1389.526,1398.529,1391.811,1397.957,1394.564z"/>
			<path style="fill:#FCF2D6;" d="M1132.818,1547.95c1.697,6.261-1.435,9.586-6.98,11.401c-4.909,1.606-9.943,2.341-15.11,1.938
				c-3.294-0.256-7.763,1.471-6.88-5.046c0.637-4.703,1.215-7.561,7.39-6.349c7.187,1.411,14.519-0.176,21.666-1.795
				L1132.818,1547.95z"/>
			<path style="fill:#FCF2D6;" d="M1110.353,1627.454c-4.513,11.957-9.548,15.681-18.931,14.605
				c-3.899-0.447-6.003-1.398-3.935-5.889c5.45-11.836,1.464-11.751,14.995-9.401
				C1105.036,1627.213,1107.662,1627.231,1110.353,1627.454z"/>
			<path style="fill:#FCF2D6;" d="M1112.613,1534.757c6.095-0.069,12.012-1.321,17.927-2.685c1.438-0.332,3.338-2.217,4.48,0.03
				c0.85,1.674,0.842,3.717-0.591,5.457c-4.13,5.014-22.134,7.664-27.535,4.144c-2.062-1.344-1.982-3.171-1.805-5.094
				c0.245-2.656,2.307-1.821,3.88-1.849C1110.184,1534.74,1111.399,1534.757,1112.613,1534.757z"/>
			<path style="fill:#FCF2D6;" d="M1129.633,1565.711c-0.485,11.002-3.347,13.852-13.029,12.892
				c-3.813-0.378-7.524-1.752-11.288-2.642c-2.76-0.653-3.192-2.596-2.91-5.011c0.335-2.874,2.49-2.535,4.389-2.437
				C1114.367,1568.905,1121.83,1568.435,1129.633,1565.711z"/>
			<path style="fill:#FCF2D6;" d="M1106.556,1526.212c3.683-0.017,7.486-0.118,5.238-5.522c-1.458-3.504,1.178-2.95,2.805-3.055
				c4.161-0.267,8.049-1.511,12.019-2.615c1.884-0.524,4.9-4.598,6.068,0.64c0.749,3.357,3.541,7.779-2.981,8.989
				c-7.628,1.415-15.09,5.225-23.031,1.402L1106.556,1526.212z"/>
			<path style="fill:#FCF2D6;" d="M1120.457,1597.87c-0.976,7.745-4.939,9.998-11.742,8.229c-2.331-0.606-4.8-0.852-7.216-0.925
				c-3.352-0.102-4.075-1.78-3.647-4.76c0.392-2.733,1.081-4.656,4.502-4.164C1108.321,1597.106,1114.237,1598.419,1120.457,1597.87
				z"/>
			<path style="fill:#FCF2D6;" d="M1105.765,1619.902c-1.852-0.314-5.179-0.885-8.509-1.439c-1.597-0.265-3.657,0.03-2.776-2.779
				c0.631-2.01,0.487-4.438,3.935-3.751c4.022,0.802,8.156,1.035,12.195,1.768c1.569,0.285,4.507-1.066,4.286,2.174
				c-0.171,2.514-1.427,4.631-4.703,4.052C1109.254,1619.761,1108.26,1619.902,1105.765,1619.902z"/>
			<path style="fill:#FCF2D6;" d="M1124.937,1584.433c-0.421,4.205-0.963,6.344-4.757,6.277c-5.591-0.099-11.087-0.537-16.584-1.574
				c-2.586-0.488-3.098-1.745-2.818-3.998c0.42-3.379,2.723-1.985,4.362-1.641
				C1111.454,1584.826,1117.612,1587.585,1124.937,1584.433z"/>
			<path style="fill:#EEE1D5;" d="M1095.66,1552.06c-1.325-6.105-2.447-12.265-4.07-18.29c-0.717-2.662-1.361-4.438,2.135-5.309
				c4.363-1.087,3.515,2.561,3.595,4.27c0.305,6.495,0.099,13.014,0.084,19.523
				C1096.822,1552.189,1096.241,1552.125,1095.66,1552.06z"/>
			<path style="fill:#FCF2D6;" d="M1351.277,1317.524c-0.051,3.883-0.892,7.568-4.555,7.514c-2.626-0.038-5.3-3.691-4.994-6.19
				c0.406-3.316,2.015-7.876,6.272-7.767C1351.63,1311.174,1350.877,1315.343,1351.277,1317.524z"/>
			<path style="fill:#FCF2D6;" d="M1085.742,1506.986c2.52,1.732,3.021,5.252,4.712,7.95c1.117,1.781,2.362,3.86,0.918,6.01
				c-0.365,0.544-1.721,0.75-2.535,0.609c-3.623-0.626-7.819-9.054-6.375-12.553
				C1082.967,1507.776,1083.776,1507.036,1085.742,1506.986z"/>
			<path style="fill:#D2957A;" d="M1095.66,1552.06c0.581,0.065,1.162,0.13,1.743,0.195c0.523,5.825-2.604,11.295-2.521,17.161
				C1095.142,1563.631,1095.401,1557.845,1095.66,1552.06z"/>
			<path style="fill:#FCF2D6;" d="M1106.674,1526.051c-1.149,0.667-2.186,0.731-2.747-0.703c-0.121-0.309,0.195-1.128,0.271-1.123
				c1.246,0.08,2.176,0.613,2.358,1.988C1106.556,1526.212,1106.674,1526.051,1106.674,1526.051z"/>
			<path style="fill:#EEE2D6;" d="M1369.373,1352.291c0.424,0.735,0.753,1.305,1.082,1.876c-0.393,0.066-0.877,0.303-1.154,0.154
				c-0.336-0.181-0.641-0.671-0.683-1.058C1368.59,1353.003,1369.043,1352.692,1369.373,1352.291z"/>
			<path style="fill:#F2967C;" d="M1576.179,1537.56c0.704-0.707,1.418-1.346,2.377-0.358c-0.567,0.386-1.133,0.772-1.696,1.163
				C1576.638,1538.098,1576.409,1537.828,1576.179,1537.56z"/>
			<path style="fill:#FCF2D6;" d="M1132.904,1548.099c0.148-0.15,0.28-0.326,0.454-0.437c0.056-0.036,0.22,0.097,0.334,0.153
				c-0.29,0.047-0.58,0.095-0.872,0.139C1132.818,1547.95,1132.904,1548.099,1132.904,1548.099z"/>
			<path style="fill:#EEE2D6;" d="M1372.21,1357.499c-0.427-0.685-1.828-1.151-0.605-2.175c0.164-0.137,1.049,0.586,1.6,0.911
				C1372.873,1356.656,1372.541,1357.078,1372.21,1357.499z"/>
			<path style="fill:#EEE2D6;" d="M1373.205,1356.235c0.648,0.427,1.865,0.704,1.056,1.767c-0.783,1.029-1.418-0.074-2.05-0.505
				C1372.541,1357.078,1372.873,1356.656,1373.205,1356.235z"/>
			<path style="fill:#EEE1D5;" d="M1234.265,1459.185c0.169,0.008,0.394-0.048,0.493,0.039c0.132,0.116,0.278,0.397,0.223,0.514
				c-0.335,0.702-0.711,0.683-0.974-0.049C1233.963,1459.568,1234.173,1459.355,1234.265,1459.185z"/>
			<path style="fill:#FEF8DC;" d="M942.56,806.658c-28.877,28.652-66.34,41.237-103.14,55.05
				c-7.031,2.639-14.136,5.084-21.208,7.618c-3.573,0.492-4.246-1.556-4.807-4.614c-1.881-10.253-3.844-20.501-7.062-30.458
				c-3.07-9.499-7.924-17.65-16.385-23.398c-20.273-13.772-41.09-26.616-63.272-37.12c-2.768-1.31-6.245-4.898-8.742-0.218
				c-2.731,5.118,3.347,5.305,5.8,8.328c-1.89,1.525-5.838,2.268-4.473,5.7c1.269,3.192,4.147,2.694,6.86,1.738
				c3.345-1.179,4.399,0.465,4.325,3.547c-0.053,2.185,0.015,4.373,0.028,6.558c-18.872-1.134-37.137-5.828-55.577-9.487
				c-1.738-34.414,10.658-63.482,34.233-87.894c11.504-11.912,20.178-25.518,27.476-40.14c2.299-4.606,2.857-9.836,2.296-14.971
				c-0.386-3.535,0.996-5.168,4.103-6.627c15.31-7.192,29.474-16.135,41.363-28.345c1.221-1.254,2.193-2.479,4.299-1.417
				c13.27,6.695,26.609,3.292,39.301-1.147c14.967-5.235,30.349-8.878,45.445-13.567c15.929-4.948,30.789-2.012,44.088,8.129
				c5.55,4.232,12.521,6.825,15.922,13.581c-8.137,12.349-16.273,24.698-24.408,37.047c-5.529-5.229-12.513-9.688-9.163-19.259
				c0.708-2.023,0.437-4.554-1.956-5.746c-3.317-1.652-4.367,1.566-6.026,3.279c-0.501-0.439-0.969-0.692-1.207-1.084
				c-1.397-2.29-0.114-6.233-4.222-6.845c-1.551-0.231-2.956,0.159-3.813,1.54c-2.088,3.365,0.026,6.187,1.61,8.772
				c8.176,13.341,18.704,24.854,28.998,36.523c10.239,11.607,14.026,24.572,12.468,40.29c-1.868,18.837-1.945,37.951,0.882,56.799
				c1.615,10.763,8.178,19.646,13.018,29.15C941.009,800.71,943.57,803.091,942.56,806.658z M869.688,707.163
				c0.165-1.92-0.222-2.991-1.339-3.763c-1.812-1.252-3.372-0.381-4.571,0.84c-3.747,3.819-7.694,7.514-10.949,11.731
				c-8.77,11.36-17.274,22.928-25.753,34.508c-1.582,2.161-4.746,4.76-1.388,7.504c3.434,2.806,5.019-0.857,6.864-2.939
				c0.161-0.181,0.284-0.396,0.43-0.59c11.404-15.153,21.624-31.232,35.081-44.783C868.877,708.852,869.351,707.695,869.688,707.163
				z M861.509,745.76c3.282-0.032,11.391-10.343,10.461-13.147c-0.628-1.892-2.402-3.095-3.976-2.171
				c-4.494,2.635-7.515,6.853-9.576,11.498C857.524,743.953,859.51,745.393,861.509,745.76z"/>
			<path style="fill:#FEF8DC;" d="M979.33,662.893c10.385,8.836,19.798,18.666,29.337,28.383
				c16.551,16.86,32.437,34.386,50.093,50.149c33.125,29.574,68.526,56.253,104.462,82.26c12.835,9.289,27.03,16.483,39.6,26.221
				c4.473,3.465,5.485,6.639,3.739,11.741c-9.281,27.126-28.084,45.598-52.947,58.568c-4.809,2.509-8.894,1.858-12.742-2.832
				c-10.813-13.18-21.789-26.252-33.236-38.881c-27.711-30.573-59.693-56.668-89.695-84.843
				c-22.557-21.183-44.77-42.74-66.15-65.124c-3.138-3.286-6.472-6.659-7.606-11.384
				C958.089,700.482,969.402,682.135,979.33,662.893z"/>
			<path style="fill:#D2957A;" d="M1219.239,860.479c20.33,4.892,40.014,11.772,59.641,18.917
				c24.661,8.977,48.115,20.076,67.821,37.74c15.145,13.576,24.64,41.724,17.011,59.873c-3.814,9.073-7.72,10.433-15.266,3.999
				c-7.842-6.686-13.503-15.283-18.752-24.102c-7.786-13.08-16.648-25.36-29.578-33.801c-21.296-13.902-43.081-12.984-64.904-0.984
				c-1.357,0.746-2.557,1.723-1.92,3.429c0.73,1.955,2.29,3.457,4.406,3.2c1.867-0.227,3.635-1.285,5.44-1.994
				c4.753-1.865,9.357-4.497,14.286-5.449c9.352-1.806,17.891-2.437,25.239,7.141c12.332,16.075,18.087,34.225,21.49,53.574
				c2.099,11.936,1.309,24.292,5.131,35.977c1.518,4.639-0.843,5.216-4.444,4.316c-3.728-0.932-5.17-3.916-6.504-7.249
				c-6.574-16.421-8.336-33.907-11.738-51.044c-2.489-12.537-6.81-24.404-15.936-33.902c-1.501-1.562-2.891-3.385-5.253-3.747
				c-1.519-0.233-2.972,0.047-3.96,1.317c-1.105,1.421-0.571,2.818,0.545,3.911c16.596,16.254,18.194,37.991,21.748,59.049
				c1.029,6.094,2.592,12.098,4.14,19.195c-6.78-3.321-9.174-8.487-11.524-13.851c-4.47-10.202-6.982-21.134-13.65-30.543
				c-9.229-13.022-19.898-15.56-35.91-11.07c-3.48,0.976-6.345,3.019-6.489-2.994c-0.052-2.184-1.875-4.419-4.418-3.886
				c-2.624,0.549-3.861,2.758-3.394,5.624c1.876,11.531,4.007,23.014,8.397,33.901c1.999,4.956,6.031,8.162,10.74,10.486
				c10.339,5.102,21.476,7.83,32.53,10.767c8.303,2.207,13.428,8.087,13.53,15.9c0.073,5.56-5.069,11.611-13.291,12.407
				c-17.917,1.736-36.038,2.974-53.322-4.105c-4.496-1.841-8.478-4.595-11.36-8.843c-6.548-9.652-14.837-18.018-20.663-28.236
				c-6.891-12.085-8.357-25.86-12.569-38.775c-2.706-8.297-4.888-16.89-11.477-23.292c-1.828-3.255-2.166-4.781,2.403-7.031
				c26.212-12.906,45.017-33.081,55.661-60.412C1214.386,862.527,1215.221,860.094,1219.239,860.479z"/>
			<path style="fill:#FEF8DC;" d="M733.433,865.81c1.811,14.224,3.906,28.418,5.371,42.677c2.789,27.156,7.587,53.972,13.621,80.548
				c5.829,25.674,7.311,52.033,13.003,77.711c3.896,17.577,3.727,17.478-12.716,25.887c-20.19,10.325-41.624,16.273-64.03,19.217
				c-5.122,0.673-6.773-0.618-6.723-5.97c0.478-51.446-2.301-102.85-1.843-154.314c0.255-28.732-4.152-57.351-4.219-86.135
				c-0.005-2.188,0.051-4.377,0.079-6.563C694.791,863.986,713.943,866.298,733.433,865.81z"/>
			<path style="fill:#D2957A;" d="M766.865,1094.571c1.309,11.229,8.07,19.733,14.733,28.042c7.2,8.979,15.898,16.441,26.357,21.647
				c5.462,2.719,10.832,5.772,15.041,10.219c7.776,8.215,10.363,17.772,7.113,28.95c-3.404,11.707-6.007,23.625-17.099,31.157
				c-5.218,3.543-10.39,3.978-15.777,1.108c-5.628-2.999-4.359-8.443-3.436-13.024c1.047-5.194,3.137-10.211,5.089-15.182
				c4.829-12.295,2.144-19.914-9.459-26.043c-10.255-5.417-21.378-7.977-32.714-9.768c-2.472-0.391-4.739-0.268-5.972,2.747
				c-6.274,15.355-11.48,31.053-14.406,47.386c-2.734,15.261,5.448,26.297,15.804,35.714c9.901,9.004,20.436,17.402,33.588,21.477
				c4.423,1.37,4.702,4.058,3.138,7.878c-1.908,4.658-5.745,6.797-10.183,7.298c-15.852,1.79-30.997-0.863-45.407-7.886
				c-14.637-7.134-18.232-20.575-20.403-34.886c-2.045-13.482-1.927-27.127-2.925-40.688c-0.192-2.611,0.475-6.194-3.17-6.344
				c-3.963-0.162-4.16,3.599-4.102,6.453c0.351,17.254,0.971,34.481,4.554,51.47c4.87,23.092,21.481,33.066,42.436,37.876
				c7.97,1.829,16.169,3.128,24.473,2.016c2.258-0.302,3.887,0.549,4.29,2.889c0.421,2.447,0.734,5.291-2.074,6.372
				c-5.135,1.977-10.099,4.701-16.127,2.546c-10.769-3.85-21.782-7.021-32.553-10.867c-18.541-6.619-28.547-19.873-31.005-39.481
				c-1.989-15.87-7.504-31.22-7.295-47.456c0.031-2.382-0.786-4.675-3.506-4.692c-3.215-0.02-3.627,2.599-3.767,5.195
				c-0.662,12.323,2.575,24.139,4.991,36.008c2.696,13.244,4.144,26.876,11.279,39.233c-3.348,0.976-4.076-1.029-4.988-2.55
				c-8.786-14.666-12.853-30.908-15.536-47.547c-0.565-3.503-0.229-6.927-4.965-7.505c-2.23-0.272-2.445-2.047-2.214-3.887
				c2.604-20.7,5.213-41.4,7.824-62.1c1.214-9.628,2.437-19.255,3.656-28.881c24.389-1.422,47.533-7.595,69.593-18.039
				C756.741,1099.06,761.299,1095.694,766.865,1094.571z"/>
			<path style="fill:#F17D48;" d="M979.33,662.893c-9.929,19.242-21.241,37.588-35.145,54.259
				c-10.524-5.82-11.43-15.947-11.795-26.318c9.282-15.707,18.564-31.413,27.846-47.12
				C968.301,648.416,974.68,654.795,979.33,662.893z"/>
			<path style="fill:#F17D48;" d="M674.906,789.903c18.441,3.659,36.705,8.353,55.577,9.487c-0.111,8.858-0.223,17.715-0.334,26.571
				c-18.657,0.658-36.981-2.286-55.316-5.106C674.858,810.538,674.882,800.221,674.906,789.903z"/>
			<path style="fill:#F17D48;" d="M733.433,865.81c-19.49,0.488-38.642-1.823-57.456-6.943c-2.295-8.298-0.841-16.746-1.016-25.128
				c4.582,0.042,9.097,0.518,13.654,1.175c14.282,2.06,28.462,5.254,43.037,4.635C732.247,848.302,732.84,857.056,733.433,865.81z"
				/>
			<path style="fill:#F17D48;" d="M909.024,654.552c8.135-12.349,16.271-24.698,24.408-37.047
				c6.915,5.177,13.218,10.955,17.984,18.248c-2.313,3.948-4.345,8.098-6.997,11.804c-6.238,8.717-9.801,19.483-19.429,25.628
				C918.707,667.797,913.44,661.539,909.024,654.552z"/>
			<path style="fill:#D2957A;" d="M730.158,620.565c16.168-3.035,27.748-13.13,38.213-24.897c2.083-2.343,3.92-4.905,5.87-7.365
				c2.481,4.438,4.963,8.876,7.446,13.315c-2.847,9.522-11.436,13.609-18.589,18.666c-8.616,6.092-17.208,12.709-28.139,14.51
				C735.668,629.269,731.486,625.398,730.158,620.565z"/>
			<path style="fill:#FCF2D6;" d="M731.653,839.549c-14.575,0.62-28.755-2.574-43.037-4.635c-4.557-0.657-9.072-1.133-13.654-1.175
				c-0.042-4.294-0.086-8.588-0.128-12.883c18.336,2.82,36.66,5.763,55.316,5.105C730.651,830.491,731.152,835.02,731.653,839.549z"
				/>
			<path style="fill:#FCF2D6;" d="M924.989,673.185c9.628-6.145,13.191-16.911,19.429-25.628c2.652-3.706,4.684-7.856,6.997-11.804
				c4.047,1.429,7.392,3.635,8.82,7.963c-9.281,15.705-18.563,31.411-27.845,47.118
				C929.923,684.951,927.456,679.068,924.989,673.185z"/>
			<path style="fill:#D2957A;" d="M752.209,448.411c6.054,13.214,11.968,26.484,17.739,39.83
				c8.802,20.359,13.569,41.731,9.797,63.177c-6.264,35.62-30.541,66.138-69.185,64.189c-23.855-1.203-43.95-13.344-60.271-30.825
				c-3.334-3.571-5.396-4.29-9.688-1.627c-5.109,3.169-10.062,6.763-16.06,8.503c-7.472,2.168-14.241,0.81-19.792-4.125
				c-11.725-10.424-16.53-23.807-14.652-39.356c1.049-8.684,6.865-13.523,15.806-13.962c0,0.001,0.009-0.046,0.01-0.045
				c0.567,1.475,1.77,2.186,3.182,2.645c5.554,5.619,12.091,9.787,19.386,12.703c3.115,1.245,6.433,1.003,8.769-1.66
				c2.018-2.3,1.574-5.342-0.129-7.476c-11.765-14.737-10.734-32.169-11.193-49.47c-0.168-6.329,0.844-10.73,6.754-14.038
				c5.509-3.084,7.248-8.502,7.17-14.948c-0.1-8.309-2.18-16.303-2.696-24.626c4.729,6.695,6.821,14.517,9.42,22.065
				c2.79,8.1,5.211,9.059,12.647,4.792c6.677-3.831,9.55-8.488,7.586-16.728c-2.393-10.043-4.409-20.18-7.38-30.267
				c8.702,6.031,13.632,14.94,19.214,23.34c2.025,3.048,2.77,7.939,7.975,7.236c5.043-0.681,5.987-5.123,7.235-9.057
				c2.677-8.435,2.274-16.255-4.291-23.063c-2.159-2.238-3.776-4.999-6.226-8.312c5.734-0.006,9.233,3.068,13.182,4.896
				c10.157,4.703,20.323,9.385,29.459,15.968c0.394,0.284,0.835,0.854,1.182,0.803c13.614-2.003,16.093,10.573,22.919,17.443
				C750.762,447.107,751.497,447.748,752.209,448.411z M703.058,469.129c5.813-11.154,8.098-23.463,13.646-34.448
				c1.136-2.249,2.928-4.47,0.064-6.301c-3.06-1.956-5.078,0.336-6.425,2.762c-1.406,2.532-2.486,5.261-3.536,7.97
				c-2.278,5.88-4.338,11.846-6.726,17.679c-0.69,1.685-1.063,4.941-4.369,2.843c-1.795-1.139-3.501-1.989-5.165-0.068
				c-1.832,2.115-1.448,4.574-0.44,6.865c2.7,6.132,7.951,9.529,13.512,12.766c13.533,7.879,16.494,15.012,12.724,30.037
				c-0.527,2.099-0.814,3.939,1.281,5.067c2.561,1.379,4.133-0.334,5.317-2.302c0.741-1.232,1.303-2.614,1.713-3.997
				c3.629-12.246-0.869-22.009-9.899-29.919c-3.974-3.481-4.088-5.94-0.242-9.309c3.102-2.718,5.851-5.837,8.773-8.763
				c1.787-1.789,3.693-3.719,1.398-6.196c-2.291-2.472-4.476-0.737-6.339,0.89C713.114,459.272,707.949,463.915,703.058,469.129z
				 M720.4,532.757c-12.955-0.553-29.109,16.014-28.1,27.655c0.162,1.865,0.748,3.363,2.624,3.914
				c2.089,0.613,3.201-0.817,3.923-2.41c1.197-2.643,2.019-5.467,3.324-8.05c5.955-11.792,9.494-13.733,22.69-12.63
				c5.651,0.472,9.363-1.973,11.09-7.312c1.273-3.935,2.251-7.906,6.227-10.289c1.985-1.189,1.986-3.366,0.701-5.119
				c-1.451-1.981-3.484-1.317-5.267-0.396c-3.156,1.63-5.544,4.246-6.556,7.518C729.185,531.682,726.918,536.365,720.4,532.757z
				 M620.962,562.999c3.364,0.832,4.576,3.537,6.751,4.961c1.938,1.269,3.964,3.656,6.368,1.236
				c2.371-2.386,0.413-4.377-1.281-6.231c-4.948-5.413-10.563-10.139-16.69-14.031c-5.288-3.359-11.141-6.335-17.844-3.556
				c-2.731,1.132-4.691,3.098-3.592,6.219c1.244,3.531,3.514,2.678,6.412,1.406c6.399-2.809,11.993,1.249,12.188,8.279
				c0.12,4.332-0.845,8.774,1.132,12.948c0.985,2.08,2.245,4.102,4.905,3.288c2.632-0.805,2.846-2.942,2.025-5.34
				C620.375,569.368,620.275,566.485,620.962,562.999z M680.624,475.352c-0.971-3.597-3.924-3.046-6.424-2.488
				c-6.856,1.531-13.77,2.388-20.76,3.057c-4.758,0.455-9.467,1.849-14.076,3.23c-2.026,0.607-4.115,2.195-3.081,4.897
				c0.93,2.433,2.944,2.818,5.409,2.085c2.77-0.824,5.621-1.388,8.452-1.995c8.502-1.821,17.339-1.514,25.732-4.108
				C678.318,479.275,680.555,478.607,680.624,475.352z M676.618,485.856c-5.686-0.25-19.384,6.671-22.345,11.233
				c-1.28,1.971-2.066,3.928-0.337,6.003c1.154,1.385,2.834,1.412,3.872,0.286c5.551-6.019,12.965-8.356,20.375-10.824
				c1.757-0.585,2.595-2.216,2.253-4.136C680.063,486.32,678.471,485.85,676.618,485.856z M731.774,556.446
				c0-1.8,0.037-2.763-0.007-3.722c-0.131-2.892,0.053-6.464-4.041-6.253c-3.607,0.186-3.156,3.578-3.247,6.185
				c-0.034,0.96-0.067,1.928,0.01,2.883c0.24,2.981-0.69,7.263,3.714,7.298C732.776,562.875,731.557,558.541,731.774,556.446z
				 M746.552,550.96c-1.4-2.968-2.665-6.529-7.091-6.716c-1.987-0.084-3.399,1.312-2.954,3.244c0.852,3.698,3.122,6.726,6.857,7.642
				C745.611,555.68,746.584,553.557,746.552,550.96z"/>
			<path style="fill:#C66A3F;" d="M609.094,536.815c-1.412-0.459-2.615-1.17-3.182-2.645
				C607.521,534.392,608.735,535.09,609.094,536.815z"/>
			<polygon style="fill:#D2957A;" points="658.013,414.699 658.104,415.124 657.769,415.058 			"/>
			<path style="fill:#8194B8;" d="M1042.064,906.195c-1.053,1.189-2.159,2.804-3.604,4.017
				c-28.406,23.859-51.57,52.273-72.106,82.952c-2.048,3.06-3.573,4.2-6.671,1.234c-7.56-7.238-15.321-14.266-22.988-21.393
				c-3.456-3.213,0.056-4.345,1.781-6.129c2.457-2.54,8.287-4.565,4.467-8.864c-3.09-3.478-6.796,0.763-9.144,3.166
				c-4.376,4.478-6.895,3.407-10.013-1.45c-6.836-10.648-14.053-21.058-21.305-31.431c-6.733-9.63-9.232-20.77-12.029-31.855
				c-3.157-12.516-6.755-24.923-12.564-36.498c-1.935-3.855-0.407-5.084,2.734-6.448c8.033-3.488,16.102-6.927,23.942-10.819
				c8.505-4.223,8.173,3.955,11.016,7.515c3.538,4.43-0.428,5.746-3.439,7.229c-2.179,1.073-4.422,2.035-6.692,2.901
				c-2.495,0.952-4.706,2.316-3.576,5.281c1.155,3.033,3.917,2.39,6.253,1.521c9.684-3.603,18.278-9.123,26.371-15.435
				c3.451-2.692,6.941-5.428,9.924-8.604c4.215-4.489,7.461-4.177,11.19,0.615c6.658,8.554,14.797,15.402,24.602,20.25
				c6.435,3.182,12.816,4.845,19.366,0.669c2.364-1.507,3.999-1.098,5.581,0.98c9.926,13.038,22.359,23.698,33.644,35.447
				C1040.103,902.395,1041.889,903.508,1042.064,906.195z M914.446,904.644c-2.918-10.784-5.782-21.584-8.818-32.335
				c-0.402-1.423-1.96-2.248-3.568-1.885c-1.867,0.422-3.304,1.925-2.872,3.677c2.613,10.601,4.264,21.465,8.265,31.69
				c0.742,1.896,2.475,3.151,4.737,2.293C913.644,907.532,914.449,906.289,914.446,904.644z M921.526,923.548
				c-2.534,0.186-4.288,1.835-3.455,3.792c3.036,7.135,6.511,14.088,9.991,21.024c0.703,1.401,2.399,1.546,3.91,1.026
				c1.695-0.584,2.205-2.106,1.833-3.533c-2.043-7.839-5.975-14.8-10.463-21.461C923.001,923.892,922.068,923.787,921.526,923.548z
				 M897.323,861.941c-0.523-4.291-2.169-8.172-7.042-8.547c-4.008-0.309-6.13,2.711-6.11,6.518
				c0.024,4.578,2.445,8.093,7.081,8.637C895.435,869.04,896.957,865.822,897.323,861.941z"/>
			<path style="fill:#8194B8;" d="M924,977.549c7.052-2.264,9.061,1.23,10.028,6.913c1.302,7.654,2.967,15.258,4.794,22.807
				c0.803,3.316,0.578,5.285-3.378,5.156c-34.219-1.117-66.97,7.446-99.8,15.319c-5.144,1.233-5.237-1.778-5.697-4.961
				c-2.469-17.056-4.874-34.121-7.33-51.178c-0.416-2.886-0.669-5.844-1.523-8.606c-1.565-5.061-2.539-8.774,4.91-10.184
				c4.852-0.919,5.833-6.586,6.91-11.171c2.882-12.271-0.158-24.188-2.155-36.139c-1.153-6.899,1.562-10.948,8.687-11.729
				c5.321-0.583,4.125-3.781,2.699-6.808c-1.863-3.957-4.155-7.713-6.004-11.676c-0.819-1.755-1.168-3.774,1.419-4.859
				c2.488-1.044,2.86,0.974,3.665,2.333c0.867,1.464,1.572,3.024,2.414,4.504c6.813,11.985,14.562,14.153,26.63,7.462
				c1.774-0.983,3.572-2.225,2.846-4.499c-0.697-2.181-2.81-2.613-4.861-2.208c-2.856,0.565-5.738,1.157-8.479,2.109
				c-3.297,1.145-5.352,0.267-7.393-2.58c-6.755-9.417-6.665-10.041,4.028-14.342c13.044-5.247,13.314-5.347,18.149,7.653
				c3.552,9.551,7.391,19.214,9.133,29.171c3.183,18.191,12.84,32.897,22.806,47.617c4.092,6.044,8.421,11.928,12.581,17.927
				c1.581,2.281,3.507,4.033,1.271,7.636C918.161,976.741,921.677,977.415,924,977.549z"/>
			<path style="fill:#8194B8;" d="M943.531,1023.514c-0.837,2.479-1.059,4.39,0.078,5.706c5.552,6.427,0.888,7.823-4.259,9.963
				c-19.711,8.197-40.781,10.958-61.379,15.468c-13.778,3.017-27.346,6.786-41.068,9.967c-8.054,1.867-10.304-0.03-8.962-8.257
				c0.439-2.694-0.305-4.777-1.664-6.838c-3.926-5.954-2.019-11.576,4.867-13.315c35.111-8.869,70.358-16.97,106.863-17.202
				C941.476,1018.984,944.609,1019.46,943.531,1023.514z M915.63,1036.271c0.016-2.457-1.66-3.695-5.641-3.33
				c-21.903,2.006-43.242,6.699-64.007,13.96c-0.91,0.318-1.832,0.771-2.568,1.379c-1.675,1.385-3.779,2.843-2.212,5.401
				c1.218,1.988,3.269,1.823,5.23,1.058c2.265-0.883,4.469-1.944,6.773-2.703c17.857-5.883,36.19-9.557,54.849-11.712
				C911.177,1039.964,914.431,1039.685,915.63,1036.271z M923.047,1033.262c7.742-0.3,9.886-1.294,9.384-4.136
				c-0.627-3.545-3.568-3.489-6.193-3.285c-3.532,0.275-7.965,0.318-7.946,5.154C918.303,1034.341,921.757,1033.27,923.047,1033.262
				z"/>
			<path style="fill:#8194B8;" d="M1055.168,936.432c-3.14,2.411-7.018,3.863-9.414,7.242c-1.1,0.024-1.923,0.418-2.172,1.591
				c0,0,0.064-0.071,0.064-0.071c-1.352-0.164-2.351,0.333-2.952,1.575c0,0,0.066-0.05,0.066-0.05
				c-0.515,0.497-1.029,0.994-1.544,1.491c0,0,0.05-0.037,0.05-0.036c-6.017,2.424-10.502,6.762-14.618,11.594
				c-15.608,18.328-30.114,37.489-43.458,57.523c-1.765,2.65-3.472,3.969-4.897,0.094c-2.164-5.887-6.418-6.563-13.347-4.408
				c3.745-6.29,6.452-11.28,9.569-15.999c21.295-32.241,46.534-61.034,75.805-86.284c1.476-1.273,2.77-2.893,5.043-1.981
				c2.261,0.906,3.426,2.551,3.382,5.067c-0.046,2.671-0.5,5.721,1.438,7.72C1064.604,928.126,1060.851,932.408,1055.168,936.432z
				 M1038.103,938.599c-0.183-2.651-1.556-4.241-4.67-2.656c-1.926,0.98-3.747,2.312-5.339,3.783
				c-15.061,13.92-28.562,29.164-39.234,46.766c-1.491,2.459-3.803,5.428-0.143,7.525c3.736,2.14,5.075-1.699,6.457-4.003
				c10.739-17.904,24.744-33.002,40.086-46.962C1036.529,941.899,1038.011,941.01,1038.103,938.599z"/>
			<path style="fill:#8194B8;" d="M990.192,859.848c-6.835-1.823-12.541-5.063-17.452-9.511c-4.497-4.072-8.57-8.607-12.944-12.821
				c-2.799-2.697-5.459-5.065-0.992-8.692c1.841-1.495,2.349-4.014,0.194-5.711c-2.097-1.651-4.13-0.371-5.805,1.254
				c-4.691,4.551-9.486,9.003-14.012,13.713c-2.939,3.059-4.571,3.923-7.511-0.526c-4.24-6.416-3.698-10.353,2.969-14.592
				c4.833-3.072,8.564-7.862,12.845-11.823c1.355-1.254,2.885-3.361,4.876-1.248c13.667,14.502,28.605,27.775,41.555,42.963
				c1.151,1.35,3.422,2.745,1.806,4.885C994.371,859.523,992.198,860.247,990.192,859.848z"/>
			<path style="fill:#8194B8;" d="M817.994,948.949c-2.375-14.219-4.828-28.244-7.013-42.311c-0.84-5.411,4.193-5.243,7.268-6.332
				c3.833-1.357,4.105,1.787,4.685,4.541c2.403,11.423,4.268,22.837,2.828,34.605C825.197,944.069,823.34,947.186,817.994,948.949z"
				/>
			<path style="fill:#8194B8;" d="M833.901,890.117c-5.934,1.042-11.84,2.335-17.816,2.992c-2.162,0.238-6.375,5.513-6.619-1.185
				c-0.173-4.76-6.385-11.635,3.345-14.192c15.022-3.948,15.03-3.925,21.445,10.276c0.196,0.434,0.247,0.933,0.365,1.401
				C834.377,889.642,834.137,889.878,833.901,890.117z"/>
			<path style="fill:#8194B8;" d="M920.172,834.164c1.631,0.128,8.974,11.336,8.185,12.767c-0.838,1.518-2.385,2.412-4.162,2.488
				c-0.844,0.036-7.794-12.123-7.43-12.979C917.379,834.995,918.595,834.264,920.172,834.164z"/>
			<path style="fill:#8194B8;" d="M834.62,889.409c0.511,0.395,1.026,0.83,0.211,1.361c-0.115,0.075-0.606-0.427-0.927-0.657
				C834.137,889.878,834.377,889.642,834.62,889.409z"/>
			<path style="fill:#D2957A;" d="M669.872,1224.62c2.766,10.072,4.982,19.721,8.08,29.079
				c5.553,16.774,14.354,31.343,30.347,40.351c2.471,1.392,3.827,3.081,2.567,5.86c-1.394,3.071-3.607,4.15-7.104,3.097
				c-12.864-3.876-20.088-13.922-26.91-24.352C666.013,1262.084,665.863,1243.923,669.872,1224.62z"/>
			<path style="fill:#D2957A;" d="M700.853,1275.216c12.676,11.81,27.978,16.824,43.503,21.357c1.262,0.369,2.237,1.336,1.524,2.701
				c-0.362,0.693-1.45,1.061-2.273,1.435c-0.408,0.186-1.011,0.199-1.438,0.047c-15.118-5.385-30.086-11.061-41.83-22.656
				C700.159,1277.922,700.474,1277.241,700.853,1275.216z"/>
			<path style="fill:#D2957A;" d="M1293.241,928.542c9.398,3.919,15.496,11.331,21.183,19.024
				c9.666,13.076,16.513,28.23,29.028,39.211c1.615,1.417,1.773,3.351,1.446,5.392c-0.882,5.508-1.608,11.042-2.584,16.532
				c-1.459,8.213-8.473,14.522-15.316,13.966c-6.948-0.565-11.632-6.262-12.577-14.823c-1.703-15.425-2.841-30.915-7.129-45.98
				C1303.973,950.202,1299.455,939.133,1293.241,928.542z"/>
			<path style="fill:#EEE1D5;" d="M1270.606,1002.021c-12.332-2.534-22.979-5.888-33.365-10.011
				c-7.478-2.969-15.755-17.887-14.793-25.779c0.219-1.796,1.439-2.367,2.665-3.122c11.087-6.826,24.109-4.156,31.575,6.566
				C1263.317,979.196,1266.098,990.357,1270.606,1002.021z"/>
			<path style="fill:#EEE2D6;" d="M814.336,532.099c-0.482-0.674-0.965-1.349-1.447-2.023c1.232-0.878,2.012-0.195,2.708,0.781
				C815.177,531.271,814.757,531.685,814.336,532.099z"/>
			<path style="fill:#D2957A;" d="M777.255,443.379c8.326,4.686,14.692,19.371,12.871,30.272c-1.036,6.2-2.205,12.416-6.661,17.385
				c-1.898,2.116-3.435,2.864-4.74-0.356c-2.863-7.061-5.676-14.143-8.675-21.63c4.407,0,4.482,3.584,6.443,5.107
				c1.478,1.147,2.692,3.284,4.908,1.821c2.218-1.464,2.122-3.788,0.939-5.821c-1.826-3.138-3.612-6.582-6.874-8.334
				c-5.392-2.896-4.403-6.386-1.267-9.929c2.246-2.537,3.61-5.095,3.042-8.498L777.255,443.379z"/>
			<path style="fill:#D2957A;" d="M777.241,443.397c-7.981-1.048-9.637,5.982-13.888,11.625c-2.76-5.337-3.763-9.755,0.707-13.463
				c4.717-3.913,9.404-3.201,13.195,1.82C777.255,443.379,777.241,443.397,777.241,443.397z"/>
			<path style="fill:#5E4A43;" d="M1040.693,946.77c0.601-1.242,1.6-1.739,2.952-1.575
				C1043.068,946.481,1042.097,947.031,1040.693,946.77z"/>
			<path style="fill:#5E4A43;" d="M1043.581,945.266c0.249-1.174,1.073-1.568,2.172-1.591
				C1045.033,944.208,1044.307,944.737,1043.581,945.266z"/>
			<path style="fill:#5E4A43;" d="M1039.216,948.211c0.515-0.497,1.029-0.994,1.544-1.491
				C1040.692,947.679,1040.177,948.176,1039.216,948.211z"/>
			<path style="fill:#C66A3F;" d="M1021.862,1097.722c2.747,0.274,3.704,2.146,4.093,4.456c1.419,8.435,6.402,13.885,14.026,17.396
				c4.276,1.969,7.678,5.175,10.228,9.157c3.971,6.2,7.955,12.096,15.647,14.587c3.977,1.288,5.21,5.576,5.738,9.568
				c0.719,5.437,2.359,9.547,8.921,10.32c4.636,0.546,7.483,4.294,9.442,8.422c0.914,1.927,0.889,3.892-0.999,5.236
				c-2.139,1.523-3.988,0.153-4.941-1.483c-2.474-4.248-6.229-5.608-10.806-6.448c-5-0.917-6.875-5.216-7.556-9.715
				c-0.847-5.6-4.077-8.534-8.328-12.35c-11.41-10.244-21.777-21.646-33.616-31.555c-3.285-2.749-4.721-7.902-4.97-12.674
				C1018.622,1100.346,1019.051,1098.206,1021.862,1097.722z"/>
			<path style="fill:#C66A3F;" d="M1057.345,1262.609c-0.082-2.367,0.536-4.548,3.087-5.068c2.305-0.47,3.489,1.315,4.128,3.287
				c0.446,1.377,0.83,2.801,1.01,4.232c0.849,6.721,3.647,10.394,11.388,9.849c8.372-0.589,12.866,5.162,14.871,12.516
				c1.948,7.145,3.781,13.406,12.13,16.289c5.33,1.841,7.177,8.289,9.75,13.227c0.789,1.514,0.632,3.453-1.22,4.465
				c-1.742,0.953-3.419,0.408-4.563-1.05c-1.495-1.905-2.863-3.934-4.072-6.033c-1.366-2.37-2.797-5.065-5.424-5.667
				c-8.314-1.905-10.964-7.966-12.382-15.313c-1.449-7.512-4.949-11.981-13.812-11.569
				C1063.606,1282.177,1057.835,1273.975,1057.345,1262.609z"/>
			<path style="fill:#C66A3F;" d="M1095.207,1194.745c-0.273-2.12-0.409-4.57,2.599-4.906c2.718-0.303,4.085,1.535,4.288,3.945
				c1.566,18.564,10.325,34.214,19.904,49.548c1.356,2.171,2.504,4.48-0.296,6.339c-1.999,1.327-3.925,0.409-5.048-1.369
				C1106.224,1231.791,1096.082,1215.144,1095.207,1194.745z"/>
			<path style="fill:#D33821;" d="M1304.179,1406.185c-0.472,7.17-3.063,16.752-9.316,24.375
				c-12.74,15.528-27.931,14.001-45.09,0.732c-23.554-18.214-13.721-47.617,4.368-62.672c8.672-7.218,16.505-6.105,25.434-1.88
				C1294.998,1374.037,1304.226,1387.59,1304.179,1406.185z M1296.78,1404.381c-0.195-15.073-12.062-29.998-25.189-33.013
				c-3.674-0.844-7.208-0.493-10.507,1.683c-11.449,7.552-17.96,18.624-17.564,31.817c0.442,14.754,10.441,23.481,24.114,27.921
				c8.271,2.686,15.702,0.593,20.895-6.146C1293.885,1419.692,1296.227,1411.58,1296.78,1404.381z"/>
			<path style="fill:#D33821;" d="M1393.413,1512.949c-3.115-0.302-6-2.176-5.573-6.24c0.561-5.337,4.025-9.173,9.376-9.316
				c3.485-0.094,8.195,0.667,8.824,5.667C1406.54,1507.027,1398.943,1513.079,1393.413,1512.949z"/>
			<path style="fill:#D33821;" d="M1352.431,1504.109c0.132-5.935,4.361-7.049,9.335-7.195c4.677-0.137,8.482,1.344,8.158,6.732
				c-0.37,6.134-5.141,7.62-10.271,7.832C1354.957,1511.672,1352.58,1509.085,1352.431,1504.109z"/>
			<path style="fill:#D33821;" d="M1131.49,1462.108c0.358-14.633,9.368-33.274,24.267-36.006
				c11.702-2.146,21.767,1.807,30.721,8.277c13.09,9.459,20.337,37.939,12.012,53.857c-5.331,10.193-22.488,17.435-31.539,15.433
				C1149.036,1499.707,1131.802,1485.517,1131.49,1462.108z M1194.592,1471.328c0.393-9.627-2.803-18.338-7.994-26.077
				c-6.226-9.281-16.285-12.407-26.712-12.253c-8.704,0.128-17.056,9.482-19.466,19.246c-4.128,16.728,2.312,31.703,17.303,40.237
				C1175.237,1502.451,1194.598,1491.343,1194.592,1471.328z"/>
			<path style="fill:#D33821;" d="M1206.146,1548.424c0.033,4.669-1.136,8.337-5.365,8.015c-5.46-0.415-8.488-4.418-9.186-9.789
				c-0.553-4.251,2.102-7.008,5.861-6.574C1202.333,1540.639,1205.703,1543.911,1206.146,1548.424z"/>
			<path style="fill:#D33821;" d="M1195.856,1580.398c-0.116,2.62-1.756,5.669-5.872,5.529c-5.365-0.182-6.607-4.797-6.536-8.839
				c0.058-3.286,2.187-7.177,6.273-6.511C1193.861,1571.249,1196.039,1574.692,1195.856,1580.398z"/>
			<path style="fill:#5E4A43;" d="M869.688,707.163c-0.337,0.533-0.811,1.689-1.625,2.508
				c-13.457,13.551-23.677,29.63-35.081,44.783c-0.146,0.195-0.27,0.409-0.43,0.59c-1.845,2.081-3.43,5.745-6.864,2.939
				c-3.358-2.744-0.194-5.343,1.388-7.504c8.479-11.58,16.983-23.148,25.753-34.508c3.255-4.217,7.202-7.912,10.949-11.731
				c1.199-1.221,2.759-2.092,4.571-0.84C869.466,704.172,869.853,705.243,869.688,707.163z"/>
			<path style="fill:#5E4A43;" d="M861.509,745.76c-1.999-0.367-3.985-1.807-3.091-3.82c2.061-4.645,5.082-8.864,9.576-11.498
				c1.575-0.923,3.349,0.28,3.976,2.171C872.9,735.417,864.791,745.728,861.509,745.76z"/>
			<path style="fill:#89412F;" d="M703.058,469.129c4.891-5.214,10.056-9.858,15.286-14.425c1.863-1.627,4.049-3.362,6.339-0.89
				c2.295,2.477,0.389,4.407-1.398,6.196c-2.922,2.925-5.671,6.044-8.773,8.763c-3.845,3.37-3.731,5.828,0.242,9.309
				c9.03,7.91,13.528,17.673,9.899,29.919c-0.41,1.383-0.972,2.765-1.713,3.997c-1.184,1.968-2.756,3.682-5.317,2.302
				c-2.094-1.128-1.807-2.968-1.281-5.067c3.77-15.025,0.809-22.159-12.724-30.037c-5.561-3.237-10.813-6.635-13.512-12.766
				c-1.009-2.291-1.392-4.75,0.44-6.865c1.664-1.921,3.37-1.071,5.165,0.068c3.306,2.099,3.679-1.157,4.369-2.843
				c2.387-5.834,4.448-11.8,6.726-17.679c1.05-2.71,2.13-5.438,3.536-7.97c1.347-2.425,3.365-4.718,6.425-2.762
				c2.864,1.831,1.072,4.052-0.064,6.301C711.156,445.667,708.871,457.975,703.058,469.129z"/>
			<path style="fill:#89412F;" d="M720.4,532.757c6.518,3.609,8.785-1.074,10.655-7.12c1.012-3.272,3.4-5.888,6.556-7.518
				c1.784-0.921,3.816-1.584,5.267,0.396c1.284,1.753,1.284,3.93-0.701,5.119c-3.977,2.382-4.954,6.354-6.227,10.289
				c-1.727,5.339-5.439,7.784-11.09,7.312c-13.196-1.103-16.735,0.838-22.69,12.63c-1.305,2.583-2.126,5.407-3.324,8.05
				c-0.721,1.593-1.833,3.024-3.923,2.41c-1.877-0.551-2.463-2.049-2.624-3.914C691.292,548.771,707.446,532.203,720.4,532.757z"/>
			<path style="fill:#C66A3F;" d="M620.962,562.999c-0.687,3.486-0.587,6.369,0.374,9.18c0.82,2.398,0.606,4.535-2.025,5.34
				c-2.66,0.814-3.92-1.208-4.905-3.288c-1.977-4.173-1.012-8.616-1.132-12.948c-0.195-7.03-5.788-11.088-12.188-8.279
				c-2.898,1.272-5.168,2.125-6.412-1.406c-1.1-3.122,0.86-5.087,3.592-6.219c6.704-2.779,12.557,0.197,17.844,3.556
				c6.127,3.891,11.742,8.618,16.69,14.031c1.694,1.854,3.653,3.844,1.281,6.231c-2.404,2.42-4.43,0.033-6.368-1.236
				C625.538,566.536,624.326,563.832,620.962,562.999z"/>
			<path style="fill:#89412F;" d="M680.624,475.352c-0.07,3.254-2.306,3.923-4.748,4.677c-8.393,2.594-17.23,2.287-25.732,4.108
				c-2.831,0.606-5.682,1.171-8.452,1.995c-2.465,0.733-4.478,0.348-5.409-2.085c-1.033-2.702,1.056-4.29,3.081-4.897
				c4.609-1.381,9.318-2.775,14.076-3.23c6.99-0.669,13.903-1.526,20.76-3.057C676.7,472.306,679.654,471.756,680.624,475.352z"/>
			<path style="fill:#89412F;" d="M676.619,485.854c1.852-0.005,3.444,0.466,3.817,2.565c0.341,1.92-0.496,3.551-2.253,4.136
				c-7.41,2.467-14.825,4.805-20.375,10.824c-1.038,1.126-2.719,1.099-3.872-0.286c-1.729-2.075-0.943-4.032,0.337-6.003
				C657.234,492.527,670.932,485.606,676.619,485.854z"/>
			<path style="fill:#89412F;" d="M731.774,556.446c-0.216,2.095,1.002,6.429-3.571,6.392c-4.405-0.036-3.474-4.317-3.714-7.298
				c-0.077-0.955-0.044-1.923-0.01-2.883c0.092-2.607-0.36-5.999,3.247-6.185c4.095-0.211,3.91,3.361,4.041,6.253
				C731.81,553.684,731.774,554.646,731.774,556.446z"/>
			<path style="fill:#89412F;" d="M746.552,550.96c0.031,2.597-0.941,4.72-3.187,4.17c-3.735-0.916-6.005-3.944-6.857-7.642
				c-0.445-1.931,0.967-3.327,2.954-3.244C743.887,544.431,745.153,547.992,746.552,550.96z"/>
			<path style="fill:#5E4A43;" d="M914.442,904.643c0.007,1.646-0.798,2.889-2.253,3.44c-2.262,0.858-3.996-0.397-4.737-2.293
				c-4.001-10.225-5.652-21.09-8.265-31.69c-0.432-1.751,1.005-3.254,2.872-3.677c1.608-0.364,3.166,0.462,3.568,1.885
				C908.663,883.06,911.528,893.859,914.442,904.643z"/>
			<path style="fill:#5E4A43;" d="M921.526,923.548c0.542,0.24,1.476,0.344,1.815,0.848c4.488,6.661,8.42,13.622,10.463,21.461
				c0.372,1.427-0.137,2.95-1.833,3.533c-1.511,0.52-3.207,0.374-3.91-1.026c-3.48-6.936-6.955-13.89-9.991-21.024
				C917.238,925.383,918.991,923.734,921.526,923.548z"/>
			<path style="fill:#5E4A43;" d="M897.323,861.941c-0.367,3.881-1.889,7.099-6.072,6.608c-4.635-0.545-7.057-4.06-7.081-8.637
				c-0.02-3.807,2.102-6.826,6.11-6.518C895.155,853.769,896.801,857.65,897.323,861.941z"/>
			<path style="fill:#5E4A43;" d="M915.63,1036.271c-1.198,3.414-4.453,3.692-7.576,4.053c-18.658,2.155-36.991,5.829-54.849,11.712
				c-2.304,0.759-4.508,1.82-6.773,2.703c-1.961,0.765-4.012,0.929-5.23-1.058c-1.567-2.557,0.536-4.016,2.212-5.401
				c0.736-0.608,1.658-1.061,2.568-1.379c20.765-7.261,42.104-11.954,64.007-13.96
				C913.97,1032.577,915.645,1033.815,915.63,1036.271z"/>
			<path style="fill:#5E4A43;" d="M923.047,1033.262c-1.29,0.007-4.743,1.079-4.756-2.266c-0.018-4.836,4.414-4.879,7.946-5.154
				c2.624-0.204,5.566-0.26,6.193,3.285C932.933,1031.969,930.788,1032.962,923.047,1033.262z"/>
			<path style="fill:#5E4A43;" d="M1038.103,938.599c-0.092,2.411-1.575,3.3-2.843,4.454c-15.342,13.96-29.347,29.057-40.086,46.962
				c-1.382,2.303-2.721,6.143-6.457,4.003c-3.66-2.097-1.348-5.066,0.143-7.525c10.672-17.602,24.173-32.846,39.234-46.766
				c1.592-1.472,3.412-2.803,5.339-3.783C1036.547,934.359,1037.92,935.949,1038.103,938.599z"/>
			<path style="fill:#F2967C;" d="M1296.78,1404.381c-0.553,7.199-2.895,15.312-8.251,22.262
				c-5.192,6.739-12.624,8.832-20.895,6.146c-13.673-4.44-23.671-13.167-24.114-27.921c-0.396-13.193,6.115-24.265,17.564-31.817
				c3.299-2.176,6.833-2.527,10.507-1.683C1284.718,1374.383,1296.585,1389.308,1296.78,1404.381z"/>
			<path style="fill:#F2967C;" d="M1194.593,1471.328c0.005,20.015-19.356,31.123-36.87,21.153
				c-14.991-8.534-21.431-23.509-17.303-40.237c2.41-9.765,10.762-19.118,19.466-19.246c10.427-0.153,20.486,2.973,26.712,12.253
				C1191.79,1452.99,1194.985,1461.701,1194.593,1471.328z"/>
		</g>
	</g>
</g>
</svg>
